STARTFONT 2.1
FONT -FontForge-Sazanami Mincho-Medium-R-Normal--10-100-75-75-P-98-ISO10646-1
SIZE 10 75 75
FONTBOUNDINGBOX 10 11 0 -2
COMMENT "Generated by fontforge, http://fontforge.sourceforge.net"
COMMENT "(C) 1990-2003 Wada Laboratory, Univ. of Tokyo. 2003-04 /efont/. All rights reserved."
STARTPROPERTIES 40
FOUNDRY "FontForge"
FAMILY_NAME "Sazanami Mincho"
WEIGHT_NAME "Medium"
SLANT "R"
SETWIDTH_NAME "Normal"
ADD_STYLE_NAME ""
PIXEL_SIZE 10
POINT_SIZE 100
RESOLUTION_X 75
RESOLUTION_Y 75
SPACING "P"
AVERAGE_WIDTH 98
CHARSET_REGISTRY "ISO10646"
CHARSET_ENCODING "1"
FONTNAME_REGISTRY ""
CHARSET_COLLECTIONS "ASCII ISO8859-2 ISO8859-5 ISO8859-7 ISO8859-9 ISO8859-4 JISX0208.1997 BIG5 ISO10646-1"
FONT_NAME "Sazanami-Mincho-Regular"
FACE_NAME "Sazanami Mincho Regular"
FONT_VERSION "001.000"
FONT_ASCENT 8
FONT_DESCENT 2
UNDERLINE_POSITION -1
UNDERLINE_THICKNESS 1
X_HEIGHT 4
CAP_HEIGHT 6
DEFAULT_CHAR 0
RAW_ASCENT 859
RAW_DESCENT 140
NORM_SPACE 5
RELATIVE_WEIGHT 50
RELATIVE_SETWIDTH 50
SUPERSCRIPT_X 0
SUPERSCRIPT_Y 4
SUPERSCRIPT_SIZE 6
SUBSCRIPT_X 0
SUBSCRIPT_Y 1
SUBSCRIPT_SIZE 6
FIGURE_WIDTH 5
AVG_LOWERCASE_WIDTH 78
AVG_UPPERCASE_WIDTH 80
ENDPROPERTIES
CHARS 7203
STARTCHAR .notdef.dup1
ENCODING 0
SWIDTH 1000 0
DWIDTH 5 0
BBX 1 1 4 -2
BITMAP
00
ENDCHAR
STARTCHAR space
ENCODING 32
SWIDTH 500 0
DWIDTH 5 0
BBX 1 1 4 -2
BITMAP
00
ENDCHAR
STARTCHAR exclam
ENCODING 33
SWIDTH 500 0
DWIDTH 5 0
BBX 1 7 2 0
BITMAP
80
80
80
80
80
00
80
ENDCHAR
STARTCHAR quotedbl
ENCODING 34
SWIDTH 500 0
DWIDTH 5 0
BBX 3 4 1 4
BITMAP
A0
A0
A0
A0
ENDCHAR
STARTCHAR numbersign
ENCODING 35
SWIDTH 500 0
DWIDTH 5 0
BBX 4 7 0 0
BITMAP
50
50
F0
50
F0
50
50
ENDCHAR
STARTCHAR dollar
ENCODING 36
SWIDTH 500 0
DWIDTH 5 0
BBX 4 8 0 -1
BITMAP
20
70
A0
E0
70
50
E0
40
ENDCHAR
STARTCHAR percent
ENCODING 37
SWIDTH 500 0
DWIDTH 5 0
BBX 4 7 0 0
BITMAP
C0
C0
10
60
80
30
30
ENDCHAR
STARTCHAR ampersand
ENCODING 38
SWIDTH 500 0
DWIDTH 5 0
BBX 4 7 0 0
BITMAP
40
A0
A0
40
B0
A0
50
ENDCHAR
STARTCHAR quotesingle
ENCODING 39
SWIDTH 500 0
DWIDTH 5 0
BBX 1 4 2 4
BITMAP
80
80
80
80
ENDCHAR
STARTCHAR parenleft
ENCODING 40
SWIDTH 500 0
DWIDTH 5 0
BBX 3 9 1 -1
BITMAP
20
40
40
80
80
80
40
40
20
ENDCHAR
STARTCHAR parenright
ENCODING 41
SWIDTH 500 0
DWIDTH 5 0
BBX 3 9 0 -1
BITMAP
80
40
40
20
20
20
40
40
80
ENDCHAR
STARTCHAR asterisk
ENCODING 42
SWIDTH 500 0
DWIDTH 5 0
BBX 4 5 0 1
BITMAP
50
20
F0
20
50
ENDCHAR
STARTCHAR plus
ENCODING 43
SWIDTH 500 0
DWIDTH 5 0
BBX 4 5 0 1
BITMAP
20
20
F0
20
20
ENDCHAR
STARTCHAR comma
ENCODING 44
SWIDTH 500 0
DWIDTH 5 0
BBX 2 2 1 -1
BITMAP
40
80
ENDCHAR
STARTCHAR hyphen
ENCODING 45
SWIDTH 500 0
DWIDTH 5 0
BBX 4 1 0 3
BITMAP
F0
ENDCHAR
STARTCHAR period
ENCODING 46
SWIDTH 500 0
DWIDTH 5 0
BBX 1 1 1 0
BITMAP
80
ENDCHAR
STARTCHAR slash
ENCODING 47
SWIDTH 500 0
DWIDTH 5 0
BBX 4 8 0 -1
BITMAP
10
10
20
20
40
40
80
80
ENDCHAR
STARTCHAR zero
ENCODING 48
SWIDTH 500 0
DWIDTH 5 0
BBX 4 7 0 0
BITMAP
60
90
B0
D0
90
90
60
ENDCHAR
STARTCHAR one
ENCODING 49
SWIDTH 500 0
DWIDTH 5 0
BBX 3 7 0 0
BITMAP
20
60
A0
20
20
20
20
ENDCHAR
STARTCHAR two
ENCODING 50
SWIDTH 500 0
DWIDTH 5 0
BBX 4 7 0 0
BITMAP
60
90
10
20
40
80
F0
ENDCHAR
STARTCHAR three
ENCODING 51
SWIDTH 500 0
DWIDTH 5 0
BBX 4 7 0 0
BITMAP
F0
10
20
60
10
90
60
ENDCHAR
STARTCHAR four
ENCODING 52
SWIDTH 500 0
DWIDTH 5 0
BBX 4 7 0 0
BITMAP
20
60
A0
A0
F0
20
20
ENDCHAR
STARTCHAR five
ENCODING 53
SWIDTH 500 0
DWIDTH 5 0
BBX 4 7 0 0
BITMAP
F0
80
E0
10
10
90
60
ENDCHAR
STARTCHAR six
ENCODING 54
SWIDTH 500 0
DWIDTH 5 0
BBX 4 7 0 0
BITMAP
60
80
E0
90
90
90
60
ENDCHAR
STARTCHAR seven
ENCODING 55
SWIDTH 500 0
DWIDTH 5 0
BBX 4 7 0 0
BITMAP
F0
10
20
20
40
40
40
ENDCHAR
STARTCHAR eight
ENCODING 56
SWIDTH 500 0
DWIDTH 5 0
BBX 4 7 0 0
BITMAP
60
90
90
60
90
90
60
ENDCHAR
STARTCHAR nine
ENCODING 57
SWIDTH 500 0
DWIDTH 5 0
BBX 4 7 0 0
BITMAP
60
90
90
90
70
10
60
ENDCHAR
STARTCHAR colon
ENCODING 58
SWIDTH 500 0
DWIDTH 5 0
BBX 1 4 2 1
BITMAP
80
00
00
80
ENDCHAR
STARTCHAR semicolon
ENCODING 59
SWIDTH 500 0
DWIDTH 5 0
BBX 2 5 1 0
BITMAP
40
00
00
40
80
ENDCHAR
STARTCHAR less
ENCODING 60
SWIDTH 500 0
DWIDTH 5 0
BBX 4 7 0 0
BITMAP
10
20
40
80
40
20
10
ENDCHAR
STARTCHAR equal
ENCODING 61
SWIDTH 500 0
DWIDTH 5 0
BBX 4 3 0 2
BITMAP
F0
00
F0
ENDCHAR
STARTCHAR greater
ENCODING 62
SWIDTH 500 0
DWIDTH 5 0
BBX 4 7 0 0
BITMAP
80
40
20
10
20
40
80
ENDCHAR
STARTCHAR question
ENCODING 63
SWIDTH 500 0
DWIDTH 5 0
BBX 4 7 0 0
BITMAP
E0
10
10
20
40
00
40
ENDCHAR
STARTCHAR at
ENCODING 64
SWIDTH 500 0
DWIDTH 5 0
BBX 4 7 0 0
BITMAP
60
90
B0
A0
B0
80
70
ENDCHAR
STARTCHAR A
ENCODING 65
SWIDTH 500 0
DWIDTH 5 0
BBX 4 7 0 0
BITMAP
60
90
90
F0
90
90
90
ENDCHAR
STARTCHAR B
ENCODING 66
SWIDTH 500 0
DWIDTH 5 0
BBX 4 7 0 0
BITMAP
E0
90
90
E0
90
90
E0
ENDCHAR
STARTCHAR C
ENCODING 67
SWIDTH 500 0
DWIDTH 5 0
BBX 4 7 0 0
BITMAP
60
90
80
80
80
80
70
ENDCHAR
STARTCHAR D
ENCODING 68
SWIDTH 500 0
DWIDTH 5 0
BBX 4 7 0 0
BITMAP
E0
90
90
90
90
90
E0
ENDCHAR
STARTCHAR E
ENCODING 69
SWIDTH 500 0
DWIDTH 5 0
BBX 4 7 0 0
BITMAP
F0
80
80
E0
80
80
F0
ENDCHAR
STARTCHAR F
ENCODING 70
SWIDTH 500 0
DWIDTH 5 0
BBX 4 7 0 0
BITMAP
F0
80
80
E0
80
80
80
ENDCHAR
STARTCHAR G
ENCODING 71
SWIDTH 500 0
DWIDTH 5 0
BBX 4 7 0 0
BITMAP
70
80
80
B0
90
90
70
ENDCHAR
STARTCHAR H
ENCODING 72
SWIDTH 500 0
DWIDTH 5 0
BBX 4 7 0 0
BITMAP
90
90
90
F0
90
90
90
ENDCHAR
STARTCHAR I
ENCODING 73
SWIDTH 500 0
DWIDTH 5 0
BBX 3 7 1 0
BITMAP
E0
40
40
40
40
40
E0
ENDCHAR
STARTCHAR J
ENCODING 74
SWIDTH 500 0
DWIDTH 5 0
BBX 4 7 0 0
BITMAP
10
10
10
10
90
90
60
ENDCHAR
STARTCHAR K
ENCODING 75
SWIDTH 500 0
DWIDTH 5 0
BBX 4 7 0 0
BITMAP
90
A0
C0
C0
A0
90
90
ENDCHAR
STARTCHAR L
ENCODING 76
SWIDTH 500 0
DWIDTH 5 0
BBX 4 7 0 0
BITMAP
80
80
80
80
80
80
F0
ENDCHAR
STARTCHAR M
ENCODING 77
SWIDTH 500 0
DWIDTH 5 0
BBX 4 7 0 0
BITMAP
90
B0
D0
90
90
90
90
ENDCHAR
STARTCHAR N
ENCODING 78
SWIDTH 500 0
DWIDTH 5 0
BBX 4 7 0 0
BITMAP
90
D0
B0
90
90
90
90
ENDCHAR
STARTCHAR O
ENCODING 79
SWIDTH 500 0
DWIDTH 5 0
BBX 4 7 0 0
BITMAP
60
90
90
90
90
90
60
ENDCHAR
STARTCHAR P
ENCODING 80
SWIDTH 500 0
DWIDTH 5 0
BBX 4 7 0 0
BITMAP
E0
90
90
90
E0
80
80
ENDCHAR
STARTCHAR Q
ENCODING 81
SWIDTH 500 0
DWIDTH 5 0
BBX 4 9 0 -2
BITMAP
60
90
90
90
90
90
60
40
30
ENDCHAR
STARTCHAR R
ENCODING 82
SWIDTH 500 0
DWIDTH 5 0
BBX 4 7 0 0
BITMAP
E0
90
90
E0
90
90
90
ENDCHAR
STARTCHAR S
ENCODING 83
SWIDTH 500 0
DWIDTH 5 0
BBX 4 7 0 0
BITMAP
70
80
80
60
10
10
E0
ENDCHAR
STARTCHAR T
ENCODING 84
SWIDTH 500 0
DWIDTH 5 0
BBX 5 7 0 0
BITMAP
F8
20
20
20
20
20
20
ENDCHAR
STARTCHAR U
ENCODING 85
SWIDTH 500 0
DWIDTH 5 0
BBX 4 7 0 0
BITMAP
90
90
90
90
90
90
60
ENDCHAR
STARTCHAR V
ENCODING 86
SWIDTH 500 0
DWIDTH 5 0
BBX 4 7 0 0
BITMAP
90
90
90
90
90
A0
C0
ENDCHAR
STARTCHAR W
ENCODING 87
SWIDTH 500 0
DWIDTH 5 0
BBX 4 7 0 0
BITMAP
90
90
90
90
D0
B0
90
ENDCHAR
STARTCHAR X
ENCODING 88
SWIDTH 500 0
DWIDTH 5 0
BBX 4 7 0 0
BITMAP
90
90
90
60
90
90
90
ENDCHAR
STARTCHAR Y
ENCODING 89
SWIDTH 500 0
DWIDTH 5 0
BBX 4 7 0 0
BITMAP
90
90
90
A0
40
40
40
ENDCHAR
STARTCHAR Z
ENCODING 90
SWIDTH 500 0
DWIDTH 5 0
BBX 4 7 0 0
BITMAP
F0
10
20
40
80
80
F0
ENDCHAR
STARTCHAR bracketleft
ENCODING 91
SWIDTH 500 0
DWIDTH 5 0
BBX 3 9 1 -1
BITMAP
E0
80
80
80
80
80
80
80
E0
ENDCHAR
STARTCHAR backslash
ENCODING 92
SWIDTH 500 0
DWIDTH 5 0
BBX 4 8 0 -1
BITMAP
80
80
40
40
20
20
10
10
ENDCHAR
STARTCHAR bracketright
ENCODING 93
SWIDTH 500 0
DWIDTH 5 0
BBX 3 9 0 -1
BITMAP
E0
20
20
20
20
20
20
20
E0
ENDCHAR
STARTCHAR asciicircum
ENCODING 94
SWIDTH 500 0
DWIDTH 5 0
BBX 5 3 0 5
BITMAP
20
50
88
ENDCHAR
STARTCHAR underscore
ENCODING 95
SWIDTH 500 0
DWIDTH 5 0
BBX 4 1 0 -1
BITMAP
F0
ENDCHAR
STARTCHAR grave
ENCODING 96
SWIDTH 500 0
DWIDTH 5 0
BBX 2 4 1 4
BITMAP
80
80
40
40
ENDCHAR
STARTCHAR a
ENCODING 97
SWIDTH 500 0
DWIDTH 5 0
BBX 4 5 0 0
BITMAP
60
10
70
90
70
ENDCHAR
STARTCHAR b
ENCODING 98
SWIDTH 500 0
DWIDTH 5 0
BBX 4 7 0 0
BITMAP
80
80
E0
90
90
90
E0
ENDCHAR
STARTCHAR c
ENCODING 99
SWIDTH 500 0
DWIDTH 5 0
BBX 4 5 0 0
BITMAP
60
90
80
80
70
ENDCHAR
STARTCHAR d
ENCODING 100
SWIDTH 500 0
DWIDTH 5 0
BBX 4 7 0 0
BITMAP
10
10
70
90
90
90
70
ENDCHAR
STARTCHAR e
ENCODING 101
SWIDTH 500 0
DWIDTH 5 0
BBX 4 5 0 0
BITMAP
60
90
F0
80
70
ENDCHAR
STARTCHAR f
ENCODING 102
SWIDTH 500 0
DWIDTH 5 0
BBX 4 7 0 0
BITMAP
30
40
40
F0
40
40
40
ENDCHAR
STARTCHAR g
ENCODING 103
SWIDTH 500 0
DWIDTH 5 0
BBX 4 7 0 -2
BITMAP
70
90
90
90
70
10
60
ENDCHAR
STARTCHAR h
ENCODING 104
SWIDTH 500 0
DWIDTH 5 0
BBX 4 7 0 0
BITMAP
80
80
E0
90
90
90
90
ENDCHAR
STARTCHAR i
ENCODING 105
SWIDTH 500 0
DWIDTH 5 0
BBX 3 8 1 0
BITMAP
40
00
00
C0
40
40
40
E0
ENDCHAR
STARTCHAR j
ENCODING 106
SWIDTH 500 0
DWIDTH 5 0
BBX 3 10 0 -2
BITMAP
20
00
00
60
20
20
20
20
20
C0
ENDCHAR
STARTCHAR k
ENCODING 107
SWIDTH 500 0
DWIDTH 5 0
BBX 4 7 0 0
BITMAP
80
80
90
A0
C0
A0
90
ENDCHAR
STARTCHAR l
ENCODING 108
SWIDTH 500 0
DWIDTH 5 0
BBX 3 7 1 0
BITMAP
C0
40
40
40
40
40
60
ENDCHAR
STARTCHAR m
ENCODING 109
SWIDTH 500 0
DWIDTH 5 0
BBX 5 5 0 0
BITMAP
F0
A8
A8
A8
A8
ENDCHAR
STARTCHAR n
ENCODING 110
SWIDTH 500 0
DWIDTH 5 0
BBX 4 5 0 0
BITMAP
E0
90
90
90
90
ENDCHAR
STARTCHAR o
ENCODING 111
SWIDTH 500 0
DWIDTH 5 0
BBX 4 5 0 0
BITMAP
60
90
90
90
60
ENDCHAR
STARTCHAR p
ENCODING 112
SWIDTH 500 0
DWIDTH 5 0
BBX 4 7 0 -2
BITMAP
E0
90
90
90
E0
80
80
ENDCHAR
STARTCHAR q
ENCODING 113
SWIDTH 500 0
DWIDTH 5 0
BBX 4 7 0 -2
BITMAP
70
90
90
90
70
10
10
ENDCHAR
STARTCHAR r
ENCODING 114
SWIDTH 500 0
DWIDTH 5 0
BBX 4 5 0 0
BITMAP
B0
C0
80
80
80
ENDCHAR
STARTCHAR s
ENCODING 115
SWIDTH 500 0
DWIDTH 5 0
BBX 4 5 0 0
BITMAP
70
80
60
10
E0
ENDCHAR
STARTCHAR t
ENCODING 116
SWIDTH 500 0
DWIDTH 5 0
BBX 4 7 0 0
BITMAP
40
40
F0
40
40
40
30
ENDCHAR
STARTCHAR u
ENCODING 117
SWIDTH 500 0
DWIDTH 5 0
BBX 4 5 0 0
BITMAP
90
90
90
90
70
ENDCHAR
STARTCHAR v
ENCODING 118
SWIDTH 500 0
DWIDTH 5 0
BBX 4 5 0 0
BITMAP
90
90
90
A0
C0
ENDCHAR
STARTCHAR w
ENCODING 119
SWIDTH 500 0
DWIDTH 5 0
BBX 4 5 0 0
BITMAP
90
90
D0
B0
90
ENDCHAR
STARTCHAR x
ENCODING 120
SWIDTH 500 0
DWIDTH 5 0
BBX 4 5 0 0
BITMAP
90
90
60
90
90
ENDCHAR
STARTCHAR y
ENCODING 121
SWIDTH 500 0
DWIDTH 5 0
BBX 4 7 0 -2
BITMAP
90
90
90
90
70
10
60
ENDCHAR
STARTCHAR z
ENCODING 122
SWIDTH 500 0
DWIDTH 5 0
BBX 4 5 0 0
BITMAP
F0
20
40
80
F0
ENDCHAR
STARTCHAR braceleft
ENCODING 123
SWIDTH 500 0
DWIDTH 5 0
BBX 4 9 0 -1
BITMAP
30
40
40
40
80
40
40
40
30
ENDCHAR
STARTCHAR bar
ENCODING 124
SWIDTH 500 0
DWIDTH 5 0
BBX 1 9 2 -1
BITMAP
80
80
80
80
80
80
80
80
80
ENDCHAR
STARTCHAR braceright
ENCODING 125
SWIDTH 500 0
DWIDTH 5 0
BBX 4 9 0 -1
BITMAP
C0
20
20
20
10
20
20
20
C0
ENDCHAR
STARTCHAR asciitilde
ENCODING 126
SWIDTH 500 0
DWIDTH 5 0
BBX 4 2 0 5
BITMAP
50
A0
ENDCHAR
STARTCHAR uni00A0
ENCODING 160
SWIDTH 500 0
DWIDTH 5 0
BBX 1 1 4 -2
BITMAP
00
ENDCHAR
STARTCHAR exclamdown
ENCODING 161
SWIDTH 500 0
DWIDTH 5 0
BBX 1 7 2 0
BITMAP
80
00
80
80
80
80
80
ENDCHAR
STARTCHAR cent
ENCODING 162
SWIDTH 500 0
DWIDTH 5 0
BBX 4 8 0 -1
BITMAP
20
20
70
A0
A0
A0
70
20
ENDCHAR
STARTCHAR sterling
ENCODING 163
SWIDTH 500 0
DWIDTH 5 0
BBX 4 7 0 0
BITMAP
30
40
40
F0
40
40
B0
ENDCHAR
STARTCHAR currency
ENCODING 164
SWIDTH 1000 0
DWIDTH 5 0
BBX 4 5 0 1
BITMAP
90
60
60
60
90
ENDCHAR
STARTCHAR yen
ENCODING 165
SWIDTH 500 0
DWIDTH 5 0
BBX 4 7 0 0
BITMAP
90
A0
40
F0
40
F0
40
ENDCHAR
STARTCHAR brokenbar
ENCODING 166
SWIDTH 500 0
DWIDTH 5 0
BBX 1 9 2 -1
BITMAP
80
80
80
80
00
80
80
80
80
ENDCHAR
STARTCHAR section
ENCODING 167
SWIDTH 1000 0
DWIDTH 5 0
BBX 4 9 0 -1
BITMAP
60
90
80
60
90
60
10
90
60
ENDCHAR
STARTCHAR dieresis
ENCODING 168
SWIDTH 1000 0
DWIDTH 5 0
BBX 3 1 1 6
BITMAP
A0
ENDCHAR
STARTCHAR copyright
ENCODING 169
SWIDTH 500 0
DWIDTH 5 0
BBX 4 7 0 0
BITMAP
F0
90
60
40
60
90
F0
ENDCHAR
STARTCHAR ordfeminine
ENCODING 170
SWIDTH 500 0
DWIDTH 5 0
BBX 4 7 0 0
BITMAP
60
10
70
90
70
00
F0
ENDCHAR
STARTCHAR guillemotleft
ENCODING 171
SWIDTH 500 0
DWIDTH 5 0
BBX 4 7 0 0
BITMAP
10
20
50
A0
50
20
10
ENDCHAR
STARTCHAR logicalnot
ENCODING 172
SWIDTH 490 0
DWIDTH 5 0
BBX 4 3 0 1
BITMAP
F0
10
10
ENDCHAR
STARTCHAR uni00AD
ENCODING 173
SWIDTH 500 0
DWIDTH 5 0
BBX 3 1 1 3
BITMAP
E0
ENDCHAR
STARTCHAR registered
ENCODING 174
SWIDTH 500 0
DWIDTH 5 0
BBX 4 7 0 0
BITMAP
F0
90
60
40
40
90
F0
ENDCHAR
STARTCHAR macron
ENCODING 175
SWIDTH 500 0
DWIDTH 5 0
BBX 3 1 1 6
BITMAP
E0
ENDCHAR
STARTCHAR degree
ENCODING 176
SWIDTH 1000 0
DWIDTH 5 0
BBX 4 4 0 4
BITMAP
60
90
90
60
ENDCHAR
STARTCHAR plusminus
ENCODING 177
SWIDTH 1000 0
DWIDTH 5 0
BBX 4 7 0 0
BITMAP
40
40
F0
40
40
00
F0
ENDCHAR
STARTCHAR uni00B2
ENCODING 178
SWIDTH 500 0
DWIDTH 5 0
BBX 3 5 0 3
BITMAP
C0
20
40
80
E0
ENDCHAR
STARTCHAR uni00B3
ENCODING 179
SWIDTH 500 0
DWIDTH 5 0
BBX 3 5 0 3
BITMAP
E0
20
40
20
C0
ENDCHAR
STARTCHAR acute
ENCODING 180
SWIDTH 1000 0
DWIDTH 5 0
BBX 2 2 1 7
BITMAP
40
80
ENDCHAR
STARTCHAR uni00B5
ENCODING 181
SWIDTH 500 0
DWIDTH 5 0
BBX 4 7 0 -2
BITMAP
90
90
90
B0
D0
80
80
ENDCHAR
STARTCHAR paragraph
ENCODING 182
SWIDTH 1000 0
DWIDTH 5 0
BBX 4 7 0 0
BITMAP
F0
D0
D0
D0
50
50
50
ENDCHAR
STARTCHAR periodcentered
ENCODING 183
SWIDTH 500 0
DWIDTH 5 0
BBX 1 1 2 3
BITMAP
80
ENDCHAR
STARTCHAR cedilla
ENCODING 184
SWIDTH 500 0
DWIDTH 5 0
BBX 3 3 1 -2
BITMAP
20
40
80
ENDCHAR
STARTCHAR uni00B9
ENCODING 185
SWIDTH 500 0
DWIDTH 5 0
BBX 2 5 0 3
BITMAP
40
C0
40
40
40
ENDCHAR
STARTCHAR ordmasculine
ENCODING 186
SWIDTH 500 0
DWIDTH 5 0
BBX 4 6 0 2
BITMAP
60
90
90
60
00
F0
ENDCHAR
STARTCHAR guillemotright
ENCODING 187
SWIDTH 500 0
DWIDTH 5 0
BBX 4 7 0 0
BITMAP
80
40
A0
50
A0
40
80
ENDCHAR
STARTCHAR onequarter
ENCODING 188
SWIDTH 500 0
DWIDTH 5 0
BBX 4 8 0 0
BITMAP
40
C0
40
40
30
50
70
10
ENDCHAR
STARTCHAR onehalf
ENCODING 189
SWIDTH 500 0
DWIDTH 5 0
BBX 4 8 0 0
BITMAP
40
C0
40
40
70
10
20
70
ENDCHAR
STARTCHAR threequarters
ENCODING 190
SWIDTH 500 0
DWIDTH 5 0
BBX 4 8 0 0
BITMAP
E0
40
20
C0
30
50
70
10
ENDCHAR
STARTCHAR questiondown
ENCODING 191
SWIDTH 500 0
DWIDTH 5 0
BBX 4 7 0 0
BITMAP
20
00
20
40
80
80
70
ENDCHAR
STARTCHAR Agrave
ENCODING 192
SWIDTH 500 0
DWIDTH 5 0
BBX 4 9 0 0
BITMAP
40
20
00
60
90
90
F0
90
90
ENDCHAR
STARTCHAR Aacute
ENCODING 193
SWIDTH 500 0
DWIDTH 5 0
BBX 4 9 0 0
BITMAP
20
40
00
60
90
90
F0
90
90
ENDCHAR
STARTCHAR Acircumflex
ENCODING 194
SWIDTH 500 0
DWIDTH 5 0
BBX 4 9 0 0
BITMAP
60
90
00
60
90
90
F0
90
90
ENDCHAR
STARTCHAR Atilde
ENCODING 195
SWIDTH 500 0
DWIDTH 5 0
BBX 4 9 0 0
BITMAP
50
A0
00
60
90
90
F0
90
90
ENDCHAR
STARTCHAR Adieresis
ENCODING 196
SWIDTH 500 0
DWIDTH 5 0
BBX 4 9 0 0
BITMAP
50
50
00
60
90
90
F0
90
90
ENDCHAR
STARTCHAR Aring
ENCODING 197
SWIDTH 500 0
DWIDTH 5 0
BBX 4 9 0 0
BITMAP
60
90
90
60
90
90
F0
90
90
ENDCHAR
STARTCHAR AE
ENCODING 198
SWIDTH 875 0
DWIDTH 5 0
BBX 4 7 0 0
BITMAP
F0
A0
A0
F0
A0
A0
B0
ENDCHAR
STARTCHAR Ccedilla
ENCODING 199
SWIDTH 500 0
DWIDTH 5 0
BBX 4 9 0 -2
BITMAP
60
90
80
80
80
80
70
20
40
ENDCHAR
STARTCHAR Egrave
ENCODING 200
SWIDTH 500 0
DWIDTH 5 0
BBX 4 9 0 0
BITMAP
40
20
00
F0
80
E0
80
80
F0
ENDCHAR
STARTCHAR Eacute
ENCODING 201
SWIDTH 500 0
DWIDTH 5 0
BBX 4 9 0 0
BITMAP
20
40
00
F0
80
E0
80
80
F0
ENDCHAR
STARTCHAR Ecircumflex
ENCODING 202
SWIDTH 500 0
DWIDTH 5 0
BBX 4 9 0 0
BITMAP
60
90
00
F0
80
E0
80
80
F0
ENDCHAR
STARTCHAR Edieresis
ENCODING 203
SWIDTH 500 0
DWIDTH 5 0
BBX 4 9 0 0
BITMAP
50
50
00
F0
80
E0
80
80
F0
ENDCHAR
STARTCHAR Igrave
ENCODING 204
SWIDTH 500 0
DWIDTH 5 0
BBX 3 9 1 0
BITMAP
40
20
00
E0
40
40
40
40
E0
ENDCHAR
STARTCHAR Iacute
ENCODING 205
SWIDTH 500 0
DWIDTH 5 0
BBX 3 9 1 0
BITMAP
20
40
00
E0
40
40
40
40
E0
ENDCHAR
STARTCHAR Icircumflex
ENCODING 206
SWIDTH 500 0
DWIDTH 5 0
BBX 4 9 0 0
BITMAP
60
90
00
70
20
20
20
20
70
ENDCHAR
STARTCHAR Idieresis
ENCODING 207
SWIDTH 500 0
DWIDTH 5 0
BBX 3 9 1 0
BITMAP
A0
A0
00
E0
40
40
40
40
E0
ENDCHAR
STARTCHAR Eth
ENCODING 208
SWIDTH 500 0
DWIDTH 5 0
BBX 4 7 0 0
BITMAP
E0
50
50
F0
50
50
E0
ENDCHAR
STARTCHAR Ntilde
ENCODING 209
SWIDTH 500 0
DWIDTH 5 0
BBX 4 9 0 0
BITMAP
50
A0
00
90
D0
B0
90
90
90
ENDCHAR
STARTCHAR Ograve
ENCODING 210
SWIDTH 500 0
DWIDTH 5 0
BBX 4 9 0 0
BITMAP
40
20
00
60
90
90
90
90
60
ENDCHAR
STARTCHAR Oacute
ENCODING 211
SWIDTH 500 0
DWIDTH 5 0
BBX 4 9 0 0
BITMAP
20
40
00
60
90
90
90
90
60
ENDCHAR
STARTCHAR Ocircumflex
ENCODING 212
SWIDTH 500 0
DWIDTH 5 0
BBX 4 9 0 0
BITMAP
60
90
00
60
90
90
90
90
60
ENDCHAR
STARTCHAR Otilde
ENCODING 213
SWIDTH 500 0
DWIDTH 5 0
BBX 4 9 0 0
BITMAP
50
A0
00
60
90
90
90
90
60
ENDCHAR
STARTCHAR Odieresis
ENCODING 214
SWIDTH 500 0
DWIDTH 5 0
BBX 4 9 0 0
BITMAP
50
50
00
60
90
90
90
90
60
ENDCHAR
STARTCHAR multiply
ENCODING 215
SWIDTH 1000 0
DWIDTH 5 0
BBX 4 5 0 1
BITMAP
90
90
60
90
90
ENDCHAR
STARTCHAR Oslash
ENCODING 216
SWIDTH 500 0
DWIDTH 5 0
BBX 4 9 0 -1
BITMAP
10
60
90
B0
D0
90
90
60
80
ENDCHAR
STARTCHAR Ugrave
ENCODING 217
SWIDTH 500 0
DWIDTH 5 0
BBX 4 9 0 0
BITMAP
40
20
00
90
90
90
90
90
60
ENDCHAR
STARTCHAR Uacute
ENCODING 218
SWIDTH 500 0
DWIDTH 5 0
BBX 4 9 0 0
BITMAP
20
40
00
90
90
90
90
90
60
ENDCHAR
STARTCHAR Ucircumflex
ENCODING 219
SWIDTH 500 0
DWIDTH 5 0
BBX 4 9 0 0
BITMAP
60
90
00
90
90
90
90
90
60
ENDCHAR
STARTCHAR Udieresis
ENCODING 220
SWIDTH 500 0
DWIDTH 5 0
BBX 4 9 0 0
BITMAP
50
50
00
90
90
90
90
90
60
ENDCHAR
STARTCHAR Yacute
ENCODING 221
SWIDTH 500 0
DWIDTH 5 0
BBX 4 9 0 0
BITMAP
20
40
00
90
90
A0
40
40
40
ENDCHAR
STARTCHAR Thorn
ENCODING 222
SWIDTH 500 0
DWIDTH 5 0
BBX 4 8 0 0
BITMAP
80
E0
90
90
90
E0
80
80
ENDCHAR
STARTCHAR germandbls
ENCODING 223
SWIDTH 500 0
DWIDTH 5 0
BBX 4 9 0 -2
BITMAP
60
90
90
E0
90
90
E0
80
80
ENDCHAR
STARTCHAR agrave
ENCODING 224
SWIDTH 500 0
DWIDTH 5 0
BBX 4 9 0 0
BITMAP
40
20
00
00
60
10
70
90
70
ENDCHAR
STARTCHAR aacute
ENCODING 225
SWIDTH 500 0
DWIDTH 5 0
BBX 4 9 0 0
BITMAP
20
40
00
00
60
10
70
90
70
ENDCHAR
STARTCHAR acircumflex
ENCODING 226
SWIDTH 500 0
DWIDTH 5 0
BBX 4 9 0 0
BITMAP
60
90
00
00
60
10
70
90
70
ENDCHAR
STARTCHAR atilde
ENCODING 227
SWIDTH 500 0
DWIDTH 5 0
BBX 4 9 0 0
BITMAP
50
A0
00
00
60
10
70
90
70
ENDCHAR
STARTCHAR adieresis
ENCODING 228
SWIDTH 500 0
DWIDTH 5 0
BBX 4 9 0 0
BITMAP
50
50
00
00
60
10
70
90
70
ENDCHAR
STARTCHAR aring
ENCODING 229
SWIDTH 500 0
DWIDTH 5 0
BBX 4 9 0 0
BITMAP
60
90
60
00
60
10
70
90
70
ENDCHAR
STARTCHAR ae
ENCODING 230
SWIDTH 812 0
DWIDTH 5 0
BBX 4 5 0 0
BITMAP
F0
20
70
A0
F0
ENDCHAR
STARTCHAR ccedilla
ENCODING 231
SWIDTH 500 0
DWIDTH 5 0
BBX 4 7 0 -2
BITMAP
60
90
80
80
70
20
40
ENDCHAR
STARTCHAR egrave
ENCODING 232
SWIDTH 500 0
DWIDTH 5 0
BBX 4 9 0 0
BITMAP
40
20
00
00
60
90
F0
80
70
ENDCHAR
STARTCHAR eacute
ENCODING 233
SWIDTH 500 0
DWIDTH 5 0
BBX 4 9 0 0
BITMAP
20
40
00
00
60
90
F0
80
70
ENDCHAR
STARTCHAR ecircumflex
ENCODING 234
SWIDTH 500 0
DWIDTH 5 0
BBX 4 9 0 0
BITMAP
60
90
00
00
60
90
F0
80
70
ENDCHAR
STARTCHAR edieresis
ENCODING 235
SWIDTH 500 0
DWIDTH 5 0
BBX 4 9 0 0
BITMAP
50
50
00
00
60
90
F0
80
70
ENDCHAR
STARTCHAR igrave
ENCODING 236
SWIDTH 500 0
DWIDTH 5 0
BBX 3 9 1 0
BITMAP
40
20
00
00
C0
40
40
40
E0
ENDCHAR
STARTCHAR iacute
ENCODING 237
SWIDTH 500 0
DWIDTH 5 0
BBX 3 9 1 0
BITMAP
20
40
00
00
C0
40
40
40
E0
ENDCHAR
STARTCHAR icircumflex
ENCODING 238
SWIDTH 500 0
DWIDTH 5 0
BBX 4 9 0 0
BITMAP
60
90
00
00
60
20
20
20
70
ENDCHAR
STARTCHAR idieresis
ENCODING 239
SWIDTH 500 0
DWIDTH 5 0
BBX 3 9 1 0
BITMAP
A0
A0
00
00
C0
40
40
40
E0
ENDCHAR
STARTCHAR eth
ENCODING 240
SWIDTH 500 0
DWIDTH 5 0
BBX 4 9 0 0
BITMAP
80
70
C0
20
60
90
90
90
60
ENDCHAR
STARTCHAR ntilde
ENCODING 241
SWIDTH 500 0
DWIDTH 5 0
BBX 4 9 0 0
BITMAP
50
A0
00
00
E0
90
90
90
90
ENDCHAR
STARTCHAR ograve
ENCODING 242
SWIDTH 500 0
DWIDTH 5 0
BBX 4 9 0 0
BITMAP
40
20
00
00
60
90
90
90
60
ENDCHAR
STARTCHAR oacute
ENCODING 243
SWIDTH 500 0
DWIDTH 5 0
BBX 4 9 0 0
BITMAP
20
40
00
00
60
90
90
90
60
ENDCHAR
STARTCHAR ocircumflex
ENCODING 244
SWIDTH 500 0
DWIDTH 5 0
BBX 4 9 0 0
BITMAP
60
90
00
00
60
90
90
90
60
ENDCHAR
STARTCHAR otilde
ENCODING 245
SWIDTH 500 0
DWIDTH 5 0
BBX 4 9 0 0
BITMAP
50
A0
00
00
60
90
90
90
60
ENDCHAR
STARTCHAR odieresis
ENCODING 246
SWIDTH 500 0
DWIDTH 5 0
BBX 4 9 0 0
BITMAP
50
50
00
00
60
90
90
90
60
ENDCHAR
STARTCHAR divide
ENCODING 247
SWIDTH 1000 0
DWIDTH 5 0
BBX 4 7 0 0
BITMAP
40
40
00
F0
00
40
40
ENDCHAR
STARTCHAR oslash
ENCODING 248
SWIDTH 500 0
DWIDTH 5 0
BBX 4 7 0 -1
BITMAP
10
60
90
F0
90
60
80
ENDCHAR
STARTCHAR ugrave
ENCODING 249
SWIDTH 500 0
DWIDTH 5 0
BBX 4 9 0 0
BITMAP
40
20
00
00
90
90
90
90
70
ENDCHAR
STARTCHAR uacute
ENCODING 250
SWIDTH 500 0
DWIDTH 5 0
BBX 4 9 0 0
BITMAP
20
40
00
00
90
90
90
90
70
ENDCHAR
STARTCHAR ucircumflex
ENCODING 251
SWIDTH 500 0
DWIDTH 5 0
BBX 4 9 0 0
BITMAP
60
90
00
00
90
90
90
90
70
ENDCHAR
STARTCHAR udieresis
ENCODING 252
SWIDTH 500 0
DWIDTH 5 0
BBX 4 9 0 0
BITMAP
50
50
00
00
90
90
90
90
70
ENDCHAR
STARTCHAR yacute
ENCODING 253
SWIDTH 500 0
DWIDTH 5 0
BBX 4 11 0 -2
BITMAP
20
40
00
00
90
90
90
90
70
10
60
ENDCHAR
STARTCHAR thorn
ENCODING 254
SWIDTH 500 0
DWIDTH 5 0
BBX 4 9 0 -2
BITMAP
80
80
E0
90
90
90
E0
80
80
ENDCHAR
STARTCHAR ydieresis
ENCODING 255
SWIDTH 500 0
DWIDTH 5 0
BBX 4 11 0 -2
BITMAP
50
50
00
00
90
90
90
90
70
10
60
ENDCHAR
STARTCHAR Alpha
ENCODING 913
SWIDTH 1000 0
DWIDTH 10 0
BBX 7 8 1 0
BITMAP
70
10
28
28
44
7C
82
82
ENDCHAR
STARTCHAR Beta
ENCODING 914
SWIDTH 1000 0
DWIDTH 10 0
BBX 7 8 1 0
BITMAP
F8
44
44
7C
42
42
42
FC
ENDCHAR
STARTCHAR Gamma
ENCODING 915
SWIDTH 1000 0
DWIDTH 10 0
BBX 6 8 2 0
BITMAP
FC
44
40
40
40
40
40
F0
ENDCHAR
STARTCHAR Delta
ENCODING 916
SWIDTH 1000 0
DWIDTH 10 0
BBX 7 8 1 0
BITMAP
10
10
28
28
44
44
82
FE
ENDCHAR
STARTCHAR Epsilon
ENCODING 917
SWIDTH 1000 0
DWIDTH 10 0
BBX 7 8 1 0
BITMAP
FE
42
48
78
48
40
42
FE
ENDCHAR
STARTCHAR Zeta
ENCODING 918
SWIDTH 1000 0
DWIDTH 10 0
BBX 6 8 2 0
BITMAP
FC
84
08
10
20
44
84
FC
ENDCHAR
STARTCHAR Eta
ENCODING 919
SWIDTH 1000 0
DWIDTH 10 0
BBX 8 8 1 0
BITMAP
E7
42
42
7E
42
42
42
E7
ENDCHAR
STARTCHAR Theta
ENCODING 920
SWIDTH 1000 0
DWIDTH 10 0
BBX 8 8 1 0
BITMAP
3C
42
A5
BD
A5
81
42
3C
ENDCHAR
STARTCHAR Iota
ENCODING 921
SWIDTH 1000 0
DWIDTH 10 0
BBX 3 8 3 0
BITMAP
E0
40
40
40
40
40
40
E0
ENDCHAR
STARTCHAR Kappa
ENCODING 922
SWIDTH 1000 0
DWIDTH 10 0
BBX 7 8 1 0
BITMAP
EE
48
50
60
50
48
44
EE
ENDCHAR
STARTCHAR Lambda
ENCODING 923
SWIDTH 1000 0
DWIDTH 10 0
BBX 7 8 1 0
BITMAP
70
10
28
28
44
44
82
8E
ENDCHAR
STARTCHAR Mu
ENCODING 924
SWIDTH 1000 0
DWIDTH 10 0
BBX 9 8 0 0
BITMAP
E380
6300
5500
5500
4900
4900
4100
E380
ENDCHAR
STARTCHAR Nu
ENCODING 925
SWIDTH 1000 0
DWIDTH 10 0
BBX 8 8 1 0
BITMAP
E7
62
52
52
4A
4A
46
E6
ENDCHAR
STARTCHAR Xi
ENCODING 926
SWIDTH 1000 0
DWIDTH 10 0
BBX 8 8 1 0
BITMAP
3F
42
00
3C
00
00
42
FC
ENDCHAR
STARTCHAR Omicron
ENCODING 927
SWIDTH 1000 0
DWIDTH 10 0
BBX 7 8 1 0
BITMAP
38
44
82
82
82
82
44
38
ENDCHAR
STARTCHAR Pi
ENCODING 928
SWIDTH 1000 0
DWIDTH 10 0
BBX 7 8 1 0
BITMAP
FE
44
44
44
44
44
44
EE
ENDCHAR
STARTCHAR Rho
ENCODING 929
SWIDTH 1000 0
DWIDTH 10 0
BBX 6 8 2 0
BITMAP
F8
44
44
44
78
40
40
E0
ENDCHAR
STARTCHAR Sigma
ENCODING 931
SWIDTH 1000 0
DWIDTH 10 0
BBX 6 8 2 0
BITMAP
FC
44
20
10
20
44
84
FC
ENDCHAR
STARTCHAR Tau
ENCODING 932
SWIDTH 1000 0
DWIDTH 10 0
BBX 7 8 1 0
BITMAP
FE
92
92
10
10
10
10
38
ENDCHAR
STARTCHAR Upsilon
ENCODING 933
SWIDTH 1000 0
DWIDTH 10 0
BBX 9 8 0 0
BITMAP
6300
9480
0800
0800
0800
0800
0800
1C00
ENDCHAR
STARTCHAR Phi
ENCODING 934
SWIDTH 1000 0
DWIDTH 10 0
BBX 7 8 1 0
BITMAP
7C
10
7C
92
92
7C
10
7C
ENDCHAR
STARTCHAR Chi
ENCODING 935
SWIDTH 1000 0
DWIDTH 10 0
BBX 7 8 1 0
BITMAP
EE
44
28
10
10
28
44
EE
ENDCHAR
STARTCHAR Psi
ENCODING 936
SWIDTH 1000 0
DWIDTH 10 0
BBX 9 8 0 0
BITMAP
1C00
4900
AA80
2A00
1C00
0800
0800
1C00
ENDCHAR
STARTCHAR Omega
ENCODING 937
SWIDTH 1000 0
DWIDTH 10 0
BBX 7 8 1 0
BITMAP
38
44
82
82
82
44
AA
EE
ENDCHAR
STARTCHAR alpha
ENCODING 945
SWIDTH 1000 0
DWIDTH 10 0
BBX 8 6 1 0
BITMAP
31
4A
8C
88
98
64
ENDCHAR
STARTCHAR beta
ENCODING 946
SWIDTH 1000 0
DWIDTH 10 0
BBX 7 10 1 -2
BITMAP
1C
22
22
5C
44
42
A2
9C
80
80
ENDCHAR
STARTCHAR gamma
ENCODING 947
SWIDTH 1000 0
DWIDTH 10 0
BBX 7 7 1 -1
BITMAP
66
98
10
20
20
40
40
ENDCHAR
STARTCHAR delta
ENCODING 948
SWIDTH 1000 0
DWIDTH 10 0
BBX 7 8 1 0
BITMAP
1C
22
10
28
44
84
88
70
ENDCHAR
STARTCHAR epsilon
ENCODING 949
SWIDTH 1000 0
DWIDTH 10 0
BBX 6 6 2 0
BITMAP
38
44
70
80
84
78
ENDCHAR
STARTCHAR zeta
ENCODING 950
SWIDTH 1000 0
DWIDTH 10 0
BBX 6 10 2 -2
BITMAP
4C
90
60
40
80
80
40
20
10
E0
ENDCHAR
STARTCHAR eta
ENCODING 951
SWIDTH 1000 0
DWIDTH 10 0
BBX 7 8 1 -2
BITMAP
6C
B2
22
44
44
88
08
08
ENDCHAR
STARTCHAR theta
ENCODING 952
SWIDTH 1000 0
DWIDTH 10 0
BBX 7 8 1 0
BITMAP
1C
22
42
7E
84
84
88
70
ENDCHAR
STARTCHAR iota
ENCODING 953
SWIDTH 1000 0
DWIDTH 10 0
BBX 7 7 1 0
BITMAP
20
20
40
40
82
8C
70
ENDCHAR
STARTCHAR kappa
ENCODING 954
SWIDTH 1000 0
DWIDTH 10 0
BBX 8 6 1 0
BITMAP
23
24
48
70
92
8C
ENDCHAR
STARTCHAR lambda
ENCODING 955
SWIDTH 1000 0
DWIDTH 10 0
BBX 9 8 0 0
BITMAP
1800
0400
0400
0400
1C00
2400
4200
8180
ENDCHAR
STARTCHAR mu
ENCODING 956
SWIDTH 1000 0
DWIDTH 10 0
BBX 8 8 1 -2
BITMAP
22
22
44
44
49
B6
80
80
ENDCHAR
STARTCHAR nu
ENCODING 957
SWIDTH 1000 0
DWIDTH 10 0
BBX 8 6 1 0
BITMAP
C1
21
22
44
58
60
ENDCHAR
STARTCHAR xi
ENCODING 958
SWIDTH 1000 0
DWIDTH 10 0
BBX 7 10 1 -2
BITMAP
0E
10
3E
40
7C
80
70
08
08
70
ENDCHAR
STARTCHAR omicron
ENCODING 959
SWIDTH 1000 0
DWIDTH 10 0
BBX 6 6 2 0
BITMAP
38
44
84
84
88
70
ENDCHAR
STARTCHAR pi
ENCODING 960
SWIDTH 1000 0
DWIDTH 10 0
BBX 8 7 1 0
BITMAP
01
7E
A4
24
48
49
86
ENDCHAR
STARTCHAR rho
ENCODING 961
SWIDTH 1000 0
DWIDTH 10 0
BBX 7 8 1 -2
BITMAP
1C
22
42
42
44
B8
80
80
ENDCHAR
STARTCHAR sigma
ENCODING 963
SWIDTH 1000 0
DWIDTH 10 0
BBX 8 7 1 0
BITMAP
01
3E
44
84
84
88
70
ENDCHAR
STARTCHAR tau
ENCODING 964
SWIDTH 1000 0
DWIDTH 10 0
BBX 8 7 1 0
BITMAP
01
7E
90
10
21
22
1C
ENDCHAR
STARTCHAR upsilon
ENCODING 965
SWIDTH 1000 0
DWIDTH 10 0
BBX 7 7 1 0
BITMAP
44
42
42
84
84
88
70
ENDCHAR
STARTCHAR phi
ENCODING 966
SWIDTH 1000 0
DWIDTH 10 0
BBX 7 10 1 -2
BITMAP
08
08
3C
52
92
92
94
78
20
20
ENDCHAR
STARTCHAR chi
ENCODING 967
SWIDTH 1000 0
DWIDTH 10 0
BBX 9 8 0 -2
BITMAP
3080
0900
0A00
0C00
1800
2800
4400
8300
ENDCHAR
STARTCHAR psi
ENCODING 968
SWIDTH 1000 0
DWIDTH 10 0
BBX 9 10 0 -2
BITMAP
0400
0400
C480
2880
2900
4900
4A00
3C00
1000
1000
ENDCHAR
STARTCHAR omega
ENCODING 969
SWIDTH 1000 0
DWIDTH 10 0
BBX 9 6 0 0
BITMAP
2100
4880
4880
8880
9480
6300
ENDCHAR
STARTCHAR afii10023
ENCODING 1025
SWIDTH 1000 0
DWIDTH 10 0
BBX 7 9 1 0
BITMAP
66
00
FC
42
48
78
48
42
FE
ENDCHAR
STARTCHAR afii10017
ENCODING 1040
SWIDTH 1000 0
DWIDTH 10 0
BBX 7 8 1 0
BITMAP
70
10
28
28
44
7C
82
82
ENDCHAR
STARTCHAR afii10018
ENCODING 1041
SWIDTH 1000 0
DWIDTH 10 0
BBX 7 8 1 0
BITMAP
FC
42
40
7C
42
42
42
FC
ENDCHAR
STARTCHAR afii10019
ENCODING 1042
SWIDTH 1000 0
DWIDTH 10 0
BBX 7 8 1 0
BITMAP
F8
44
44
7C
42
42
42
FC
ENDCHAR
STARTCHAR afii10020
ENCODING 1043
SWIDTH 1000 0
DWIDTH 10 0
BBX 7 8 2 0
BITMAP
FC
44
42
40
40
40
40
F0
ENDCHAR
STARTCHAR afii10021
ENCODING 1044
SWIDTH 1000 0
DWIDTH 10 0
BBX 9 9 0 -1
BITMAP
3F00
1200
1200
1200
1200
2200
2200
7F00
8080
ENDCHAR
STARTCHAR afii10022
ENCODING 1045
SWIDTH 1000 0
DWIDTH 10 0
BBX 7 8 1 0
BITMAP
FC
42
48
78
48
40
42
FE
ENDCHAR
STARTCHAR afii10024
ENCODING 1046
SWIDTH 1000 0
DWIDTH 10 0
BBX 9 8 0 0
BITMAP
1C00
4900
AA80
2A00
1C00
2A00
4900
DD80
ENDCHAR
STARTCHAR afii10025
ENCODING 1047
SWIDTH 1000 0
DWIDTH 10 0
BBX 7 8 1 0
BITMAP
3C
C2
82
1C
04
82
C2
3C
ENDCHAR
STARTCHAR afii10026
ENCODING 1048
SWIDTH 1000 0
DWIDTH 10 0
BBX 8 8 1 0
BITMAP
E7
42
46
4A
52
62
42
E7
ENDCHAR
STARTCHAR afii10027
ENCODING 1049
SWIDTH 1000 0
DWIDTH 10 0
BBX 8 9 1 0
BITMAP
24
18
E7
42
46
5A
62
42
E7
ENDCHAR
STARTCHAR afii10028
ENCODING 1050
SWIDTH 1000 0
DWIDTH 10 0
BBX 8 8 1 0
BITMAP
E2
45
48
70
48
44
42
E7
ENDCHAR
STARTCHAR afii10029
ENCODING 1051
SWIDTH 1000 0
DWIDTH 10 0
BBX 9 8 0 0
BITMAP
3F80
0900
0900
0900
0900
8900
9100
6380
ENDCHAR
STARTCHAR afii10030
ENCODING 1052
SWIDTH 1000 0
DWIDTH 10 0
BBX 9 8 0 0
BITMAP
6300
2200
2200
3600
5500
4900
4900
E380
ENDCHAR
STARTCHAR afii10031
ENCODING 1053
SWIDTH 1000 0
DWIDTH 10 0
BBX 8 8 1 0
BITMAP
E7
42
42
7E
42
42
42
E7
ENDCHAR
STARTCHAR afii10032
ENCODING 1054
SWIDTH 1000 0
DWIDTH 10 0
BBX 7 8 1 0
BITMAP
38
44
82
82
82
82
44
38
ENDCHAR
STARTCHAR afii10033
ENCODING 1055
SWIDTH 1000 0
DWIDTH 10 0
BBX 8 8 1 0
BITMAP
FF
42
42
42
42
42
42
E7
ENDCHAR
STARTCHAR afii10034
ENCODING 1056
SWIDTH 1000 0
DWIDTH 10 0
BBX 7 8 1 0
BITMAP
FC
42
42
42
7C
40
40
E0
ENDCHAR
STARTCHAR afii10035
ENCODING 1057
SWIDTH 1000 0
DWIDTH 10 0
BBX 7 8 1 0
BITMAP
3A
46
82
80
80
80
42
3C
ENDCHAR
STARTCHAR afii10036
ENCODING 1058
SWIDTH 1000 0
DWIDTH 10 0
BBX 9 8 0 0
BITMAP
7F00
4900
8880
0800
0800
0800
0800
1C00
ENDCHAR
STARTCHAR afii10037
ENCODING 1059
SWIDTH 1000 0
DWIDTH 10 0
BBX 8 9 1 -1
BITMAP
E7
42
22
24
14
14
48
48
30
ENDCHAR
STARTCHAR afii10038
ENCODING 1060
SWIDTH 1000 0
DWIDTH 10 0
BBX 9 8 0 0
BITMAP
3E00
0800
7F00
8880
8880
7F00
0800
3E00
ENDCHAR
STARTCHAR afii10039
ENCODING 1061
SWIDTH 1000 0
DWIDTH 10 0
BBX 8 8 1 0
BITMAP
E7
42
24
18
24
42
42
E7
ENDCHAR
STARTCHAR afii10040
ENCODING 1062
SWIDTH 1000 0
DWIDTH 10 0
BBX 9 9 0 -1
BITMAP
E700
4200
4200
4200
4200
4200
4200
FF00
0080
ENDCHAR
STARTCHAR afii10041
ENCODING 1063
SWIDTH 1000 0
DWIDTH 10 0
BBX 8 8 1 0
BITMAP
E7
42
42
42
46
3A
02
07
ENDCHAR
STARTCHAR afii10042
ENCODING 1064
SWIDTH 1000 0
DWIDTH 10 0
BBX 9 8 0 0
BITMAP
DB80
4900
4900
4900
4900
4900
4900
FF80
ENDCHAR
STARTCHAR afii10043
ENCODING 1065
SWIDTH 1000 0
DWIDTH 10 0
BBX 10 9 0 -1
BITMAP
DB80
4900
4900
4900
4900
4900
4900
FF80
0040
ENDCHAR
STARTCHAR afii10044
ENCODING 1066
SWIDTH 1000 0
DWIDTH 10 0
BBX 9 8 0 0
BITMAP
7C00
5000
9000
1F00
1080
1080
1080
3F00
ENDCHAR
STARTCHAR afii10045
ENCODING 1067
SWIDTH 1000 0
DWIDTH 10 0
BBX 9 8 0 0
BITMAP
E380
4100
4100
7900
4500
4500
4500
FB80
ENDCHAR
STARTCHAR afii10046
ENCODING 1068
SWIDTH 1000 0
DWIDTH 10 0
BBX 7 8 1 0
BITMAP
F0
40
40
7C
42
42
42
FC
ENDCHAR
STARTCHAR afii10047
ENCODING 1069
SWIDTH 1000 0
DWIDTH 10 0
BBX 7 8 1 0
BITMAP
B8
C4
82
32
4E
02
84
78
ENDCHAR
STARTCHAR afii10048
ENCODING 1070
SWIDTH 1000 0
DWIDTH 10 0
BBX 9 8 0 0
BITMAP
E700
4880
4880
7880
4880
4880
4880
E700
ENDCHAR
STARTCHAR afii10049
ENCODING 1071
SWIDTH 1000 0
DWIDTH 10 0
BBX 7 8 1 0
BITMAP
7E
84
84
84
7C
14
24
CE
ENDCHAR
STARTCHAR afii10065
ENCODING 1072
SWIDTH 1000 0
DWIDTH 10 0
BBX 7 6 1 0
BITMAP
78
04
7C
84
8C
72
ENDCHAR
STARTCHAR afii10066
ENCODING 1073
SWIDTH 1000 0
DWIDTH 10 0
BBX 6 9 2 0
BITMAP
04
38
40
B8
C4
84
84
84
78
ENDCHAR
STARTCHAR afii10067
ENCODING 1074
SWIDTH 1000 0
DWIDTH 10 0
BBX 7 6 1 0
BITMAP
FC
42
7C
42
42
FC
ENDCHAR
STARTCHAR afii10068
ENCODING 1075
SWIDTH 1000 0
DWIDTH 10 0
BBX 7 6 1 0
BITMAP
FC
44
42
40
40
E0
ENDCHAR
STARTCHAR afii10069
ENCODING 1076
SWIDTH 1000 0
DWIDTH 10 0
BBX 9 7 0 -1
BITMAP
3F00
1200
1200
1200
2200
7F00
8080
ENDCHAR
STARTCHAR afii10070
ENCODING 1077
SWIDTH 1000 0
DWIDTH 10 0
BBX 6 6 2 0
BITMAP
78
84
FC
80
84
78
ENDCHAR
STARTCHAR afii10072
ENCODING 1078
SWIDTH 1000 0
DWIDTH 10 0
BBX 9 6 0 0
BITMAP
4900
AA80
1C00
2A00
2A00
C980
ENDCHAR
STARTCHAR afii10073
ENCODING 1079
SWIDTH 1000 0
DWIDTH 10 0
BBX 7 6 1 0
BITMAP
7C
82
1C
02
82
7C
ENDCHAR
STARTCHAR afii10074
ENCODING 1080
SWIDTH 1000 0
DWIDTH 10 0
BBX 8 6 1 0
BITMAP
E3
46
4A
52
62
C7
ENDCHAR
STARTCHAR afii10075
ENCODING 1081
SWIDTH 1000 0
DWIDTH 10 0
BBX 8 9 1 0
BITMAP
24
18
00
C3
46
4A
52
62
C7
ENDCHAR
STARTCHAR afii10076
ENCODING 1082
SWIDTH 1000 0
DWIDTH 10 0
BBX 8 6 1 0
BITMAP
E6
49
70
4C
42
E7
ENDCHAR
STARTCHAR afii10077
ENCODING 1083
SWIDTH 1000 0
DWIDTH 10 0
BBX 9 6 0 0
BITMAP
3F80
1100
1100
9100
9100
6380
ENDCHAR
STARTCHAR afii10078
ENCODING 1084
SWIDTH 1000 0
DWIDTH 10 0
BBX 8 6 1 0
BITMAP
C3
42
66
5A
42
E7
ENDCHAR
STARTCHAR afii10079
ENCODING 1085
SWIDTH 1000 0
DWIDTH 10 0
BBX 8 6 1 0
BITMAP
E7
42
7E
42
42
E7
ENDCHAR
STARTCHAR afii10080
ENCODING 1086
SWIDTH 1000 0
DWIDTH 10 0
BBX 6 6 2 0
BITMAP
78
84
84
84
84
78
ENDCHAR
STARTCHAR afii10081
ENCODING 1087
SWIDTH 1000 0
DWIDTH 10 0
BBX 8 6 1 0
BITMAP
FF
42
42
42
42
E7
ENDCHAR
STARTCHAR afii10082
ENCODING 1088
SWIDTH 1000 0
DWIDTH 10 0
BBX 7 8 1 -2
BITMAP
DC
62
42
42
62
5C
40
E0
ENDCHAR
STARTCHAR afii10083
ENCODING 1089
SWIDTH 1000 0
DWIDTH 10 0
BBX 6 6 2 0
BITMAP
78
84
80
80
84
78
ENDCHAR
STARTCHAR afii10084
ENCODING 1090
SWIDTH 1000 0
DWIDTH 10 0
BBX 9 6 0 0
BITMAP
7F00
4900
8880
0800
0800
3E00
ENDCHAR
STARTCHAR afii10085
ENCODING 1091
SWIDTH 1000 0
DWIDTH 10 0
BBX 7 8 1 -2
BITMAP
EE
44
44
28
28
90
90
60
ENDCHAR
STARTCHAR afii10086
ENCODING 1092
SWIDTH 1000 0
DWIDTH 10 0
BBX 9 10 0 -2
BITMAP
1800
0800
6B00
9C80
8880
8880
9C80
6B00
0800
1C00
ENDCHAR
STARTCHAR afii10087
ENCODING 1093
SWIDTH 1000 0
DWIDTH 10 0
BBX 8 6 1 0
BITMAP
E7
24
18
24
42
E7
ENDCHAR
STARTCHAR afii10088
ENCODING 1094
SWIDTH 1000 0
DWIDTH 10 0
BBX 9 7 0 -1
BITMAP
E700
4200
4200
4200
4200
FF00
0080
ENDCHAR
STARTCHAR afii10089
ENCODING 1095
SWIDTH 1000 0
DWIDTH 10 0
BBX 8 6 1 0
BITMAP
E7
42
42
46
3A
03
ENDCHAR
STARTCHAR afii10090
ENCODING 1096
SWIDTH 1000 0
DWIDTH 10 0
BBX 9 6 0 0
BITMAP
DB80
4900
4900
4900
4900
FF80
ENDCHAR
STARTCHAR afii10091
ENCODING 1097
SWIDTH 1000 0
DWIDTH 10 0
BBX 10 7 0 -1
BITMAP
DB80
4900
4900
4900
4900
FF80
0040
ENDCHAR
STARTCHAR afii10092
ENCODING 1098
SWIDTH 1000 0
DWIDTH 10 0
BBX 9 6 0 0
BITMAP
7C00
5000
9F00
1080
1080
3F00
ENDCHAR
STARTCHAR afii10093
ENCODING 1099
SWIDTH 1000 0
DWIDTH 10 0
BBX 9 6 0 0
BITMAP
E380
4100
7900
4500
4500
FB80
ENDCHAR
STARTCHAR afii10094
ENCODING 1100
SWIDTH 1000 0
DWIDTH 10 0
BBX 7 6 1 0
BITMAP
F0
40
7C
42
42
FC
ENDCHAR
STARTCHAR afii10095
ENCODING 1101
SWIDTH 1000 0
DWIDTH 10 0
BBX 6 6 2 0
BITMAP
78
84
34
4C
84
78
ENDCHAR
STARTCHAR afii10096
ENCODING 1102
SWIDTH 1000 0
DWIDTH 10 0
BBX 9 6 0 0
BITMAP
E700
4880
7880
4880
4880
E700
ENDCHAR
STARTCHAR afii10097
ENCODING 1103
SWIDTH 1000 0
DWIDTH 10 0
BBX 8 6 1 0
BITMAP
7F
82
82
7E
22
C7
ENDCHAR
STARTCHAR afii10071
ENCODING 1105
SWIDTH 1000 0
DWIDTH 10 0
BBX 6 9 2 0
BITMAP
CC
00
00
78
84
FC
80
84
78
ENDCHAR
STARTCHAR uni2003
ENCODING 8195
SWIDTH 1000 0
DWIDTH 10 0
BBX 1 1 9 -2
BITMAP
00
ENDCHAR
STARTCHAR uni2010
ENCODING 8208
SWIDTH 1000 0
DWIDTH 10 0
BBX 3 1 3 3
BITMAP
E0
ENDCHAR
STARTCHAR afii00208
ENCODING 8213
SWIDTH 1000 0
DWIDTH 10 0
BBX 10 1 0 3
BITMAP
FFC0
ENDCHAR
STARTCHAR uni2016
ENCODING 8214
SWIDTH 915 0
DWIDTH 10 0
BBX 3 11 3 -2
BITMAP
A0
A0
A0
A0
A0
A0
A0
A0
A0
A0
A0
ENDCHAR
STARTCHAR quoteleft
ENCODING 8216
SWIDTH 1000 0
DWIDTH 10 0
BBX 3 2 4 7
BITMAP
C0
60
ENDCHAR
STARTCHAR quoteright
ENCODING 8217
SWIDTH 1000 0
DWIDTH 10 0
BBX 3 2 2 7
BITMAP
60
C0
ENDCHAR
STARTCHAR quotedblleft
ENCODING 8220
SWIDTH 1000 0
DWIDTH 10 0
BBX 6 2 2 7
BITMAP
D8
6C
ENDCHAR
STARTCHAR quotedblright
ENCODING 8221
SWIDTH 1000 0
DWIDTH 10 0
BBX 6 2 1 7
BITMAP
6C
D8
ENDCHAR
STARTCHAR dagger
ENCODING 8224
SWIDTH 1000 0
DWIDTH 10 0
BBX 5 10 2 -1
BITMAP
20
20
F8
20
20
70
70
20
20
20
ENDCHAR
STARTCHAR daggerdbl
ENCODING 8225
SWIDTH 1000 0
DWIDTH 10 0
BBX 5 10 2 -1
BITMAP
20
20
F8
20
70
70
20
F8
20
20
ENDCHAR
STARTCHAR twodotenleader
ENCODING 8229
SWIDTH 1000 0
DWIDTH 10 0
BBX 7 2 1 2
BITMAP
C6
C6
ENDCHAR
STARTCHAR ellipsis
ENCODING 8230
SWIDTH 1000 0
DWIDTH 10 0
BBX 8 2 0 2
BITMAP
DB
DB
ENDCHAR
STARTCHAR perthousand
ENCODING 8240
SWIDTH 1000 0
DWIDTH 10 0
BBX 9 8 0 0
BITMAP
6100
9200
9400
6800
1B00
2480
6480
9B00
ENDCHAR
STARTCHAR minute
ENCODING 8242
SWIDTH 1000 0
DWIDTH 10 0
BBX 2 2 3 7
BITMAP
40
80
ENDCHAR
STARTCHAR second
ENCODING 8243
SWIDTH 1000 0
DWIDTH 10 0
BBX 5 2 2 7
BITMAP
48
90
ENDCHAR
STARTCHAR uni203B
ENCODING 8251
SWIDTH 1000 0
DWIDTH 10 0
BBX 9 9 0 -1
BITMAP
0800
4100
2200
1400
8880
1400
2200
4100
0800
ENDCHAR
STARTCHAR uni203E
ENCODING 8254
SWIDTH 500 0
DWIDTH 5 0
BBX 4 1 0 6
BITMAP
F0
ENDCHAR
STARTCHAR uni2103
ENCODING 8451
SWIDTH 1000 0
DWIDTH 10 0
BBX 9 9 0 0
BITMAP
6000
9000
9700
6880
1000
1000
1000
0880
0700
ENDCHAR
STARTCHAR afii61352
ENCODING 8470
SWIDTH 1000 0
DWIDTH 10 0
BBX 9 8 0 0
BITMAP
8800
C900
AA80
9A80
8A80
8900
8800
8B80
ENDCHAR
STARTCHAR uni2121
ENCODING 8481
SWIDTH 1000 0
DWIDTH 10 0
BBX 9 8 0 0
BITMAP
F900
4100
5D00
5100
5D00
5100
5100
5D80
ENDCHAR
STARTCHAR uni212B
ENCODING 8491
SWIDTH 1000 0
DWIDTH 10 0
BBX 5 9 2 0
BITMAP
30
48
48
30
20
50
70
88
88
ENDCHAR
STARTCHAR uni2160
ENCODING 8544
SWIDTH 1000 0
DWIDTH 10 0
BBX 3 8 3 0
BITMAP
E0
40
40
40
40
40
40
E0
ENDCHAR
STARTCHAR uni2161
ENCODING 8545
SWIDTH 1000 0
DWIDTH 10 0
BBX 5 8 2 0
BITMAP
F8
50
50
50
50
50
50
F8
ENDCHAR
STARTCHAR uni2162
ENCODING 8546
SWIDTH 1000 0
DWIDTH 10 0
BBX 7 8 1 0
BITMAP
FE
54
54
54
54
54
54
FE
ENDCHAR
STARTCHAR uni2163
ENCODING 8547
SWIDTH 1000 0
DWIDTH 10 0
BBX 7 8 1 0
BITMAP
F6
54
54
54
54
48
48
E8
ENDCHAR
STARTCHAR uni2164
ENCODING 8548
SWIDTH 1000 0
DWIDTH 10 0
BBX 7 8 1 0
BITMAP
EE
44
44
28
28
28
10
10
ENDCHAR
STARTCHAR uni2165
ENCODING 8549
SWIDTH 1000 0
DWIDTH 10 0
BBX 7 8 1 0
BITMAP
DE
54
54
54
54
24
24
2E
ENDCHAR
STARTCHAR uni2166
ENCODING 8550
SWIDTH 1171 0
DWIDTH 10 0
BBX 9 8 0 0
BITMAP
DF80
5500
5500
5500
5500
2500
2500
2F80
ENDCHAR
STARTCHAR uni2167
ENCODING 8551
SWIDTH 1265 0
DWIDTH 10 0
BBX 9 8 0 0
BITMAP
DF80
4A80
4A80
5A80
5A80
2A80
2A80
2F80
ENDCHAR
STARTCHAR uni2168
ENCODING 8552
SWIDTH 1062 0
DWIDTH 10 0
BBX 7 8 1 0
BITMAP
F6
54
54
48
48
54
54
F6
ENDCHAR
STARTCHAR uni2169
ENCODING 8553
SWIDTH 1000 0
DWIDTH 10 0
BBX 7 8 1 0
BITMAP
EE
44
28
10
10
28
44
EE
ENDCHAR
STARTCHAR arrowleft
ENCODING 8592
SWIDTH 1000 0
DWIDTH 10 0
BBX 9 7 0 0
BITMAP
1000
2000
4000
FF80
4000
2000
1000
ENDCHAR
STARTCHAR arrowup
ENCODING 8593
SWIDTH 1000 0
DWIDTH 10 0
BBX 7 9 1 -1
BITMAP
10
38
54
92
10
10
10
10
10
ENDCHAR
STARTCHAR arrowright
ENCODING 8594
SWIDTH 1000 0
DWIDTH 10 0
BBX 9 7 0 0
BITMAP
0400
0200
0100
FF80
0100
0200
0400
ENDCHAR
STARTCHAR arrowdown
ENCODING 8595
SWIDTH 1000 0
DWIDTH 10 0
BBX 7 9 1 -1
BITMAP
10
10
10
10
10
92
54
38
10
ENDCHAR
STARTCHAR arrowdblright
ENCODING 8658
SWIDTH 1000 0
DWIDTH 10 0
BBX 9 7 0 0
BITMAP
0400
0200
FF00
0080
FF00
0200
0400
ENDCHAR
STARTCHAR arrowdblboth
ENCODING 8660
SWIDTH 1000 0
DWIDTH 10 0
BBX 9 7 0 0
BITMAP
1400
2200
7F00
8080
7F00
2200
1400
ENDCHAR
STARTCHAR universal
ENCODING 8704
SWIDTH 1000 0
DWIDTH 10 0
BBX 7 8 1 0
BITMAP
82
82
7C
44
28
28
10
10
ENDCHAR
STARTCHAR partialdiff
ENCODING 8706
SWIDTH 1000 0
DWIDTH 10 0
BBX 5 9 2 -1
BITMAP
30
48
08
38
48
88
88
90
60
ENDCHAR
STARTCHAR existential
ENCODING 8707
SWIDTH 1000 0
DWIDTH 10 0
BBX 7 8 1 0
BITMAP
FE
02
02
FE
02
02
02
FE
ENDCHAR
STARTCHAR gradient
ENCODING 8711
SWIDTH 1000 0
DWIDTH 10 0
BBX 9 8 0 0
BITMAP
FF80
FF80
6100
2200
3200
1400
1C00
0800
ENDCHAR
STARTCHAR element
ENCODING 8712
SWIDTH 1000 0
DWIDTH 10 0
BBX 8 7 1 0
BITMAP
3F
40
80
FF
80
40
3F
ENDCHAR
STARTCHAR suchthat
ENCODING 8715
SWIDTH 1000 0
DWIDTH 10 0
BBX 8 7 1 0
BITMAP
FC
02
01
FF
01
02
FC
ENDCHAR
STARTCHAR minus
ENCODING 8722
SWIDTH 500 0
DWIDTH 10 0
BBX 7 1 1 3
BITMAP
FE
ENDCHAR
STARTCHAR radical
ENCODING 8730
SWIDTH 1000 0
DWIDTH 10 0
BBX 9 9 0 -1
BITMAP
0780
0400
0400
4800
4800
A800
A800
1000
1000
ENDCHAR
STARTCHAR proportional
ENCODING 8733
SWIDTH 1000 0
DWIDTH 10 0
BBX 9 5 0 1
BITMAP
6300
9480
8800
9480
6300
ENDCHAR
STARTCHAR infinity
ENCODING 8734
SWIDTH 1000 0
DWIDTH 10 0
BBX 9 5 0 1
BITMAP
6300
9480
8880
9480
6300
ENDCHAR
STARTCHAR orthogonal
ENCODING 8735
SWIDTH 1000 0
DWIDTH 10 0
BBX 8 8 1 0
BITMAP
80
80
80
80
80
80
80
FF
ENDCHAR
STARTCHAR angle
ENCODING 8736
SWIDTH 1000 0
DWIDTH 10 0
BBX 9 8 0 0
BITMAP
0100
0200
0400
0800
1000
2000
4000
FF80
ENDCHAR
STARTCHAR logicaland
ENCODING 8743
SWIDTH 1000 0
DWIDTH 10 0
BBX 7 8 1 0
BITMAP
10
10
28
28
44
44
82
82
ENDCHAR
STARTCHAR logicalor
ENCODING 8744
SWIDTH 1000 0
DWIDTH 10 0
BBX 7 8 1 0
BITMAP
82
82
44
44
28
28
10
10
ENDCHAR
STARTCHAR intersection
ENCODING 8745
SWIDTH 1000 0
DWIDTH 10 0
BBX 7 8 1 0
BITMAP
38
44
82
82
82
82
82
82
ENDCHAR
STARTCHAR union
ENCODING 8746
SWIDTH 1000 0
DWIDTH 10 0
BBX 7 8 1 0
BITMAP
82
82
82
82
82
82
44
38
ENDCHAR
STARTCHAR integral
ENCODING 8747
SWIDTH 1000 0
DWIDTH 10 0
BBX 3 9 3 -1
BITMAP
60
A0
80
80
40
20
20
A0
C0
ENDCHAR
STARTCHAR uni222C
ENCODING 8748
SWIDTH 1000 0
DWIDTH 10 0
BBX 7 9 1 -1
BITMAP
66
AA
88
88
44
22
22
AA
CC
ENDCHAR
STARTCHAR uni222E
ENCODING 8750
SWIDTH 1000 0
DWIDTH 10 0
BBX 5 9 2 -1
BITMAP
30
40
70
A8
A8
A8
70
10
60
ENDCHAR
STARTCHAR therefore
ENCODING 8756
SWIDTH 1000 0
DWIDTH 10 0
BBX 7 7 1 0
BITMAP
10
38
10
00
44
EE
44
ENDCHAR
STARTCHAR uni2235
ENCODING 8757
SWIDTH 1000 0
DWIDTH 10 0
BBX 7 7 1 0
BITMAP
44
EE
44
00
10
38
10
ENDCHAR
STARTCHAR uni223D
ENCODING 8765
SWIDTH 1000 0
DWIDTH 10 0
BBX 9 5 0 1
BITMAP
6300
8480
8880
9080
6300
ENDCHAR
STARTCHAR uni2252
ENCODING 8786
SWIDTH 1000 0
DWIDTH 10 0
BBX 7 9 1 -1
BITMAP
40
E0
40
FE
00
FE
04
0E
04
ENDCHAR
STARTCHAR notequal
ENCODING 8800
SWIDTH 1000 0
DWIDTH 10 0
BBX 7 7 1 0
BITMAP
02
04
FE
10
FE
40
80
ENDCHAR
STARTCHAR equivalence
ENCODING 8801
SWIDTH 1000 0
DWIDTH 10 0
BBX 7 5 1 1
BITMAP
FE
00
FE
00
FE
ENDCHAR
STARTCHAR uni2266
ENCODING 8806
SWIDTH 1000 0
DWIDTH 10 0
BBX 9 9 0 -1
BITMAP
0380
1C00
E000
1C00
0380
0000
FF80
0000
FF80
ENDCHAR
STARTCHAR uni2267
ENCODING 8807
SWIDTH 1000 0
DWIDTH 10 0
BBX 9 9 0 -1
BITMAP
E000
1C00
0380
1C00
E000
0000
FF80
0000
FF80
ENDCHAR
STARTCHAR uni226A
ENCODING 8810
SWIDTH 1000 0
DWIDTH 10 0
BBX 9 9 0 -1
BITMAP
0880
1100
2200
4400
8800
4400
2200
1100
0880
ENDCHAR
STARTCHAR uni226B
ENCODING 8811
SWIDTH 1000 0
DWIDTH 10 0
BBX 9 9 0 -1
BITMAP
8800
4400
2200
1100
0880
1100
2200
4400
8800
ENDCHAR
STARTCHAR propersubset
ENCODING 8834
SWIDTH 1000 0
DWIDTH 10 0
BBX 8 7 1 0
BITMAP
3F
40
80
80
80
40
3F
ENDCHAR
STARTCHAR propersuperset
ENCODING 8835
SWIDTH 1000 0
DWIDTH 10 0
BBX 8 7 1 0
BITMAP
FC
02
01
01
01
02
FC
ENDCHAR
STARTCHAR reflexsubset
ENCODING 8838
SWIDTH 1000 0
DWIDTH 10 0
BBX 8 9 1 -1
BITMAP
3F
40
80
80
40
3F
00
00
FF
ENDCHAR
STARTCHAR reflexsuperset
ENCODING 8839
SWIDTH 1000 0
DWIDTH 10 0
BBX 8 9 1 -1
BITMAP
FC
02
01
01
02
FC
00
00
FF
ENDCHAR
STARTCHAR perpendicular
ENCODING 8869
SWIDTH 1000 0
DWIDTH 10 0
BBX 9 8 0 0
BITMAP
0800
0800
0800
0800
0800
0800
0800
FF80
ENDCHAR
STARTCHAR uni22BF
ENCODING 8895
SWIDTH 1000 0
DWIDTH 10 0
BBX 8 8 0 0
BITMAP
01
03
05
09
11
21
41
FF
ENDCHAR
STARTCHAR uni2312
ENCODING 8978
SWIDTH 1000 0
DWIDTH 10 0
BBX 9 3 0 5
BITMAP
1C00
6300
8080
ENDCHAR
STARTCHAR uni2460
ENCODING 9312
SWIDTH 1000 0
DWIDTH 10 0
BBX 9 9 0 -1
BITMAP
3E00
4100
9880
8880
8880
8880
8880
4100
3E00
ENDCHAR
STARTCHAR uni2461
ENCODING 9313
SWIDTH 1000 0
DWIDTH 10 0
BBX 9 9 0 -1
BITMAP
3E00
4100
9C80
8480
9C80
9080
9C80
4100
3E00
ENDCHAR
STARTCHAR uni2462
ENCODING 9314
SWIDTH 1000 0
DWIDTH 10 0
BBX 9 9 0 -1
BITMAP
3E00
4100
9C80
8480
9C80
8480
9C80
4100
3E00
ENDCHAR
STARTCHAR uni2463
ENCODING 9315
SWIDTH 1000 0
DWIDTH 10 0
BBX 9 9 0 -1
BITMAP
3E00
4100
9480
9480
9480
9C80
8480
4100
3E00
ENDCHAR
STARTCHAR uni2464
ENCODING 9316
SWIDTH 1000 0
DWIDTH 10 0
BBX 9 9 0 -1
BITMAP
3E00
4100
9C80
9080
9C80
8480
9C80
4100
3E00
ENDCHAR
STARTCHAR uni2465
ENCODING 9317
SWIDTH 1000 0
DWIDTH 10 0
BBX 9 9 0 -1
BITMAP
3E00
4100
9C80
9080
9C80
9480
9C80
4100
3E00
ENDCHAR
STARTCHAR uni2466
ENCODING 9318
SWIDTH 1000 0
DWIDTH 10 0
BBX 9 9 0 -1
BITMAP
3E00
4100
9C80
8480
8480
8880
8880
4100
3E00
ENDCHAR
STARTCHAR uni2467
ENCODING 9319
SWIDTH 1000 0
DWIDTH 10 0
BBX 9 9 0 -1
BITMAP
3E00
4100
9C80
9480
9C80
9480
9C80
4100
3E00
ENDCHAR
STARTCHAR uni2468
ENCODING 9320
SWIDTH 1000 0
DWIDTH 10 0
BBX 9 9 0 -1
BITMAP
3E00
4100
9C80
9480
9C80
8480
9C80
4100
3E00
ENDCHAR
STARTCHAR uni2469
ENCODING 9321
SWIDTH 1000 0
DWIDTH 10 0
BBX 9 9 0 -1
BITMAP
3E00
4100
AE80
AA80
AA80
AA80
AE80
4100
3E00
ENDCHAR
STARTCHAR uni246A
ENCODING 9322
SWIDTH 1000 0
DWIDTH 10 0
BBX 9 9 0 -1
BITMAP
3E00
4100
B680
9280
9280
9280
9280
4100
3E00
ENDCHAR
STARTCHAR uni246B
ENCODING 9323
SWIDTH 1000 0
DWIDTH 10 0
BBX 9 9 0 -1
BITMAP
3E00
4100
AE80
A280
AE80
A880
AE80
4100
3E00
ENDCHAR
STARTCHAR uni246C
ENCODING 9324
SWIDTH 1000 0
DWIDTH 10 0
BBX 9 9 0 -1
BITMAP
3E00
4100
AE80
A280
AE80
A280
AE80
4100
3E00
ENDCHAR
STARTCHAR uni246D
ENCODING 9325
SWIDTH 1000 0
DWIDTH 10 0
BBX 9 9 0 -1
BITMAP
3E00
4100
AA80
AA80
AA80
AE80
A280
4100
3E00
ENDCHAR
STARTCHAR uni246E
ENCODING 9326
SWIDTH 1000 0
DWIDTH 10 0
BBX 9 9 0 -1
BITMAP
3E00
4100
AE80
A880
AE80
A280
AE80
4100
3E00
ENDCHAR
STARTCHAR uni246F
ENCODING 9327
SWIDTH 1000 0
DWIDTH 10 0
BBX 9 9 0 -1
BITMAP
3E00
4100
AE80
A880
AE80
AA80
AE80
4100
3E00
ENDCHAR
STARTCHAR uni2470
ENCODING 9328
SWIDTH 1000 0
DWIDTH 10 0
BBX 9 9 0 -1
BITMAP
3E00
4100
AE80
A280
A280
A480
A480
4100
3E00
ENDCHAR
STARTCHAR uni2471
ENCODING 9329
SWIDTH 1000 0
DWIDTH 10 0
BBX 9 9 0 -1
BITMAP
3E00
4100
AE80
AA80
AE80
AA80
AE80
4100
3E00
ENDCHAR
STARTCHAR uni2472
ENCODING 9330
SWIDTH 1000 0
DWIDTH 10 0
BBX 9 9 0 -1
BITMAP
3E00
4100
AE80
AA80
AE80
A280
AE80
4100
3E00
ENDCHAR
STARTCHAR uni2473
ENCODING 9331
SWIDTH 1000 0
DWIDTH 10 0
BBX 9 9 0 -1
BITMAP
3E00
4100
BB80
8A80
BA80
A280
BB80
4100
3E00
ENDCHAR
STARTCHAR SF100000
ENCODING 9472
SWIDTH 1000 0
DWIDTH 10 0
BBX 10 1 0 3
BITMAP
FFC0
ENDCHAR
STARTCHAR uni2501
ENCODING 9473
SWIDTH 1000 0
DWIDTH 10 0
BBX 10 2 0 2
BITMAP
FFC0
FFC0
ENDCHAR
STARTCHAR SF110000
ENCODING 9474
SWIDTH 1000 0
DWIDTH 10 0
BBX 1 11 4 -2
BITMAP
80
80
80
80
80
80
80
80
80
80
80
ENDCHAR
STARTCHAR uni2503
ENCODING 9475
SWIDTH 1000 0
DWIDTH 10 0
BBX 2 11 4 -2
BITMAP
C0
C0
C0
C0
C0
C0
C0
C0
C0
C0
C0
ENDCHAR
STARTCHAR SF010000
ENCODING 9484
SWIDTH 1000 0
DWIDTH 10 0
BBX 6 6 4 -2
BITMAP
FC
80
80
80
80
80
ENDCHAR
STARTCHAR uni250F
ENCODING 9487
SWIDTH 1000 0
DWIDTH 10 0
BBX 6 6 4 -2
BITMAP
FC
FC
C0
C0
C0
C0
ENDCHAR
STARTCHAR SF030000
ENCODING 9488
SWIDTH 1000 0
DWIDTH 10 0
BBX 5 6 0 -2
BITMAP
F8
08
08
08
08
08
ENDCHAR
STARTCHAR uni2513
ENCODING 9491
SWIDTH 1000 0
DWIDTH 10 0
BBX 6 6 0 -2
BITMAP
FC
FC
0C
0C
0C
0C
ENDCHAR
STARTCHAR SF020000
ENCODING 9492
SWIDTH 1000 0
DWIDTH 10 0
BBX 6 6 4 3
BITMAP
80
80
80
80
80
FC
ENDCHAR
STARTCHAR uni2517
ENCODING 9495
SWIDTH 1000 0
DWIDTH 10 0
BBX 6 7 4 2
BITMAP
C0
C0
C0
C0
C0
FC
FC
ENDCHAR
STARTCHAR SF040000
ENCODING 9496
SWIDTH 1000 0
DWIDTH 10 0
BBX 5 6 0 3
BITMAP
08
08
08
08
08
F8
ENDCHAR
STARTCHAR uni251B
ENCODING 9499
SWIDTH 1000 0
DWIDTH 10 0
BBX 6 7 0 2
BITMAP
0C
0C
0C
0C
0C
FC
FC
ENDCHAR
STARTCHAR SF080000
ENCODING 9500
SWIDTH 1000 0
DWIDTH 10 0
BBX 6 11 4 -2
BITMAP
80
80
80
80
80
FC
80
80
80
80
80
ENDCHAR
STARTCHAR uni251D
ENCODING 9501
SWIDTH 1000 0
DWIDTH 10 0
BBX 6 11 4 -2
BITMAP
80
80
80
80
80
FC
FC
80
80
80
80
ENDCHAR
STARTCHAR uni2520
ENCODING 9504
SWIDTH 1000 0
DWIDTH 10 0
BBX 6 11 4 -2
BITMAP
C0
C0
C0
C0
C0
FC
C0
C0
C0
C0
C0
ENDCHAR
STARTCHAR uni2523
ENCODING 9507
SWIDTH 1000 0
DWIDTH 10 0
BBX 6 11 4 -2
BITMAP
C0
C0
C0
C0
C0
FC
FC
C0
C0
C0
C0
ENDCHAR
STARTCHAR SF090000
ENCODING 9508
SWIDTH 1000 0
DWIDTH 10 0
BBX 5 11 0 -2
BITMAP
08
08
08
08
08
F8
08
08
08
08
08
ENDCHAR
STARTCHAR uni2525
ENCODING 9509
SWIDTH 1000 0
DWIDTH 10 0
BBX 5 11 0 -2
BITMAP
08
08
08
08
08
F8
F8
08
08
08
08
ENDCHAR
STARTCHAR uni2528
ENCODING 9512
SWIDTH 1000 0
DWIDTH 10 0
BBX 6 11 0 -2
BITMAP
0C
0C
0C
0C
0C
FC
0C
0C
0C
0C
0C
ENDCHAR
STARTCHAR uni252B
ENCODING 9515
SWIDTH 1000 0
DWIDTH 10 0
BBX 6 11 0 -2
BITMAP
0C
0C
0C
0C
0C
FC
FC
0C
0C
0C
0C
ENDCHAR
STARTCHAR SF060000
ENCODING 9516
SWIDTH 1000 0
DWIDTH 10 0
BBX 10 6 0 -2
BITMAP
FFC0
0800
0800
0800
0800
0800
ENDCHAR
STARTCHAR uni252F
ENCODING 9519
SWIDTH 1000 0
DWIDTH 10 0
BBX 10 6 0 -2
BITMAP
FFC0
FFC0
0800
0800
0800
0800
ENDCHAR
STARTCHAR uni2530
ENCODING 9520
SWIDTH 1000 0
DWIDTH 10 0
BBX 10 6 0 -2
BITMAP
FFC0
0C00
0C00
0C00
0C00
0C00
ENDCHAR
STARTCHAR uni2533
ENCODING 9523
SWIDTH 1000 0
DWIDTH 10 0
BBX 10 6 0 -2
BITMAP
FFC0
FFC0
0C00
0C00
0C00
0C00
ENDCHAR
STARTCHAR SF070000
ENCODING 9524
SWIDTH 1000 0
DWIDTH 10 0
BBX 10 6 0 3
BITMAP
0800
0800
0800
0800
0800
FFC0
ENDCHAR
STARTCHAR uni2537
ENCODING 9527
SWIDTH 1000 0
DWIDTH 10 0
BBX 10 7 0 2
BITMAP
0800
0800
0800
0800
0800
FFC0
FFC0
ENDCHAR
STARTCHAR uni2538
ENCODING 9528
SWIDTH 1000 0
DWIDTH 10 0
BBX 10 6 0 3
BITMAP
0C00
0C00
0C00
0C00
0C00
FFC0
ENDCHAR
STARTCHAR uni253B
ENCODING 9531
SWIDTH 1000 0
DWIDTH 10 0
BBX 10 7 0 2
BITMAP
0C00
0C00
0C00
0C00
0C00
FFC0
FFC0
ENDCHAR
STARTCHAR SF050000
ENCODING 9532
SWIDTH 1000 0
DWIDTH 10 0
BBX 10 11 0 -2
BITMAP
0800
0800
0800
0800
0800
FFC0
0800
0800
0800
0800
0800
ENDCHAR
STARTCHAR uni253F
ENCODING 9535
SWIDTH 1000 0
DWIDTH 10 0
BBX 10 11 0 -2
BITMAP
0800
0800
0800
0800
0800
FFC0
FFC0
0800
0800
0800
0800
ENDCHAR
STARTCHAR uni2542
ENCODING 9538
SWIDTH 1000 0
DWIDTH 10 0
BBX 10 11 0 -2
BITMAP
0C00
0C00
0C00
0C00
0C00
FFC0
0C00
0C00
0C00
0C00
0C00
ENDCHAR
STARTCHAR uni254B
ENCODING 9547
SWIDTH 1000 0
DWIDTH 10 0
BBX 10 11 0 -2
BITMAP
0C00
0C00
0C00
0C00
0C00
FFC0
FFC0
0C00
0C00
0C00
0C00
ENDCHAR
STARTCHAR filledbox
ENCODING 9632
SWIDTH 1000 0
DWIDTH 10 0
BBX 8 8 1 0
BITMAP
FF
FF
FF
FF
FF
FF
FF
FF
ENDCHAR
STARTCHAR H22073
ENCODING 9633
SWIDTH 1000 0
DWIDTH 10 0
BBX 8 8 1 0
BITMAP
FF
81
81
81
81
81
81
FF
ENDCHAR
STARTCHAR triagup
ENCODING 9650
SWIDTH 1000 0
DWIDTH 10 0
BBX 9 8 0 0
BITMAP
0800
1C00
1C00
3E00
3E00
7F00
7F00
FF80
ENDCHAR
STARTCHAR uni25B3
ENCODING 9651
SWIDTH 1000 0
DWIDTH 10 0
BBX 9 8 0 0
BITMAP
0800
1400
1400
2200
2200
4100
4100
FF80
ENDCHAR
STARTCHAR triagdn
ENCODING 9660
SWIDTH 1000 0
DWIDTH 10 0
BBX 9 8 0 0
BITMAP
FF80
7F00
7F00
3E00
3E00
1C00
1C00
0800
ENDCHAR
STARTCHAR uni25BD
ENCODING 9661
SWIDTH 1000 0
DWIDTH 10 0
BBX 9 8 0 0
BITMAP
FF80
4100
4100
2200
2200
1400
1400
0800
ENDCHAR
STARTCHAR uni25C6
ENCODING 9670
SWIDTH 1000 0
DWIDTH 10 0
BBX 9 9 0 -1
BITMAP
0800
1C00
3E00
7F00
FF80
7F00
3E00
1C00
0800
ENDCHAR
STARTCHAR uni25C7
ENCODING 9671
SWIDTH 1000 0
DWIDTH 10 0
BBX 9 9 0 -1
BITMAP
0800
1400
2200
4100
8080
4100
2200
1400
0800
ENDCHAR
STARTCHAR circle
ENCODING 9675
SWIDTH 1000 0
DWIDTH 10 0
BBX 9 9 0 -1
BITMAP
1C00
6300
4100
8080
8080
8080
4100
6300
1C00
ENDCHAR
STARTCHAR uni25CE
ENCODING 9678
SWIDTH 1000 0
DWIDTH 10 0
BBX 9 9 0 -1
BITMAP
1C00
6300
5D00
A280
A280
A280
5D00
6300
1C00
ENDCHAR
STARTCHAR H18533
ENCODING 9679
SWIDTH 1000 0
DWIDTH 10 0
BBX 9 9 0 -1
BITMAP
1C00
7F00
7F00
FF80
FF80
FF80
7F00
7F00
1C00
ENDCHAR
STARTCHAR uni25EF
ENCODING 9711
SWIDTH 1000 0
DWIDTH 10 0
BBX 9 9 0 -1
BITMAP
1C00
6300
4100
8080
8080
8080
4100
6300
1C00
ENDCHAR
STARTCHAR uni2605
ENCODING 9733
SWIDTH 1000 0
DWIDTH 10 0
BBX 9 9 0 -1
BITMAP
0800
0800
1C00
FF80
7F00
3E00
3E00
7700
4100
ENDCHAR
STARTCHAR uni2606
ENCODING 9734
SWIDTH 1000 0
DWIDTH 10 0
BBX 9 9 0 -1
BITMAP
0800
0800
1400
F780
4100
2200
2A00
7700
4100
ENDCHAR
STARTCHAR female
ENCODING 9792
SWIDTH 1000 0
DWIDTH 10 0
BBX 7 9 1 -1
BITMAP
38
44
44
44
38
10
FE
10
10
ENDCHAR
STARTCHAR male
ENCODING 9794
SWIDTH 1000 0
DWIDTH 10 0
BBX 8 8 1 -1
BITMAP
1F
03
05
79
89
88
88
70
ENDCHAR
STARTCHAR musicalnote
ENCODING 9834
SWIDTH 1000 0
DWIDTH 10 0
BBX 6 8 1 0
BITMAP
10
18
1C
14
14
70
F0
60
ENDCHAR
STARTCHAR uni266D
ENCODING 9837
SWIDTH 1000 0
DWIDTH 10 0
BBX 4 8 3 0
BITMAP
80
80
80
E0
90
90
A0
C0
ENDCHAR
STARTCHAR uni266F
ENCODING 9839
SWIDTH 1000 0
DWIDTH 10 0
BBX 6 10 2 -1
BITMAP
08
48
4C
78
C8
4C
78
C8
48
40
ENDCHAR
STARTCHAR uni3001
ENCODING 12289
SWIDTH 1000 0
DWIDTH 10 0
BBX 2 2 1 -1
BITMAP
80
40
ENDCHAR
STARTCHAR uni3002
ENCODING 12290
SWIDTH 1000 0
DWIDTH 10 0
BBX 4 4 1 -1
BITMAP
60
90
90
60
ENDCHAR
STARTCHAR uni3003
ENCODING 12291
SWIDTH 1000 0
DWIDTH 10 0
BBX 5 4 2 2
BITMAP
48
48
90
90
ENDCHAR
STARTCHAR uni3005
ENCODING 12293
SWIDTH 1000 0
DWIDTH 10 0
BBX 6 7 1 0
BITMAP
40
7C
84
84
28
10
08
ENDCHAR
STARTCHAR uni3006
ENCODING 12294
SWIDTH 1000 0
DWIDTH 10 0
BBX 8 8 1 -1
BITMAP
01
02
34
48
94
A2
C0
80
ENDCHAR
STARTCHAR uni3007
ENCODING 12295
SWIDTH 1000 0
DWIDTH 10 0
BBX 9 7 0 0
BITMAP
1C00
6300
8080
8080
8080
6300
1C00
ENDCHAR
STARTCHAR uni3008
ENCODING 12296
SWIDTH 1000 0
DWIDTH 10 0
BBX 3 9 5 -1
BITMAP
20
20
40
40
80
40
40
20
20
ENDCHAR
STARTCHAR uni3009
ENCODING 12297
SWIDTH 1000 0
DWIDTH 10 0
BBX 3 9 1 -1
BITMAP
80
80
40
40
20
40
40
80
80
ENDCHAR
STARTCHAR uni300A
ENCODING 12298
SWIDTH 1000 0
DWIDTH 10 0
BBX 5 9 3 -1
BITMAP
28
28
50
50
A0
50
50
28
28
ENDCHAR
STARTCHAR uni300B
ENCODING 12299
SWIDTH 1000 0
DWIDTH 10 0
BBX 5 9 1 -1
BITMAP
A0
A0
50
50
28
50
50
A0
A0
ENDCHAR
STARTCHAR uni300C
ENCODING 12300
SWIDTH 1000 0
DWIDTH 10 0
BBX 4 7 4 2
BITMAP
F0
80
80
80
80
80
80
ENDCHAR
STARTCHAR uni300D
ENCODING 12301
SWIDTH 1000 0
DWIDTH 10 0
BBX 4 7 1 -2
BITMAP
10
10
10
10
10
10
F0
ENDCHAR
STARTCHAR uni300E
ENCODING 12302
SWIDTH 1000 0
DWIDTH 10 0
BBX 5 8 3 1
BITMAP
F8
88
B8
A0
A0
A0
A0
E0
ENDCHAR
STARTCHAR uni300F
ENCODING 12303
SWIDTH 1000 0
DWIDTH 10 0
BBX 5 8 1 -2
BITMAP
38
28
28
28
28
E8
88
F8
ENDCHAR
STARTCHAR uni3010
ENCODING 12304
SWIDTH 1000 0
DWIDTH 10 0
BBX 4 11 4 -2
BITMAP
F0
E0
C0
C0
80
80
80
C0
C0
E0
F0
ENDCHAR
STARTCHAR uni3011
ENCODING 12305
SWIDTH 1000 0
DWIDTH 10 0
BBX 4 11 1 -2
BITMAP
F0
70
30
30
10
10
10
30
30
70
F0
ENDCHAR
STARTCHAR uni3012
ENCODING 12306
SWIDTH 1000 0
DWIDTH 10 0
BBX 7 8 1 0
BITMAP
FE
00
00
FE
10
10
10
10
ENDCHAR
STARTCHAR uni3013
ENCODING 12307
SWIDTH 1000 0
DWIDTH 10 0
BBX 7 5 1 1
BITMAP
FE
FE
00
FE
FE
ENDCHAR
STARTCHAR uni3014
ENCODING 12308
SWIDTH 1000 0
DWIDTH 10 0
BBX 3 11 5 -2
BITMAP
20
40
80
80
80
80
80
80
80
40
20
ENDCHAR
STARTCHAR uni3015
ENCODING 12309
SWIDTH 1000 0
DWIDTH 10 0
BBX 3 11 1 -2
BITMAP
80
40
20
20
20
20
20
20
20
40
80
ENDCHAR
STARTCHAR uni301C
ENCODING 12316
SWIDTH 1000 0
DWIDTH 10 0
BBX 7 3 1 2
BITMAP
60
92
0C
ENDCHAR
STARTCHAR uni3041
ENCODING 12353
SWIDTH 1000 0
DWIDTH 10 0
BBX 7 7 1 -1
BITMAP
20
FE
20
7C
AA
B2
64
ENDCHAR
STARTCHAR uni3042
ENCODING 12354
SWIDTH 1000 0
DWIDTH 10 0
BBX 9 10 0 -1
BITMAP
1000
1000
7F00
1000
3E00
6500
A880
A880
7100
0600
ENDCHAR
STARTCHAR uni3043
ENCODING 12355
SWIDTH 1000 0
DWIDTH 10 0
BBX 7 6 1 -1
BITMAP
44
44
82
82
92
60
ENDCHAR
STARTCHAR uni3044
ENCODING 12356
SWIDTH 1000 0
DWIDTH 10 0
BBX 9 7 0 0
BITMAP
4000
4100
8100
8080
8080
4880
3000
ENDCHAR
STARTCHAR uni3045
ENCODING 12357
SWIDTH 1000 0
DWIDTH 10 0
BBX 6 7 1 -1
BITMAP
78
00
38
C4
04
08
30
ENDCHAR
STARTCHAR uni3046
ENCODING 12358
SWIDTH 1000 0
DWIDTH 10 0
BBX 7 9 1 -1
BITMAP
30
0C
00
3C
C2
02
02
04
18
ENDCHAR
STARTCHAR uni3047
ENCODING 12359
SWIDTH 1000 0
DWIDTH 10 0
BBX 6 7 2 -1
BITMAP
78
00
F8
10
20
50
8C
ENDCHAR
STARTCHAR uni3048
ENCODING 12360
SWIDTH 1000 0
DWIDTH 10 0
BBX 8 9 1 -1
BITMAP
30
0C
00
7C
08
10
28
48
87
ENDCHAR
STARTCHAR uni3049
ENCODING 12361
SWIDTH 1000 0
DWIDTH 10 0
BBX 7 7 1 -1
BITMAP
24
FA
20
7C
A2
A2
CC
ENDCHAR
STARTCHAR uni304A
ENCODING 12362
SWIDTH 1000 0
DWIDTH 10 0
BBX 9 10 0 -1
BITMAP
1000
1000
7D00
1080
1000
3E00
5100
9080
9080
6300
ENDCHAR
STARTCHAR uni304B
ENCODING 12363
SWIDTH 1000 0
DWIDTH 10 0
BBX 9 10 0 -1
BITMAP
1000
1000
1100
F900
2480
2480
2480
4400
4400
1800
ENDCHAR
STARTCHAR uni304C
ENCODING 12364
SWIDTH 1000 0
DWIDTH 10 0
BBX 9 10 0 -1
BITMAP
1100
1480
1200
F800
2500
2500
2480
4480
4400
1800
ENDCHAR
STARTCHAR uni304D
ENCODING 12365
SWIDTH 1000 0
DWIDTH 10 0
BBX 8 10 0 -1
BITMAP
08
08
FF
04
7F
04
3A
46
40
3C
ENDCHAR
STARTCHAR uni304E
ENCODING 12366
SWIDTH 1000 0
DWIDTH 10 0
BBX 9 10 0 -1
BITMAP
1100
1480
FA00
0800
7F00
0400
3A00
4600
4000
3C00
ENDCHAR
STARTCHAR uni304F
ENCODING 12367
SWIDTH 1000 0
DWIDTH 10 0
BBX 4 9 2 -1
BITMAP
10
20
40
80
80
40
20
10
10
ENDCHAR
STARTCHAR uni3050
ENCODING 12368
SWIDTH 1000 0
DWIDTH 10 0
BBX 8 9 1 -1
BITMAP
10
22
49
84
80
40
20
10
10
ENDCHAR
STARTCHAR uni3051
ENCODING 12369
SWIDTH 1000 0
DWIDTH 10 0
BBX 9 10 0 -1
BITMAP
0200
4200
4200
9F80
8200
8200
8200
8200
4400
5800
ENDCHAR
STARTCHAR uni3052
ENCODING 12370
SWIDTH 1000 0
DWIDTH 10 0
BBX 9 10 0 -1
BITMAP
0100
4480
4200
9F80
8200
8200
8200
8200
4400
5800
ENDCHAR
STARTCHAR uni3053
ENCODING 12371
SWIDTH 1000 0
DWIDTH 10 0
BBX 7 8 1 -1
BITMAP
7C
00
00
00
40
80
82
7C
ENDCHAR
STARTCHAR uni3054
ENCODING 12372
SWIDTH 1000 0
DWIDTH 10 0
BBX 8 10 1 -1
BITMAP
02
09
74
00
00
00
40
80
82
7C
ENDCHAR
STARTCHAR uni3055
ENCODING 12373
SWIDTH 1000 0
DWIDTH 10 0
BBX 9 10 0 -1
BITMAP
0400
0400
0580
FE00
0200
1D00
2300
2000
1000
0E00
ENDCHAR
STARTCHAR uni3056
ENCODING 12374
SWIDTH 1000 0
DWIDTH 10 0
BBX 9 10 0 -1
BITMAP
0900
0880
0A00
FD00
0400
3A00
4600
4000
2000
1C00
ENDCHAR
STARTCHAR uni3057
ENCODING 12375
SWIDTH 1000 0
DWIDTH 10 0
BBX 7 9 1 -1
BITMAP
40
40
40
80
80
82
82
44
38
ENDCHAR
STARTCHAR uni3058
ENCODING 12376
SWIDTH 1000 0
DWIDTH 10 0
BBX 8 9 1 -1
BITMAP
42
49
44
80
80
82
82
44
38
ENDCHAR
STARTCHAR uni3059
ENCODING 12377
SWIDTH 1000 0
DWIDTH 10 0
BBX 9 10 0 -1
BITMAP
0400
0400
FF80
0400
1C00
2400
2400
1C00
0800
3000
ENDCHAR
STARTCHAR uni305A
ENCODING 12378
SWIDTH 1000 0
DWIDTH 10 0
BBX 9 10 0 -1
BITMAP
0900
0480
FE00
0400
1C00
2400
2400
1C00
0800
3000
ENDCHAR
STARTCHAR uni305B
ENCODING 12379
SWIDTH 1000 0
DWIDTH 10 0
BBX 9 10 0 -1
BITMAP
0200
2200
2200
2780
FA00
2200
2600
2000
2000
1F00
ENDCHAR
STARTCHAR uni305C
ENCODING 12380
SWIDTH 1000 0
DWIDTH 10 0
BBX 9 10 0 -1
BITMAP
0100
2480
2200
2780
FA00
2200
2600
2000
2000
1F00
ENDCHAR
STARTCHAR uni305D
ENCODING 12381
SWIDTH 1000 0
DWIDTH 10 0
BBX 8 9 1 -1
BITMAP
7C
04
08
10
FF
10
20
20
1C
ENDCHAR
STARTCHAR uni305E
ENCODING 12382
SWIDTH 1000 0
DWIDTH 10 0
BBX 8 10 1 -1
BITMAP
02
79
04
0A
10
FF
10
20
20
1C
ENDCHAR
STARTCHAR uni305F
ENCODING 12383
SWIDTH 1000 0
DWIDTH 10 0
BBX 9 10 0 -1
BITMAP
1000
1000
FE00
1000
1780
2000
2200
2400
4400
4380
ENDCHAR
STARTCHAR uni3060
ENCODING 12384
SWIDTH 1000 0
DWIDTH 10 0
BBX 9 10 0 -1
BITMAP
2100
2480
FA00
2000
2F00
4000
4400
4800
8800
8700
ENDCHAR
STARTCHAR uni3061
ENCODING 12385
SWIDTH 1000 0
DWIDTH 10 0
BBX 7 10 1 -1
BITMAP
20
20
FE
20
20
5C
62
02
04
38
ENDCHAR
STARTCHAR uni3062
ENCODING 12386
SWIDTH 1000 0
DWIDTH 10 0
BBX 9 10 0 -1
BITMAP
2100
2480
FA00
2000
2000
5C00
6200
0200
0400
3800
ENDCHAR
STARTCHAR uni3063
ENCODING 12387
SWIDTH 1000 0
DWIDTH 10 0
BBX 7 6 1 -1
BITMAP
18
E4
02
02
04
38
ENDCHAR
STARTCHAR uni3064
ENCODING 12388
SWIDTH 1000 0
DWIDTH 10 0
BBX 8 7 0 0
BITMAP
1C
E2
01
01
01
06
38
ENDCHAR
STARTCHAR uni3065
ENCODING 12389
SWIDTH 1000 0
DWIDTH 10 0
BBX 9 9 0 0
BITMAP
0900
0480
1C00
E200
0100
0100
0100
0600
3800
ENDCHAR
STARTCHAR uni3066
ENCODING 12390
SWIDTH 1000 0
DWIDTH 10 0
BBX 8 8 0 -1
BITMAP
1F
E4
08
10
10
10
08
06
ENDCHAR
STARTCHAR uni3067
ENCODING 12391
SWIDTH 1000 0
DWIDTH 10 0
BBX 9 8 0 -1
BITMAP
1F00
E800
1100
2480
2200
2000
1000
0C00
ENDCHAR
STARTCHAR uni3068
ENCODING 12392
SWIDTH 1000 0
DWIDTH 10 0
BBX 6 9 2 -1
BITMAP
40
40
40
2C
30
40
80
80
7C
ENDCHAR
STARTCHAR uni3069
ENCODING 12393
SWIDTH 1000 0
DWIDTH 10 0
BBX 8 10 1 -1
BITMAP
02
49
44
40
2C
30
40
80
80
7C
ENDCHAR
STARTCHAR uni306A
ENCODING 12394
SWIDTH 1000 0
DWIDTH 10 0
BBX 9 10 0 -1
BITMAP
1000
1100
FC80
2000
4200
4200
8E00
9300
1280
0C00
ENDCHAR
STARTCHAR uni306B
ENCODING 12395
SWIDTH 1000 0
DWIDTH 10 0
BBX 8 9 1 -1
BITMAP
40
4F
80
80
84
88
88
47
40
ENDCHAR
STARTCHAR uni306C
ENCODING 12396
SWIDTH 1000 0
DWIDTH 10 0
BBX 9 10 0 -1
BITMAP
0400
0400
4400
5E00
6500
4480
A880
AE80
9900
6680
ENDCHAR
STARTCHAR uni306D
ENCODING 12397
SWIDTH 1000 0
DWIDTH 10 0
BBX 9 10 0 -1
BITMAP
2000
2000
2000
EE00
3100
2080
2380
6480
A480
2300
ENDCHAR
STARTCHAR uni306E
ENCODING 12398
SWIDTH 1000 0
DWIDTH 10 0
BBX 9 8 0 -1
BITMAP
1E00
2900
4880
8880
9080
9080
6100
0600
ENDCHAR
STARTCHAR uni306F
ENCODING 12399
SWIDTH 1000 0
DWIDTH 10 0
BBX 9 10 0 -1
BITMAP
0200
4200
4200
9F80
8200
8200
8E00
9300
5280
4C00
ENDCHAR
STARTCHAR uni3070
ENCODING 12400
SWIDTH 1000 0
DWIDTH 10 0
BBX 9 10 0 -1
BITMAP
0100
4480
4200
9F80
8200
8200
8E00
9300
5280
4C00
ENDCHAR
STARTCHAR uni3071
ENCODING 12401
SWIDTH 1000 0
DWIDTH 10 0
BBX 9 10 0 -1
BITMAP
0300
4480
4480
9F00
8200
8200
8E00
9300
5280
4C00
ENDCHAR
STARTCHAR uni3072
ENCODING 12402
SWIDTH 1000 0
DWIDTH 10 0
BBX 9 9 0 -1
BITMAP
0400
F400
1200
2300
2280
4200
4200
4400
3800
ENDCHAR
STARTCHAR uni3073
ENCODING 12403
SWIDTH 1000 0
DWIDTH 10 0
BBX 9 10 0 -1
BITMAP
0100
0480
F200
1000
2200
2300
4280
4200
4400
3800
ENDCHAR
STARTCHAR uni3074
ENCODING 12404
SWIDTH 1000 0
DWIDTH 10 0
BBX 9 10 0 -1
BITMAP
0300
0480
F480
1300
2280
2200
4200
4200
4400
3800
ENDCHAR
STARTCHAR uni3075
ENCODING 12405
SWIDTH 1000 0
DWIDTH 10 0
BBX 9 9 0 -1
BITMAP
1800
0600
0000
0800
4900
4500
8480
8480
1800
ENDCHAR
STARTCHAR uni3076
ENCODING 12406
SWIDTH 1000 0
DWIDTH 10 0
BBX 9 10 0 -1
BITMAP
0100
1880
0200
0100
0800
4900
4500
8480
8480
1800
ENDCHAR
STARTCHAR uni3077
ENCODING 12407
SWIDTH 1000 0
DWIDTH 10 0
BBX 9 10 0 -1
BITMAP
0300
1C80
0480
0300
0800
4900
4500
8480
8480
1800
ENDCHAR
STARTCHAR uni3078
ENCODING 12408
SWIDTH 1000 0
DWIDTH 10 0
BBX 9 4 0 1
BITMAP
3800
4400
8200
0180
ENDCHAR
STARTCHAR uni3079
ENCODING 12409
SWIDTH 1000 0
DWIDTH 10 0
BBX 9 7 0 1
BITMAP
0100
0480
0200
3800
4400
8200
0180
ENDCHAR
STARTCHAR uni307A
ENCODING 12410
SWIDTH 1000 0
DWIDTH 10 0
BBX 9 8 0 1
BITMAP
0300
0480
0480
0300
3800
4400
8200
0180
ENDCHAR
STARTCHAR uni307B
ENCODING 12411
SWIDTH 1000 0
DWIDTH 10 0
BBX 9 9 0 -1
BITMAP
5F80
4200
8200
9F80
8200
8E00
9300
5280
4C00
ENDCHAR
STARTCHAR uni307C
ENCODING 12412
SWIDTH 1000 0
DWIDTH 10 0
BBX 9 10 0 -1
BITMAP
0100
5C80
4200
8200
9F80
8200
8E00
9300
5280
4C00
ENDCHAR
STARTCHAR uni307D
ENCODING 12413
SWIDTH 1000 0
DWIDTH 10 0
BBX 9 10 0 -1
BITMAP
0300
5C80
4480
8300
9E00
8200
8E00
9300
5280
4C00
ENDCHAR
STARTCHAR uni307E
ENCODING 12414
SWIDTH 1000 0
DWIDTH 10 0
BBX 8 10 0 -1
BITMAP
04
04
FF
04
7F
04
3C
46
45
38
ENDCHAR
STARTCHAR uni307F
ENCODING 12415
SWIDTH 1000 0
DWIDTH 10 0
BBX 9 9 0 -1
BITMAP
7800
0900
0900
0900
7F00
9180
9100
6200
0C00
ENDCHAR
STARTCHAR uni3080
ENCODING 12416
SWIDTH 1000 0
DWIDTH 10 0
BBX 9 10 0 -1
BITMAP
1000
1000
F900
1080
7000
9000
9000
6100
2100
1E00
ENDCHAR
STARTCHAR uni3081
ENCODING 12417
SWIDTH 1000 0
DWIDTH 10 0
BBX 9 10 0 -1
BITMAP
0400
2400
2400
3E00
6500
A880
A880
9080
6100
0600
ENDCHAR
STARTCHAR uni3082
ENCODING 12418
SWIDTH 1000 0
DWIDTH 10 0
BBX 7 10 1 -1
BITMAP
10
10
FE
10
10
FE
20
22
22
1C
ENDCHAR
STARTCHAR uni3083
ENCODING 12419
SWIDTH 1000 0
DWIDTH 10 0
BBX 7 7 1 -1
BITMAP
08
48
5C
E2
22
14
10
ENDCHAR
STARTCHAR uni3084
ENCODING 12420
SWIDTH 1000 0
DWIDTH 10 0
BBX 9 10 0 -1
BITMAP
0400
0400
2400
2F00
F080
1080
1300
0800
0800
0800
ENDCHAR
STARTCHAR uni3085
ENCODING 12421
SWIDTH 1000 0
DWIDTH 10 0
BBX 7 7 1 -1
BITMAP
08
9C
AA
AA
5C
48
10
ENDCHAR
STARTCHAR uni3086
ENCODING 12422
SWIDTH 1000 0
DWIDTH 10 0
BBX 9 10 0 -1
BITMAP
0400
0400
1F00
A480
A480
4480
5480
4F00
0400
1800
ENDCHAR
STARTCHAR uni3087
ENCODING 12423
SWIDTH 1000 0
DWIDTH 10 0
BBX 6 7 1 -1
BITMAP
10
10
1C
10
70
98
64
ENDCHAR
STARTCHAR uni3088
ENCODING 12424
SWIDTH 1000 0
DWIDTH 10 0
BBX 7 10 1 -1
BITMAP
10
10
10
1E
10
10
78
8C
8A
70
ENDCHAR
STARTCHAR uni3089
ENCODING 12425
SWIDTH 1000 0
DWIDTH 10 0
BBX 7 9 1 -1
BITMAP
60
18
80
80
9C
E2
02
04
38
ENDCHAR
STARTCHAR uni308A
ENCODING 12426
SWIDTH 1000 0
DWIDTH 10 0
BBX 5 9 2 -1
BITMAP
88
88
88
88
A8
48
08
10
60
ENDCHAR
STARTCHAR uni308B
ENCODING 12427
SWIDTH 1000 0
DWIDTH 10 0
BBX 7 9 1 -1
BITMAP
7C
08
10
38
C4
32
4A
4C
38
ENDCHAR
STARTCHAR uni308C
ENCODING 12428
SWIDTH 1000 0
DWIDTH 10 0
BBX 9 10 0 -1
BITMAP
2000
2000
2000
E600
2900
3100
2200
6200
A200
2180
ENDCHAR
STARTCHAR uni308D
ENCODING 12429
SWIDTH 1000 0
DWIDTH 10 0
BBX 7 9 1 -1
BITMAP
7C
08
10
38
C4
02
02
04
38
ENDCHAR
STARTCHAR uni308E
ENCODING 12430
SWIDTH 1000 0
DWIDTH 10 0
BBX 7 7 1 -1
BITMAP
20
20
EC
32
22
62
AC
ENDCHAR
STARTCHAR uni308F
ENCODING 12431
SWIDTH 1000 0
DWIDTH 10 0
BBX 9 10 0 -1
BITMAP
2000
2000
2000
E600
2900
3080
2080
6080
A100
2600
ENDCHAR
STARTCHAR uni3090
ENCODING 12432
SWIDTH 1000 0
DWIDTH 10 0
BBX 9 9 0 -1
BITMAP
7C00
0400
3E00
4900
8880
8B80
9480
6480
0300
ENDCHAR
STARTCHAR uni3091
ENCODING 12433
SWIDTH 1000 0
DWIDTH 10 0
BBX 9 9 0 -1
BITMAP
7F00
0400
1E00
6100
1900
3E00
2000
7300
8C80
ENDCHAR
STARTCHAR uni3092
ENCODING 12434
SWIDTH 1000 0
DWIDTH 10 0
BBX 8 10 1 -1
BITMAP
10
10
FE
20
33
4C
94
24
20
1E
ENDCHAR
STARTCHAR uni3093
ENCODING 12435
SWIDTH 1000 0
DWIDTH 10 0
BBX 8 9 1 -1
BITMAP
10
10
20
20
30
48
49
89
86
ENDCHAR
STARTCHAR uni3094
ENCODING 12436
SWIDTH 1000 0
DWIDTH 10 0
BBX 9 10 0 -1
BITMAP
0100
3080
0A00
0100
3C00
C200
0200
0200
0C00
3000
ENDCHAR
STARTCHAR uni309B
ENCODING 12443
SWIDTH 1000 0
DWIDTH 10 0
BBX 4 3 1 6
BITMAP
20
90
40
ENDCHAR
STARTCHAR uni309C
ENCODING 12444
SWIDTH 1000 0
DWIDTH 10 0
BBX 4 4 1 5
BITMAP
60
90
90
60
ENDCHAR
STARTCHAR uni309D
ENCODING 12445
SWIDTH 1000 0
DWIDTH 10 0
BBX 4 5 2 1
BITMAP
80
40
20
10
F0
ENDCHAR
STARTCHAR uni309E
ENCODING 12446
SWIDTH 1000 0
DWIDTH 10 0
BBX 7 7 2 1
BITMAP
04
12
88
40
20
10
F0
ENDCHAR
STARTCHAR uni30A1
ENCODING 12449
SWIDTH 1000 0
DWIDTH 10 0
BBX 6 6 2 -1
BITMAP
FC
04
28
20
20
C0
ENDCHAR
STARTCHAR uni30A2
ENCODING 12450
SWIDTH 1000 0
DWIDTH 10 0
BBX 8 8 1 -1
BITMAP
FF
01
12
14
10
10
20
C0
ENDCHAR
STARTCHAR uni30A3
ENCODING 12451
SWIDTH 1000 0
DWIDTH 10 0
BBX 6 7 2 -1
BITMAP
04
08
30
D0
10
10
10
ENDCHAR
STARTCHAR uni30A4
ENCODING 12452
SWIDTH 1000 0
DWIDTH 10 0
BBX 7 9 1 -1
BITMAP
02
02
04
08
38
C8
08
08
08
ENDCHAR
STARTCHAR uni30A5
ENCODING 12453
SWIDTH 1000 0
DWIDTH 10 0
BBX 6 7 2 -1
BITMAP
20
20
FC
84
84
08
30
ENDCHAR
STARTCHAR uni30A6
ENCODING 12454
SWIDTH 1000 0
DWIDTH 10 0
BBX 8 10 1 -1
BITMAP
10
10
10
FF
81
81
02
02
0C
30
ENDCHAR
STARTCHAR uni30A7
ENCODING 12455
SWIDTH 1000 0
DWIDTH 10 0
BBX 7 6 1 -1
BITMAP
7C
10
10
10
10
FE
ENDCHAR
STARTCHAR uni30A8
ENCODING 12456
SWIDTH 1000 0
DWIDTH 10 0
BBX 9 7 0 0
BITMAP
7F00
0800
0800
0800
0800
0800
FF80
ENDCHAR
STARTCHAR uni30A9
ENCODING 12457
SWIDTH 1000 0
DWIDTH 10 0
BBX 6 7 2 -1
BITMAP
08
08
FC
18
28
C8
18
ENDCHAR
STARTCHAR uni30AA
ENCODING 12458
SWIDTH 1000 0
DWIDTH 10 0
BBX 9 10 0 -1
BITMAP
0400
0400
0400
FF80
0400
0C00
3400
C400
0400
1C00
ENDCHAR
STARTCHAR uni30AB
ENCODING 12459
SWIDTH 1000 0
DWIDTH 10 0
BBX 8 10 1 -1
BITMAP
10
10
10
FF
11
11
11
21
21
C6
ENDCHAR
STARTCHAR uni30AC
ENCODING 12460
SWIDTH 1000 0
DWIDTH 10 0
BBX 9 10 0 -1
BITMAP
1100
1480
1200
FF00
1100
1100
1100
2100
2100
C600
ENDCHAR
STARTCHAR uni30AD
ENCODING 12461
SWIDTH 1000 0
DWIDTH 10 0
BBX 9 10 0 -1
BITMAP
0800
0800
0800
7F00
0800
0800
FF80
0400
0400
0400
ENDCHAR
STARTCHAR uni30AE
ENCODING 12462
SWIDTH 1000 0
DWIDTH 10 0
BBX 9 10 0 -1
BITMAP
0900
0880
0A00
7D00
0800
0800
FF80
0400
0400
0400
ENDCHAR
STARTCHAR uni30AF
ENCODING 12463
SWIDTH 1000 0
DWIDTH 10 0
BBX 7 10 1 -1
BITMAP
20
20
3E
22
42
82
04
04
18
60
ENDCHAR
STARTCHAR uni30B0
ENCODING 12464
SWIDTH 1000 0
DWIDTH 10 0
BBX 9 10 0 -1
BITMAP
0900
2480
3E00
2200
4200
8200
0400
0400
1800
6000
ENDCHAR
STARTCHAR uni30B1
ENCODING 12465
SWIDTH 1000 0
DWIDTH 10 0
BBX 8 10 1 -1
BITMAP
40
40
40
7F
88
88
08
08
10
60
ENDCHAR
STARTCHAR uni30B2
ENCODING 12466
SWIDTH 1000 0
DWIDTH 10 0
BBX 9 10 0 -1
BITMAP
4100
4480
4200
7F00
8800
8800
0800
0800
1000
6000
ENDCHAR
STARTCHAR uni30B3
ENCODING 12467
SWIDTH 1000 0
DWIDTH 10 0
BBX 7 8 1 -1
BITMAP
FE
02
02
02
02
02
FE
02
ENDCHAR
STARTCHAR uni30B4
ENCODING 12468
SWIDTH 1000 0
DWIDTH 10 0
BBX 9 10 0 -1
BITMAP
0900
0480
FE00
0200
0200
0200
0200
0200
FE00
0200
ENDCHAR
STARTCHAR uni30B5
ENCODING 12469
SWIDTH 1000 0
DWIDTH 10 0
BBX 9 10 0 -1
BITMAP
0200
2200
2200
FF80
2200
2200
0200
0200
0400
1800
ENDCHAR
STARTCHAR uni30B6
ENCODING 12470
SWIDTH 1000 0
DWIDTH 10 0
BBX 9 10 0 -1
BITMAP
0100
2480
2200
FF80
2200
2200
0200
0200
0400
1800
ENDCHAR
STARTCHAR uni30B7
ENCODING 12471
SWIDTH 1000 0
DWIDTH 10 0
BBX 8 9 1 -1
BITMAP
60
18
01
C1
32
02
04
18
60
ENDCHAR
STARTCHAR uni30B8
ENCODING 12472
SWIDTH 1000 0
DWIDTH 10 0
BBX 9 10 0 -1
BITMAP
0100
C480
3200
0000
C100
3100
0200
0400
1800
6000
ENDCHAR
STARTCHAR uni30B9
ENCODING 12473
SWIDTH 1000 0
DWIDTH 10 0
BBX 8 8 0 -1
BITMAP
7E
02
02
04
04
0A
31
C1
ENDCHAR
STARTCHAR uni30BA
ENCODING 12474
SWIDTH 1000 0
DWIDTH 10 0
BBX 9 10 0 -1
BITMAP
0900
0480
7E00
0200
0200
0400
0400
0A00
3100
C100
ENDCHAR
STARTCHAR uni30BB
ENCODING 12475
SWIDTH 1000 0
DWIDTH 10 0
BBX 9 10 0 -1
BITMAP
1000
1000
1000
1780
F880
1100
1200
1000
1000
0F00
ENDCHAR
STARTCHAR uni30BC
ENCODING 12476
SWIDTH 1000 0
DWIDTH 10 0
BBX 9 10 0 -1
BITMAP
1100
1480
1200
1780
F880
1100
1200
1000
1000
0F00
ENDCHAR
STARTCHAR uni30BD
ENCODING 12477
SWIDTH 1000 0
DWIDTH 10 0
BBX 8 9 1 -1
BITMAP
01
81
81
41
42
02
04
18
60
ENDCHAR
STARTCHAR uni30BE
ENCODING 12478
SWIDTH 1000 0
DWIDTH 10 0
BBX 9 10 0 -1
BITMAP
0900
0480
8000
8100
4100
4200
0200
0400
1800
6000
ENDCHAR
STARTCHAR uni30BF
ENCODING 12479
SWIDTH 1000 0
DWIDTH 10 0
BBX 7 10 1 -1
BITMAP
20
20
3E
22
52
8A
04
04
18
E0
ENDCHAR
STARTCHAR uni30C0
ENCODING 12480
SWIDTH 1000 0
DWIDTH 10 0
BBX 9 10 0 -1
BITMAP
0900
2480
3E00
2200
5200
8A00
0400
0400
1800
E000
ENDCHAR
STARTCHAR uni30C1
ENCODING 12481
SWIDTH 1000 0
DWIDTH 10 0
BBX 9 9 0 -1
BITMAP
0700
7800
0800
0800
FF80
0800
0800
1000
6000
ENDCHAR
STARTCHAR uni30C2
ENCODING 12482
SWIDTH 1000 0
DWIDTH 10 0
BBX 9 10 0 -1
BITMAP
0100
0480
7A00
0800
0800
FF80
0800
0800
1000
6000
ENDCHAR
STARTCHAR uni30C3
ENCODING 12483
SWIDTH 1000 0
DWIDTH 10 0
BBX 6 6 2 -1
BITMAP
A4
A4
A4
04
08
70
ENDCHAR
STARTCHAR uni30C4
ENCODING 12484
SWIDTH 1000 0
DWIDTH 10 0
BBX 8 8 1 -1
BITMAP
91
91
91
01
02
02
0C
70
ENDCHAR
STARTCHAR uni30C5
ENCODING 12485
SWIDTH 1000 0
DWIDTH 10 0
BBX 9 10 0 -1
BITMAP
0100
0480
9200
9000
9100
0100
0200
0200
0C00
7000
ENDCHAR
STARTCHAR uni30C6
ENCODING 12486
SWIDTH 1000 0
DWIDTH 10 0
BBX 9 9 0 -1
BITMAP
7F00
0000
0000
FF80
0800
0800
0800
1000
6000
ENDCHAR
STARTCHAR uni30C7
ENCODING 12487
SWIDTH 1000 0
DWIDTH 10 0
BBX 9 10 0 -1
BITMAP
0100
7C80
0200
0000
FF80
0800
0800
0800
1000
6000
ENDCHAR
STARTCHAR uni30C8
ENCODING 12488
SWIDTH 1000 0
DWIDTH 10 0
BBX 6 9 2 -1
BITMAP
80
80
80
C0
B0
8C
80
80
80
ENDCHAR
STARTCHAR uni30C9
ENCODING 12489
SWIDTH 1000 0
DWIDTH 10 0
BBX 7 10 2 -1
BITMAP
04
92
88
80
C0
B0
8C
80
80
80
ENDCHAR
STARTCHAR uni30CA
ENCODING 12490
SWIDTH 1000 0
DWIDTH 10 0
BBX 8 10 1 -1
BITMAP
08
08
08
FF
08
08
08
08
10
60
ENDCHAR
STARTCHAR uni30CB
ENCODING 12491
SWIDTH 1000 0
DWIDTH 10 0
BBX 8 7 1 0
BITMAP
7E
00
00
00
00
00
FF
ENDCHAR
STARTCHAR uni30CC
ENCODING 12492
SWIDTH 1000 0
DWIDTH 10 0
BBX 7 8 1 -1
BITMAP
FE
02
02
24
14
08
34
C2
ENDCHAR
STARTCHAR uni30CD
ENCODING 12493
SWIDTH 1000 0
DWIDTH 10 0
BBX 9 10 0 -1
BITMAP
0800
0800
0800
7F00
0200
0400
1A00
E900
0880
0800
ENDCHAR
STARTCHAR uni30CE
ENCODING 12494
SWIDTH 1000 0
DWIDTH 10 0
BBX 7 8 1 -1
BITMAP
02
02
02
04
04
08
30
C0
ENDCHAR
STARTCHAR uni30CF
ENCODING 12495
SWIDTH 1000 0
DWIDTH 10 0
BBX 8 8 1 -1
BITMAP
20
22
22
42
41
41
81
81
ENDCHAR
STARTCHAR uni30D0
ENCODING 12496
SWIDTH 1000 0
DWIDTH 10 0
BBX 9 10 0 -1
BITMAP
0100
0480
2200
2000
2000
4200
4200
4100
8100
8100
ENDCHAR
STARTCHAR uni30D1
ENCODING 12497
SWIDTH 1000 0
DWIDTH 10 0
BBX 9 10 0 -1
BITMAP
0300
0480
2480
2300
2000
4200
4200
4100
8100
8100
ENDCHAR
STARTCHAR uni30D2
ENCODING 12498
SWIDTH 1000 0
DWIDTH 10 0
BBX 7 9 1 -1
BITMAP
80
80
86
F8
80
80
80
80
7E
ENDCHAR
STARTCHAR uni30D3
ENCODING 12499
SWIDTH 1000 0
DWIDTH 10 0
BBX 8 10 1 -1
BITMAP
02
89
84
80
8E
F0
80
80
80
7E
ENDCHAR
STARTCHAR uni30D4
ENCODING 12500
SWIDTH 1000 0
DWIDTH 10 0
BBX 8 10 1 -1
BITMAP
06
89
89
86
98
E0
80
80
80
7E
ENDCHAR
STARTCHAR uni30D5
ENCODING 12501
SWIDTH 1000 0
DWIDTH 10 0
BBX 8 8 1 -1
BITMAP
FF
01
01
01
02
02
0C
70
ENDCHAR
STARTCHAR uni30D6
ENCODING 12502
SWIDTH 1000 0
DWIDTH 10 0
BBX 9 10 0 -1
BITMAP
0900
0480
FF00
0100
0100
0100
0200
0200
0C00
7000
ENDCHAR
STARTCHAR uni30D7
ENCODING 12503
SWIDTH 1000 0
DWIDTH 10 0
BBX 9 10 0 -1
BITMAP
0300
0480
FC80
0300
0200
0200
0400
0400
1800
6000
ENDCHAR
STARTCHAR uni30D8
ENCODING 12504
SWIDTH 1000 0
DWIDTH 10 0
BBX 9 5 0 1
BITMAP
3000
4800
8400
0200
0180
ENDCHAR
STARTCHAR uni30D9
ENCODING 12505
SWIDTH 1000 0
DWIDTH 10 0
BBX 9 8 0 0
BITMAP
0100
0480
0200
3000
4800
8400
0200
0180
ENDCHAR
STARTCHAR uni30DA
ENCODING 12506
SWIDTH 1000 0
DWIDTH 10 0
BBX 9 8 0 0
BITMAP
0300
0480
0480
3300
4800
8400
0200
0180
ENDCHAR
STARTCHAR uni30DB
ENCODING 12507
SWIDTH 1000 0
DWIDTH 10 0
BBX 9 10 0 -1
BITMAP
0800
0800
0800
FF80
0800
0800
4900
8880
0800
1800
ENDCHAR
STARTCHAR uni30DC
ENCODING 12508
SWIDTH 1000 0
DWIDTH 10 0
BBX 9 10 0 -1
BITMAP
0500
0A80
0800
FF80
0800
0800
4900
8880
0800
1800
ENDCHAR
STARTCHAR uni30DD
ENCODING 12509
SWIDTH 1000 0
DWIDTH 10 0
BBX 10 10 0 -1
BITMAP
0980
0A40
0A40
FF80
0800
0800
4900
8880
0800
1800
ENDCHAR
STARTCHAR uni30DE
ENCODING 12510
SWIDTH 1000 0
DWIDTH 10 0
BBX 8 8 1 -1
BITMAP
FF
01
02
44
28
10
08
04
ENDCHAR
STARTCHAR uni30DF
ENCODING 12511
SWIDTH 1000 0
DWIDTH 10 0
BBX 6 9 2 -1
BITMAP
E0
1C
00
60
18
00
00
E0
1C
ENDCHAR
STARTCHAR uni30E0
ENCODING 12512
SWIDTH 1000 0
DWIDTH 10 0
BBX 8 9 1 -1
BITMAP
20
20
20
42
42
42
8D
F1
01
ENDCHAR
STARTCHAR uni30E1
ENCODING 12513
SWIDTH 1000 0
DWIDTH 10 0
BBX 8 9 1 -1
BITMAP
02
02
22
12
0C
04
0A
31
C0
ENDCHAR
STARTCHAR uni30E2
ENCODING 12514
SWIDTH 1000 0
DWIDTH 10 0
BBX 9 8 0 -1
BITMAP
7F00
1000
1000
FF80
1000
1000
1000
0F00
ENDCHAR
STARTCHAR uni30E3
ENCODING 12515
SWIDTH 1000 0
DWIDTH 10 0
BBX 6 7 2 -1
BITMAP
40
40
5C
E4
28
20
20
ENDCHAR
STARTCHAR uni30E4
ENCODING 12516
SWIDTH 1000 0
DWIDTH 10 0
BBX 9 9 0 -1
BITMAP
1000
1380
1C80
F080
1100
0900
0800
0800
0800
ENDCHAR
STARTCHAR uni30E5
ENCODING 12517
SWIDTH 1000 0
DWIDTH 10 0
BBX 7 5 1 0
BITMAP
78
08
08
08
FE
ENDCHAR
STARTCHAR uni30E6
ENCODING 12518
SWIDTH 1000 0
DWIDTH 10 0
BBX 9 7 0 0
BITMAP
7E00
0200
0200
0200
0200
0200
FF80
ENDCHAR
STARTCHAR uni30E7
ENCODING 12519
SWIDTH 1000 0
DWIDTH 10 0
BBX 5 5 2 -1
BITMAP
F8
08
F8
08
F8
ENDCHAR
STARTCHAR uni30E8
ENCODING 12520
SWIDTH 1000 0
DWIDTH 10 0
BBX 7 8 1 -1
BITMAP
FE
02
02
FE
02
02
FE
02
ENDCHAR
STARTCHAR uni30E9
ENCODING 12521
SWIDTH 1000 0
DWIDTH 10 0
BBX 8 9 1 -1
BITMAP
7E
00
00
FF
01
01
02
0C
30
ENDCHAR
STARTCHAR uni30EA
ENCODING 12522
SWIDTH 1000 0
DWIDTH 10 0
BBX 5 9 2 -1
BITMAP
88
88
88
88
88
08
08
10
60
ENDCHAR
STARTCHAR uni30EB
ENCODING 12523
SWIDTH 1000 0
DWIDTH 10 0
BBX 9 9 0 -1
BITMAP
0800
4800
4800
4880
4880
4900
4900
8A00
8C00
ENDCHAR
STARTCHAR uni30EC
ENCODING 12524
SWIDTH 1000 0
DWIDTH 10 0
BBX 7 9 2 -1
BITMAP
80
80
80
80
80
82
84
98
E0
ENDCHAR
STARTCHAR uni30ED
ENCODING 12525
SWIDTH 1000 0
DWIDTH 10 0
BBX 8 8 1 -1
BITMAP
FF
81
81
81
81
81
FF
81
ENDCHAR
STARTCHAR uni30EE
ENCODING 12526
SWIDTH 1000 0
DWIDTH 10 0
BBX 6 6 2 -1
BITMAP
FC
84
84
04
08
30
ENDCHAR
STARTCHAR uni30EF
ENCODING 12527
SWIDTH 1000 0
DWIDTH 10 0
BBX 8 8 1 -1
BITMAP
FF
81
81
81
02
02
0C
30
ENDCHAR
STARTCHAR uni30F0
ENCODING 12528
SWIDTH 1000 0
DWIDTH 10 0
BBX 9 9 0 -1
BITMAP
0400
0400
7F00
2400
2400
2400
FF80
0400
0400
ENDCHAR
STARTCHAR uni30F1
ENCODING 12529
SWIDTH 1000 0
DWIDTH 10 0
BBX 9 7 0 0
BITMAP
7F00
0100
0200
0C00
0800
0800
FF80
ENDCHAR
STARTCHAR uni30F2
ENCODING 12530
SWIDTH 1000 0
DWIDTH 10 0
BBX 7 8 1 -1
BITMAP
FE
02
02
FE
02
04
18
60
ENDCHAR
STARTCHAR uni30F3
ENCODING 12531
SWIDTH 1000 0
DWIDTH 10 0
BBX 8 8 1 -1
BITMAP
C0
31
01
02
02
04
18
60
ENDCHAR
STARTCHAR uni30F4
ENCODING 12532
SWIDTH 1000 0
DWIDTH 10 0
BBX 9 10 0 -1
BITMAP
1100
1480
1200
FF00
8100
8100
0200
0200
0C00
3000
ENDCHAR
STARTCHAR uni30F5
ENCODING 12533
SWIDTH 1000 0
DWIDTH 10 0
BBX 7 7 1 -1
BITMAP
10
10
FE
22
22
42
4C
ENDCHAR
STARTCHAR uni30F6
ENCODING 12534
SWIDTH 1000 0
DWIDTH 10 0
BBX 7 7 1 -1
BITMAP
40
40
7E
88
08
10
60
ENDCHAR
STARTCHAR uni30FB
ENCODING 12539
SWIDTH 1000 0
DWIDTH 10 0
BBX 2 2 3 2
BITMAP
C0
C0
ENDCHAR
STARTCHAR uni30FC
ENCODING 12540
SWIDTH 1000 0
DWIDTH 10 0
BBX 8 2 1 3
BITMAP
80
7F
ENDCHAR
STARTCHAR uni30FD
ENCODING 12541
SWIDTH 1000 0
DWIDTH 10 0
BBX 4 5 2 1
BITMAP
80
40
20
10
10
ENDCHAR
STARTCHAR uni30FE
ENCODING 12542
SWIDTH 1000 0
DWIDTH 10 0
BBX 7 7 2 1
BITMAP
04
12
88
40
20
10
10
ENDCHAR
STARTCHAR uni3231
ENCODING 12849
SWIDTH 915 0
DWIDTH 10 0
BBX 9 9 0 -1
BITMAP
6500
B480
FF80
A480
BF80
E480
AE80
B580
6500
ENDCHAR
STARTCHAR uni3232
ENCODING 12850
SWIDTH 915 0
DWIDTH 10 0
BBX 9 9 0 -1
BITMAP
4900
BE80
8880
9E80
B280
DE80
9280
9E80
5300
ENDCHAR
STARTCHAR uni3239
ENCODING 12857
SWIDTH 915 0
DWIDTH 10 0
BBX 9 9 0 -1
BITMAP
5500
9580
A480
BF80
E480
A480
A480
A280
6300
ENDCHAR
STARTCHAR uni32A4
ENCODING 12964
SWIDTH 915 0
DWIDTH 10 0
BBX 9 9 0 -1
BITMAP
3E00
4900
8880
8E80
8880
8880
BE80
4100
3E00
ENDCHAR
STARTCHAR uni32A5
ENCODING 12965
SWIDTH 915 0
DWIDTH 10 0
BBX 9 9 0 -1
BITMAP
3E00
4900
BE80
AA80
AA80
BE80
8880
4900
3E00
ENDCHAR
STARTCHAR uni32A6
ENCODING 12966
SWIDTH 915 0
DWIDTH 10 0
BBX 9 9 0 -1
BITMAP
3E00
4100
BE80
8880
8C80
8A80
8880
4900
3E00
ENDCHAR
STARTCHAR uni32A7
ENCODING 12967
SWIDTH 915 0
DWIDTH 10 0
BBX 9 9 0 -1
BITMAP
3E00
5100
BE80
9080
AE80
C480
9E80
4100
3E00
ENDCHAR
STARTCHAR uni32A8
ENCODING 12968
SWIDTH 915 0
DWIDTH 10 0
BBX 9 9 0 -1
BITMAP
3E00
4900
BE80
9080
BE80
D280
9E80
4100
3E00
ENDCHAR
STARTCHAR uni3303
ENCODING 13059
SWIDTH 1000 0
DWIDTH 10 0
BBX 9 9 0 -1
BITMAP
F800
0800
2000
2780
C000
1000
5200
5200
9C00
ENDCHAR
STARTCHAR uni330D
ENCODING 13069
SWIDTH 1000 0
DWIDTH 10 0
BBX 9 9 0 -1
BITMAP
4380
FA80
4A80
9A80
0380
9000
9000
1780
6000
ENDCHAR
STARTCHAR uni3314
ENCODING 13076
SWIDTH 1000 0
DWIDTH 10 0
BBX 9 9 0 -1
BITMAP
2000
F800
2000
F800
1780
1480
0480
0480
0780
ENDCHAR
STARTCHAR uni3318
ENCODING 13080
SWIDTH 1000 0
DWIDTH 10 0
BBX 9 9 0 -1
BITMAP
5B80
7000
9780
1080
2080
CB00
0800
1100
1F00
ENDCHAR
STARTCHAR uni3322
ENCODING 13090
SWIDTH 1000 0
DWIDTH 10 0
BBX 9 9 0 -1
BITMAP
4400
F200
5080
4080
3700
0200
0F80
0200
0400
ENDCHAR
STARTCHAR uni3323
ENCODING 13091
SWIDTH 1000 0
DWIDTH 10 0
BBX 9 9 0 -1
BITMAP
4400
F200
5080
4080
3700
1000
1E00
1000
1000
ENDCHAR
STARTCHAR uni3326
ENCODING 13094
SWIDTH 1000 0
DWIDTH 10 0
BBX 8 9 1 -1
BITMAP
A8
A8
80
F0
8A
8A
8A
12
13
ENDCHAR
STARTCHAR uni3327
ENCODING 13095
SWIDTH 1000 0
DWIDTH 10 0
BBX 9 9 0 -1
BITMAP
8000
8000
F000
8000
8800
8480
0080
0100
0E00
ENDCHAR
STARTCHAR uni332B
ENCODING 13099
SWIDTH 1000 0
DWIDTH 10 0
BBX 9 10 0 -1
BITMAP
1000
A800
9380
9000
0000
9900
E100
A580
8500
D900
ENDCHAR
STARTCHAR uni3336
ENCODING 13110
SWIDTH 1000 0
DWIDTH 10 0
BBX 9 9 0 -1
BITMAP
6380
9280
0880
0300
E000
A500
FD00
2500
C580
ENDCHAR
STARTCHAR uni333B
ENCODING 13115
SWIDTH 1000 0
DWIDTH 10 0
BBX 9 10 0 -1
BITMAP
0800
1400
6800
9380
0800
C280
0A80
C800
1000
E000
ENDCHAR
STARTCHAR uni3349
ENCODING 13129
SWIDTH 1000 0
DWIDTH 10 0
BBX 9 9 0 -1
BITMAP
C000
3000
C000
3480
C480
3480
0480
0080
0300
ENDCHAR
STARTCHAR uni334A
ENCODING 13130
SWIDTH 1000 0
DWIDTH 10 0
BBX 9 9 0 -1
BITMAP
F480
0480
F480
0080
F300
5500
A500
BD00
A580
ENDCHAR
STARTCHAR uni334D
ENCODING 13133
SWIDTH 1000 0
DWIDTH 10 0
BBX 9 9 0 -1
BITMAP
1000
5780
3000
C800
0000
8500
F500
8500
8980
ENDCHAR
STARTCHAR uni3351
ENCODING 13137
SWIDTH 1000 0
DWIDTH 10 0
BBX 9 9 0 -1
BITMAP
9680
9680
1080
6300
0000
8500
F500
8500
8980
ENDCHAR
STARTCHAR uni3357
ENCODING 13143
SWIDTH 1000 0
DWIDTH 10 0
BBX 9 9 0 -1
BITMAP
F800
8800
0E80
7680
0080
4700
7800
4000
4000
ENDCHAR
STARTCHAR uni337B
ENCODING 13179
SWIDTH 915 0
DWIDTH 10 0
BBX 9 10 0 -1
BITMAP
0200
FA80
2F80
AA00
AA80
2E80
FB00
2B00
2E80
2880
ENDCHAR
STARTCHAR uni337C
ENCODING 13180
SWIDTH 915 0
DWIDTH 10 0
BBX 9 9 0 -1
BITMAP
7F00
2A00
EF80
BA80
E280
BE80
AA80
EA80
3B80
ENDCHAR
STARTCHAR uni337D
ENCODING 13181
SWIDTH 915 0
DWIDTH 10 0
BBX 9 9 0 -1
BITMAP
2F80
2100
F900
2500
2580
5500
5500
9500
9780
ENDCHAR
STARTCHAR uni337E
ENCODING 13182
SWIDTH 915 0
DWIDTH 10 0
BBX 9 9 0 -1
BITMAP
3900
EE00
BA80
EB80
AC00
BB80
EA80
4E80
5B80
ENDCHAR
STARTCHAR uni338E
ENCODING 13198
SWIDTH 915 0
DWIDTH 10 0
BBX 9 8 0 -1
BITMAP
0080
F700
A880
AF00
A800
AF00
A880
0700
ENDCHAR
STARTCHAR uni338F
ENCODING 13199
SWIDTH 915 0
DWIDTH 10 0
BBX 9 10 0 -1
BITMAP
8000
8000
8080
9700
A880
C700
A800
9700
8880
0700
ENDCHAR
STARTCHAR uni339C
ENCODING 13212
SWIDTH 1000 0
DWIDTH 10 0
BBX 9 6 0 0
BITMAP
F700
AA80
AA80
AA80
AA80
AA80
ENDCHAR
STARTCHAR uni339D
ENCODING 13213
SWIDTH 1000 0
DWIDTH 10 0
BBX 9 6 0 0
BITMAP
6F00
8A80
8A80
8A80
8A80
6A80
ENDCHAR
STARTCHAR uni339E
ENCODING 13214
SWIDTH 1000 0
DWIDTH 10 0
BBX 9 8 0 0
BITMAP
8000
8000
9F00
AA80
CA80
AA80
9A80
8A80
ENDCHAR
STARTCHAR uni33A1
ENCODING 13217
SWIDTH 915 0
DWIDTH 10 0
BBX 9 8 0 0
BITMAP
0300
0080
F100
AA00
AB80
A800
A800
A800
ENDCHAR
STARTCHAR uni33C4
ENCODING 13252
SWIDTH 1000 0
DWIDTH 10 0
BBX 9 6 0 0
BITMAP
6300
9480
8400
8400
8400
7380
ENDCHAR
STARTCHAR uni33CD
ENCODING 13261
SWIDTH 915 0
DWIDTH 10 0
BBX 9 8 0 0
BITMAP
9480
9480
A500
C600
A500
A500
9480
9480
ENDCHAR
STARTCHAR uni4E00
ENCODING 19968
SWIDTH 1000 0
DWIDTH 10 0
BBX 9 1 0 3
BITMAP
FF80
ENDCHAR
STARTCHAR uni4E01
ENCODING 19969
SWIDTH 1000 0
DWIDTH 10 0
BBX 9 9 0 -1
BITMAP
FF80
0800
0800
0800
0800
0800
0800
0800
3800
ENDCHAR
STARTCHAR uni4E03
ENCODING 19971
SWIDTH 1000 0
DWIDTH 10 0
BBX 9 10 0 -1
BITMAP
1000
1000
1000
1180
1E00
F000
1000
1080
1080
0F80
ENDCHAR
STARTCHAR uni4E07
ENCODING 19975
SWIDTH 1000 0
DWIDTH 10 0
BBX 9 9 0 -1
BITMAP
FF80
1000
1000
1F00
2100
2100
4100
4200
0C00
ENDCHAR
STARTCHAR uni4E08
ENCODING 19976
SWIDTH 1000 0
DWIDTH 10 0
BBX 9 10 0 -1
BITMAP
0400
0400
0400
FF80
0400
2400
1400
0800
3600
C180
ENDCHAR
STARTCHAR uni4E09
ENCODING 19977
SWIDTH 1000 0
DWIDTH 10 0
BBX 9 9 0 -1
BITMAP
7F00
0000
0000
0000
3E00
0000
0000
0000
FF80
ENDCHAR
STARTCHAR uni4E0A
ENCODING 19978
SWIDTH 1000 0
DWIDTH 10 0
BBX 9 10 0 -1
BITMAP
0800
0800
0800
0800
0F00
0800
0800
0800
0800
FF80
ENDCHAR
STARTCHAR uni4E0B
ENCODING 19979
SWIDTH 1000 0
DWIDTH 10 0
BBX 9 9 0 -1
BITMAP
FF80
0800
0800
0C00
0A00
0900
0800
0800
0800
ENDCHAR
STARTCHAR uni4E0D
ENCODING 19981
SWIDTH 1000 0
DWIDTH 10 0
BBX 9 9 0 -1
BITMAP
FF80
0200
0400
0800
3A00
C900
0880
0800
0800
ENDCHAR
STARTCHAR uni4E0E
ENCODING 19982
SWIDTH 1000 0
DWIDTH 10 0
BBX 9 10 0 -1
BITMAP
2000
2000
3F00
2000
3F00
0100
FF80
0100
0200
3C00
ENDCHAR
STARTCHAR uni4E10
ENCODING 19984
SWIDTH 1000 0
DWIDTH 10 0
BBX 9 9 0 -1
BITMAP
FF80
0800
4F00
4800
4800
FF80
8080
0100
0600
ENDCHAR
STARTCHAR uni4E11
ENCODING 19985
SWIDTH 1000 0
DWIDTH 10 0
BBX 9 9 0 -1
BITMAP
7E00
1200
1200
1200
FF80
2200
2200
2200
FF80
ENDCHAR
STARTCHAR uni4E14
ENCODING 19988
SWIDTH 1000 0
DWIDTH 10 0
BBX 8 9 1 -1
BITMAP
7E
42
7E
42
42
7E
42
42
FF
ENDCHAR
STARTCHAR uni4E15
ENCODING 19989
SWIDTH 1000 0
DWIDTH 10 0
BBX 9 9 0 -1
BITMAP
FF80
0400
0800
3A00
C900
0880
0800
0000
FF80
ENDCHAR
STARTCHAR uni4E16
ENCODING 19990
SWIDTH 1000 0
DWIDTH 10 0
BBX 9 10 0 -1
BITMAP
0800
4900
4900
FF80
4900
4900
4F00
4000
4000
7F80
ENDCHAR
STARTCHAR uni4E17
ENCODING 19991
SWIDTH 1000 0
DWIDTH 10 0
BBX 9 9 0 -1
BITMAP
4900
4900
4900
FF80
4900
4900
4900
4900
7F00
ENDCHAR
STARTCHAR uni4E18
ENCODING 19992
SWIDTH 1000 0
DWIDTH 10 0
BBX 9 9 0 -1
BITMAP
0600
3800
2000
3F00
2200
2200
2200
2200
FF80
ENDCHAR
STARTCHAR uni4E19
ENCODING 19993
SWIDTH 1000 0
DWIDTH 10 0
BBX 9 9 0 -1
BITMAP
FF80
0800
FF80
8880
9480
A280
C180
8080
8180
ENDCHAR
STARTCHAR uni4E1E
ENCODING 19998
SWIDTH 1000 0
DWIDTH 10 0
BBX 9 9 0 -1
BITMAP
7F00
0400
0880
ED00
2A00
4900
9880
0000
FF80
ENDCHAR
STARTCHAR uni4E21
ENCODING 20001
SWIDTH 1000 0
DWIDTH 10 0
BBX 9 9 0 -1
BITMAP
FF80
0800
FF80
8880
AA80
AA80
BE80
8080
8180
ENDCHAR
STARTCHAR uni4E26
ENCODING 20006
SWIDTH 1000 0
DWIDTH 10 0
BBX 9 10 0 -1
BITMAP
2200
1400
0000
FF80
1400
9480
5500
1400
1400
FF80
ENDCHAR
STARTCHAR uni4E2A
ENCODING 20010
SWIDTH 1000 0
DWIDTH 10 0
BBX 9 9 0 -1
BITMAP
1C00
2200
4900
8880
0800
0800
0800
0800
0800
ENDCHAR
STARTCHAR uni4E2D
ENCODING 20013
SWIDTH 1000 0
DWIDTH 10 0
BBX 9 10 0 -1
BITMAP
0800
0800
FF80
8880
8880
8880
FF80
0800
0800
0800
ENDCHAR
STARTCHAR uni4E31
ENCODING 20017
SWIDTH 1000 0
DWIDTH 10 0
BBX 9 10 0 -1
BITMAP
0400
1400
9400
9480
9480
9480
F780
9480
1400
6400
ENDCHAR
STARTCHAR uni4E32
ENCODING 20018
SWIDTH 1000 0
DWIDTH 10 0
BBX 9 10 0 -1
BITMAP
0800
0800
7F00
4900
7F00
0800
FF80
8880
FF80
0800
ENDCHAR
STARTCHAR uni4E36
ENCODING 20022
SWIDTH 1000 0
DWIDTH 10 0
BBX 5 3 2 2
BITMAP
C0
30
08
ENDCHAR
STARTCHAR uni4E38
ENCODING 20024
SWIDTH 1000 0
DWIDTH 10 0
BBX 9 10 0 -1
BITMAP
1000
1000
1000
FE00
1200
5200
3200
1280
2A80
C380
ENDCHAR
STARTCHAR uni4E39
ENCODING 20025
SWIDTH 1000 0
DWIDTH 10 0
BBX 9 9 0 -1
BITMAP
7F00
4100
5100
4900
FF80
4100
4100
8100
8700
ENDCHAR
STARTCHAR uni4E3B
ENCODING 20027
SWIDTH 1000 0
DWIDTH 10 0
BBX 9 10 0 -1
BITMAP
1000
0800
0000
FF80
0800
0800
7F00
0800
0800
FF80
ENDCHAR
STARTCHAR uni4E3C
ENCODING 20028
SWIDTH 1000 0
DWIDTH 10 0
BBX 9 10 0 -1
BITMAP
2200
2200
FF80
2200
3200
2A00
2200
FF80
4200
4200
ENDCHAR
STARTCHAR uni4E3F
ENCODING 20031
SWIDTH 1000 0
DWIDTH 10 0
BBX 5 9 1 -1
BITMAP
08
08
08
08
08
10
10
20
C0
ENDCHAR
STARTCHAR uni4E42
ENCODING 20034
SWIDTH 1000 0
DWIDTH 10 0
BBX 9 9 0 -1
BITMAP
0200
2200
2200
1400
1400
0800
1400
2200
C180
ENDCHAR
STARTCHAR uni4E43
ENCODING 20035
SWIDTH 1000 0
DWIDTH 10 0
BBX 9 9 0 -1
BITMAP
FE00
1200
1200
1380
1080
2080
2080
4100
8600
ENDCHAR
STARTCHAR uni4E45
ENCODING 20037
SWIDTH 1000 0
DWIDTH 10 0
BBX 9 10 0 -1
BITMAP
1000
1000
1F00
1100
2100
4200
0400
0A00
3100
C080
ENDCHAR
STARTCHAR uni4E4B
ENCODING 20043
SWIDTH 1000 0
DWIDTH 10 0
BBX 9 10 0 -1
BITMAP
0800
0800
0800
7F00
0100
0200
4400
4800
B000
8F80
ENDCHAR
STARTCHAR uni4E4D
ENCODING 20045
SWIDTH 1000 0
DWIDTH 10 0
BBX 9 10 0 -1
BITMAP
2000
2000
3F80
4800
4F00
8800
8800
0F80
0800
0800
ENDCHAR
STARTCHAR uni4E4E
ENCODING 20046
SWIDTH 1000 0
DWIDTH 10 0
BBX 9 9 0 -1
BITMAP
0700
F800
4900
2A00
0800
FF80
0800
0800
1800
ENDCHAR
STARTCHAR uni4E4F
ENCODING 20047
SWIDTH 1000 0
DWIDTH 10 0
BBX 9 9 0 -1
BITMAP
0700
7800
0800
FF00
0200
4400
4800
B000
8F80
ENDCHAR
STARTCHAR uni4E55
ENCODING 20053
SWIDTH 1000 0
DWIDTH 10 0
BBX 9 9 0 -1
BITMAP
0380
7C00
4400
7F80
4400
7F80
5480
9480
9580
ENDCHAR
STARTCHAR uni4E56
ENCODING 20054
SWIDTH 1000 0
DWIDTH 10 0
BBX 9 9 0 -1
BITMAP
7F00
0800
FF80
2A00
EA80
2B00
6A00
AB80
0800
ENDCHAR
STARTCHAR uni4E57
ENCODING 20055
SWIDTH 1000 0
DWIDTH 10 0
BBX 9 9 0 -1
BITMAP
7F00
0800
FF80
4900
FF80
4900
FF80
2A00
C980
ENDCHAR
STARTCHAR uni4E58
ENCODING 20056
SWIDTH 1000 0
DWIDTH 10 0
BBX 9 9 0 -1
BITMAP
7F00
0800
FF80
2A80
EB00
2A00
DD80
2A00
C980
ENDCHAR
STARTCHAR uni4E59
ENCODING 20057
SWIDTH 1000 0
DWIDTH 10 0
BBX 8 9 1 -1
BITMAP
FE
04
08
10
20
41
81
81
7E
ENDCHAR
STARTCHAR uni4E5D
ENCODING 20061
SWIDTH 1000 0
DWIDTH 10 0
BBX 9 10 0 -1
BITMAP
1000
1000
1000
FE00
1200
1200
1280
2280
2280
C380
ENDCHAR
STARTCHAR uni4E5E
ENCODING 20062
SWIDTH 1000 0
DWIDTH 10 0
BBX 9 10 0 -1
BITMAP
4000
4000
7F80
4000
BF00
8800
1000
2080
4080
7F00
ENDCHAR
STARTCHAR uni4E5F
ENCODING 20063
SWIDTH 1000 0
DWIDTH 10 0
BBX 9 10 0 -1
BITMAP
0800
0800
2B00
2D00
3900
E900
2B00
2800
2080
3F80
ENDCHAR
STARTCHAR uni4E62
ENCODING 20066
SWIDTH 1000 0
DWIDTH 10 0
BBX 9 10 0 -1
BITMAP
0400
2400
2400
A400
A400
A400
A400
A480
F480
0780
ENDCHAR
STARTCHAR uni4E71
ENCODING 20081
SWIDTH 1000 0
DWIDTH 10 0
BBX 9 9 0 -1
BITMAP
1A00
E200
2200
FA00
2200
FA00
8A80
8A80
FB80
ENDCHAR
STARTCHAR uni4E73
ENCODING 20083
SWIDTH 1000 0
DWIDTH 10 0
BBX 9 9 0 -1
BITMAP
FA00
2A00
9200
4200
7A00
0A00
FE80
1280
7380
ENDCHAR
STARTCHAR uni4E7E
ENCODING 20094
SWIDTH 1000 0
DWIDTH 10 0
BBX 9 10 0 -1
BITMAP
0400
4400
F780
4800
F780
9100
F200
9480
F880
4F80
ENDCHAR
STARTCHAR uni4E80
ENCODING 20096
SWIDTH 1000 0
DWIDTH 10 0
BBX 9 9 0 -1
BITMAP
3E00
4400
FF00
4900
FF00
8900
FF00
8880
0F80
ENDCHAR
STARTCHAR uni4E82
ENCODING 20098
SWIDTH 1000 0
DWIDTH 10 0
BBX 9 9 0 -1
BITMAP
FD00
A900
7900
1100
FD00
A500
FD00
A500
D580
ENDCHAR
STARTCHAR uni4E85
ENCODING 20101
SWIDTH 1000 0
DWIDTH 10 0
BBX 3 9 2 -1
BITMAP
20
20
20
20
20
20
20
20
E0
ENDCHAR
STARTCHAR uni4E86
ENCODING 20102
SWIDTH 1000 0
DWIDTH 10 0
BBX 9 9 0 -1
BITMAP
FF80
0100
0200
0C00
0800
0800
0800
0800
3800
ENDCHAR
STARTCHAR uni4E88
ENCODING 20104
SWIDTH 1000 0
DWIDTH 10 0
BBX 9 9 0 -1
BITMAP
3E00
0200
0400
0800
FF80
0880
0900
0800
1800
ENDCHAR
STARTCHAR uni4E89
ENCODING 20105
SWIDTH 1000 0
DWIDTH 10 0
BBX 9 9 0 -1
BITMAP
3E00
4400
FF00
0900
FF80
0900
7F00
0800
1800
ENDCHAR
STARTCHAR uni4E8A
ENCODING 20106
SWIDTH 1000 0
DWIDTH 10 0
BBX 9 10 0 -1
BITMAP
0800
0800
FF80
4900
2A00
FF00
0980
FF00
0800
1800
ENDCHAR
STARTCHAR uni4E8B
ENCODING 20107
SWIDTH 1000 0
DWIDTH 10 0
BBX 9 10 0 -1
BITMAP
0800
0800
FF80
2A00
2A00
FF00
0980
FF00
0800
1800
ENDCHAR
STARTCHAR uni4E8C
ENCODING 20108
SWIDTH 1000 0
DWIDTH 10 0
BBX 9 7 0 0
BITMAP
7F00
0000
0000
0000
0000
0000
FF80
ENDCHAR
STARTCHAR uni4E8E
ENCODING 20110
SWIDTH 1000 0
DWIDTH 10 0
BBX 9 9 0 -1
BITMAP
7F00
0800
0800
0800
FF80
0800
0800
0800
1800
ENDCHAR
STARTCHAR uni4E91
ENCODING 20113
SWIDTH 1000 0
DWIDTH 10 0
BBX 9 9 0 -1
BITMAP
7F00
0000
0000
FF80
1000
1200
2200
4500
7900
ENDCHAR
STARTCHAR uni4E92
ENCODING 20114
SWIDTH 1000 0
DWIDTH 10 0
BBX 9 9 0 -1
BITMAP
FF80
1000
1E00
2200
2200
7E00
4400
0400
FF80
ENDCHAR
STARTCHAR uni4E94
ENCODING 20116
SWIDTH 1000 0
DWIDTH 10 0
BBX 9 9 0 -1
BITMAP
7F00
0800
0800
0800
7F00
1100
1100
1100
FF80
ENDCHAR
STARTCHAR uni4E95
ENCODING 20117
SWIDTH 1000 0
DWIDTH 10 0
BBX 9 10 0 -1
BITMAP
2200
2200
2200
FF80
2200
2200
FF80
2200
4200
4200
ENDCHAR
STARTCHAR uni4E98
ENCODING 20120
SWIDTH 1000 0
DWIDTH 10 0
BBX 9 9 0 -1
BITMAP
FF80
0000
3E00
2200
3E00
2200
3E00
0000
FF80
ENDCHAR
STARTCHAR uni4E99
ENCODING 20121
SWIDTH 1000 0
DWIDTH 10 0
BBX 9 9 0 -1
BITMAP
FF80
1000
1E00
2200
3A00
4200
7400
0400
FF80
ENDCHAR
STARTCHAR uni4E9B
ENCODING 20123
SWIDTH 1000 0
DWIDTH 10 0
BBX 9 10 0 -1
BITMAP
0400
2400
BF80
A400
BC80
E380
0000
7F00
0000
FF80
ENDCHAR
STARTCHAR uni4E9C
ENCODING 20124
SWIDTH 1000 0
DWIDTH 10 0
BBX 9 9 0 -1
BITMAP
FF80
1400
7F00
5500
5500
7F00
1400
1400
FF80
ENDCHAR
STARTCHAR uni4E9E
ENCODING 20126
SWIDTH 1000 0
DWIDTH 10 0
BBX 9 9 0 -1
BITMAP
FF80
1400
7700
4100
4100
7700
1400
1400
FF80
ENDCHAR
STARTCHAR uni4E9F
ENCODING 20127
SWIDTH 1000 0
DWIDTH 10 0
BBX 9 9 0 -1
BITMAP
FF80
1000
1F80
E880
AA80
AB00
EC80
1000
FF80
ENDCHAR
STARTCHAR uni4EA0
ENCODING 20128
SWIDTH 1000 0
DWIDTH 10 0
BBX 9 4 0 3
BITMAP
0800
0800
0800
FF80
ENDCHAR
STARTCHAR uni4EA1
ENCODING 20129
SWIDTH 1000 0
DWIDTH 10 0
BBX 9 10 0 -1
BITMAP
0800
0800
0800
FF80
4000
4000
4000
4000
4000
3F80
ENDCHAR
STARTCHAR uni4EA2
ENCODING 20130
SWIDTH 1000 0
DWIDTH 10 0
BBX 9 10 0 -1
BITMAP
0800
0800
FF80
0000
3E00
2200
2200
2200
4280
4380
ENDCHAR
STARTCHAR uni4EA4
ENCODING 20132
SWIDTH 1000 0
DWIDTH 10 0
BBX 9 10 0 -1
BITMAP
0800
0800
FF80
2200
4100
A280
1400
0800
3600
C180
ENDCHAR
STARTCHAR uni4EA5
ENCODING 20133
SWIDTH 1000 0
DWIDTH 10 0
BBX 9 10 0 -1
BITMAP
0800
0800
FF80
1200
2400
1900
6200
0400
1A00
E100
ENDCHAR
STARTCHAR uni4EA6
ENCODING 20134
SWIDTH 1000 0
DWIDTH 10 0
BBX 9 10 0 -1
BITMAP
0800
0800
0800
FF80
1200
1200
5300
9280
2200
2600
ENDCHAR
STARTCHAR uni4EA8
ENCODING 20136
SWIDTH 1000 0
DWIDTH 10 0
BBX 9 10 0 -1
BITMAP
0800
0800
FF80
2200
3E00
0000
FF80
0400
0800
1800
ENDCHAR
STARTCHAR uni4EAB
ENCODING 20139
SWIDTH 1000 0
DWIDTH 10 0
BBX 9 10 0 -1
BITMAP
0800
0800
FF80
2200
2200
7F00
0400
FF80
0800
1800
ENDCHAR
STARTCHAR uni4EAC
ENCODING 20140
SWIDTH 1000 0
DWIDTH 10 0
BBX 9 10 0 -1
BITMAP
0800
0800
FF80
0000
7F00
4100
7F00
0800
4900
9880
ENDCHAR
STARTCHAR uni4EAD
ENCODING 20141
SWIDTH 1000 0
DWIDTH 10 0
BBX 9 10 0 -1
BITMAP
0800
0800
FF80
2200
2200
FF80
8080
7F00
0800
1800
ENDCHAR
STARTCHAR uni4EAE
ENCODING 20142
SWIDTH 1000 0
DWIDTH 10 0
BBX 9 10 0 -1
BITMAP
0800
0800
FF80
2200
3E00
0000
FF80
9480
2400
C780
ENDCHAR
STARTCHAR uni4EB0
ENCODING 20144
SWIDTH 1000 0
DWIDTH 10 0
BBX 9 10 0 -1
BITMAP
0800
0800
FF80
2200
3E00
2200
3E00
0800
4900
9880
ENDCHAR
STARTCHAR uni4EB3
ENCODING 20147
SWIDTH 1000 0
DWIDTH 10 0
BBX 9 10 0 -1
BITMAP
0800
0800
FF80
2200
FF80
8480
7800
0F00
F880
0F80
ENDCHAR
STARTCHAR uni4EB6
ENCODING 20150
SWIDTH 1000 0
DWIDTH 10 0
BBX 9 10 0 -1
BITMAP
0800
0800
FF80
5D00
4100
7F00
2200
3E00
2200
FF80
ENDCHAR
STARTCHAR uni4EBA
ENCODING 20154
SWIDTH 1000 0
DWIDTH 10 0
BBX 9 9 0 -1
BITMAP
0800
0800
0800
0800
1400
1400
2200
4100
8080
ENDCHAR
STARTCHAR uni4EC0
ENCODING 20160
SWIDTH 1000 0
DWIDTH 10 0
BBX 10 10 0 -1
BITMAP
0200
2200
2200
4200
DFC0
4200
4200
4200
4200
4200
ENDCHAR
STARTCHAR uni4EC1
ENCODING 20161
SWIDTH 1000 0
DWIDTH 10 0
BBX 9 9 0 -1
BITMAP
2000
2F80
4000
C000
4000
4000
4000
4000
4F80
ENDCHAR
STARTCHAR uni4EC2
ENCODING 20162
SWIDTH 1000 0
DWIDTH 10 0
BBX 9 10 0 -1
BITMAP
0400
2400
2400
5F80
C480
4480
4880
4880
5080
5300
ENDCHAR
STARTCHAR uni4EC4
ENCODING 20164
SWIDTH 1000 0
DWIDTH 10 0
BBX 9 9 0 -1
BITMAP
7F80
4000
4200
4200
4200
4200
8500
8880
3080
ENDCHAR
STARTCHAR uni4EC6
ENCODING 20166
SWIDTH 1000 0
DWIDTH 10 0
BBX 10 10 0 -1
BITMAP
0200
1200
1200
2200
6300
A280
2240
2200
2200
2200
ENDCHAR
STARTCHAR uni4EC7
ENCODING 20167
SWIDTH 1000 0
DWIDTH 10 0
BBX 9 10 1 -1
BITMAP
0800
4800
4800
7F00
8900
8900
9100
9100
A100
A180
ENDCHAR
STARTCHAR uni4ECA
ENCODING 20170
SWIDTH 1000 0
DWIDTH 10 0
BBX 9 9 0 -1
BITMAP
1C00
2200
4100
BE80
0000
7F00
0100
0200
1C00
ENDCHAR
STARTCHAR uni4ECB
ENCODING 20171
SWIDTH 1000 0
DWIDTH 10 0
BBX 9 9 0 -1
BITMAP
1C00
2200
4100
A280
2200
2200
2200
4200
4200
ENDCHAR
STARTCHAR uni4ECD
ENCODING 20173
SWIDTH 1000 0
DWIDTH 10 0
BBX 9 9 0 -1
BITMAP
3F00
2500
4500
C580
4480
4880
4880
5080
5300
ENDCHAR
STARTCHAR uni4ECE
ENCODING 20174
SWIDTH 1000 0
DWIDTH 10 0
BBX 9 9 0 -1
BITMAP
2200
2200
2200
2200
5500
5500
4500
8880
8880
ENDCHAR
STARTCHAR uni4ECF
ENCODING 20175
SWIDTH 1000 0
DWIDTH 10 0
BBX 9 9 0 -1
BITMAP
2400
2400
4400
C800
4900
4900
5100
5280
5C80
ENDCHAR
STARTCHAR uni4ED4
ENCODING 20180
SWIDTH 1000 0
DWIDTH 10 0
BBX 9 9 0 -1
BITMAP
2F80
2080
4100
C200
4200
5F80
4200
4200
4600
ENDCHAR
STARTCHAR uni4ED5
ENCODING 20181
SWIDTH 1000 0
DWIDTH 10 0
BBX 9 10 0 -1
BITMAP
0200
2200
2200
5F80
C200
4200
4200
4200
4200
5F80
ENDCHAR
STARTCHAR uni4ED6
ENCODING 20182
SWIDTH 1000 0
DWIDTH 10 0
BBX 9 10 0 -1
BITMAP
0200
2200
2A00
4B80
CE80
5A80
4A00
4800
4880
4F80
ENDCHAR
STARTCHAR uni4ED7
ENCODING 20183
SWIDTH 1000 0
DWIDTH 10 0
BBX 9 10 0 -1
BITMAP
0100
2100
2100
5F80
C100
4900
4500
4200
4500
5880
ENDCHAR
STARTCHAR uni4ED8
ENCODING 20184
SWIDTH 1000 0
DWIDTH 10 0
BBX 9 10 0 -1
BITMAP
0100
2100
2100
7F80
C100
5100
4900
4100
4100
4300
ENDCHAR
STARTCHAR uni4ED9
ENCODING 20185
SWIDTH 1000 0
DWIDTH 10 0
BBX 9 10 0 -1
BITMAP
0200
2200
2200
5280
D280
5280
5280
5280
5280
5F80
ENDCHAR
STARTCHAR uni4EDD
ENCODING 20189
SWIDTH 1000 0
DWIDTH 10 0
BBX 9 9 0 -1
BITMAP
1C00
2200
4100
8080
3E00
0800
0800
0800
7F00
ENDCHAR
STARTCHAR uni4EDE
ENCODING 20190
SWIDTH 1000 0
DWIDTH 10 0
BBX 9 9 0 -1
BITMAP
3F80
2480
4480
D480
5480
4880
4C80
5080
5300
ENDCHAR
STARTCHAR uni4EDF
ENCODING 20191
SWIDTH 1000 0
DWIDTH 10 0
BBX 9 9 0 -1
BITMAP
2180
2E00
4200
C200
5F80
4200
4200
4200
4200
ENDCHAR
STARTCHAR uni4EE3
ENCODING 20195
SWIDTH 1000 0
DWIDTH 10 0
BBX 9 10 0 -1
BITMAP
0500
2480
2400
5F80
C200
4200
4100
4100
4080
4080
ENDCHAR
STARTCHAR uni4EE4
ENCODING 20196
SWIDTH 1000 0
DWIDTH 10 0
BBX 9 9 0 -1
BITMAP
1E00
2100
4080
BF00
0000
7F80
0880
0880
0B00
ENDCHAR
STARTCHAR uni4EE5
ENCODING 20197
SWIDTH 1000 0
DWIDTH 10 0
BBX 9 9 0 -1
BITMAP
4100
5100
4900
4100
4100
5200
E200
0D00
3080
ENDCHAR
STARTCHAR uni4EED
ENCODING 20205
SWIDTH 1000 0
DWIDTH 10 0
BBX 9 9 0 -1
BITMAP
3F80
2480
5480
CC80
4480
4A80
4980
5080
5300
ENDCHAR
STARTCHAR uni4EEE
ENCODING 20206
SWIDTH 1000 0
DWIDTH 10 0
BBX 9 9 0 -1
BITMAP
2F80
2800
4800
CF80
4880
5480
5500
4300
4C80
ENDCHAR
STARTCHAR uni4EF0
ENCODING 20208
SWIDTH 1000 0
DWIDTH 10 0
BBX 9 9 0 -1
BITMAP
3B80
5280
D280
5280
5280
5280
5680
7B80
4200
ENDCHAR
STARTCHAR uni4EF2
ENCODING 20210
SWIDTH 1000 0
DWIDTH 10 0
BBX 9 10 0 -1
BITMAP
0200
2200
3F80
5280
D280
5280
5F80
4200
4200
4200
ENDCHAR
STARTCHAR uni4EF6
ENCODING 20214
SWIDTH 1000 0
DWIDTH 10 0
BBX 9 10 0 -1
BITMAP
0200
2A00
2F80
5200
D200
4200
5F80
4200
4200
4200
ENDCHAR
STARTCHAR uni4EF7
ENCODING 20215
SWIDTH 1000 0
DWIDTH 10 0
BBX 9 9 0 -1
BITMAP
2600
2900
5080
C000
4900
4900
4900
5100
5100
ENDCHAR
STARTCHAR uni4EFB
ENCODING 20219
SWIDTH 1000 0
DWIDTH 10 0
BBX 9 9 0 -1
BITMAP
2180
3E00
4200
C200
5F80
4200
4200
4200
5F80
ENDCHAR
STARTCHAR uni4F01
ENCODING 20225
SWIDTH 1000 0
DWIDTH 10 0
BBX 9 9 0 -1
BITMAP
1C00
2200
4900
8880
0E00
2800
2800
2800
FF80
ENDCHAR
STARTCHAR uni4F09
ENCODING 20233
SWIDTH 1000 0
DWIDTH 10 0
BBX 9 10 0 -1
BITMAP
0200
2200
3F80
4000
CF00
4900
4900
4900
5100
5180
ENDCHAR
STARTCHAR uni4F0A
ENCODING 20234
SWIDTH 1000 0
DWIDTH 10 0
BBX 9 9 0 -1
BITMAP
2F80
2280
5F80
C280
4280
4F80
4200
4200
4C00
ENDCHAR
STARTCHAR uni4F0D
ENCODING 20237
SWIDTH 1000 0
DWIDTH 10 0
BBX 9 9 0 -1
BITMAP
3F80
2400
4400
C400
5F80
4880
4880
4880
7F80
ENDCHAR
STARTCHAR uni4F0E
ENCODING 20238
SWIDTH 1000 0
DWIDTH 10 0
BBX 9 10 0 -1
BITMAP
0200
2200
3F80
4200
C200
5F80
4880
4900
4600
5980
ENDCHAR
STARTCHAR uni4F0F
ENCODING 20239
SWIDTH 1000 0
DWIDTH 10 0
BBX 9 10 0 -1
BITMAP
0200
2280
2280
5F80
C200
4200
4200
4500
4880
7080
ENDCHAR
STARTCHAR uni4F10
ENCODING 20240
SWIDTH 1000 0
DWIDTH 10 0
BBX 9 10 0 -1
BITMAP
0200
2280
2280
5F80
C200
4280
4300
4200
4500
5880
ENDCHAR
STARTCHAR uni4F11
ENCODING 20241
SWIDTH 1000 0
DWIDTH 10 0
BBX 9 10 0 -1
BITMAP
0200
2200
2200
5F80
C200
4600
4B00
5280
4200
4200
ENDCHAR
STARTCHAR uni4F1A
ENCODING 20250
SWIDTH 1000 0
DWIDTH 10 0
BBX 9 9 0 -1
BITMAP
1C00
2200
4100
BE80
0000
FF80
2200
4500
7900
ENDCHAR
STARTCHAR uni4F1C
ENCODING 20252
SWIDTH 1000 0
DWIDTH 10 0
BBX 9 10 0 -1
BITMAP
0400
2400
3F00
4500
C900
5180
4400
7F80
4400
4400
ENDCHAR
STARTCHAR uni4F1D
ENCODING 20253
SWIDTH 1000 0
DWIDTH 10 0
BBX 9 9 0 -1
BITMAP
2F80
2000
4000
DF80
4400
4900
4900
5280
5C80
ENDCHAR
STARTCHAR uni4F2F
ENCODING 20271
SWIDTH 1000 0
DWIDTH 10 0
BBX 9 10 0 -1
BITMAP
0200
2200
2400
5F80
D080
5080
5F80
5080
5080
5F80
ENDCHAR
STARTCHAR uni4F30
ENCODING 20272
SWIDTH 1000 0
DWIDTH 10 0
BBX 9 10 0 -1
BITMAP
0200
2200
2200
5F80
C200
4200
5F80
5080
5080
5F80
ENDCHAR
STARTCHAR uni4F34
ENCODING 20276
SWIDTH 1000 0
DWIDTH 10 0
BBX 9 10 0 -1
BITMAP
0200
2200
2A80
4B00
C200
5F80
4200
5F80
4200
4200
ENDCHAR
STARTCHAR uni4F36
ENCODING 20278
SWIDTH 1000 0
DWIDTH 10 0
BBX 9 9 0 -1
BITMAP
2700
2880
5000
CF80
4000
5F80
4480
4480
4580
ENDCHAR
STARTCHAR uni4F38
ENCODING 20280
SWIDTH 1000 0
DWIDTH 10 0
BBX 9 10 0 -1
BITMAP
0200
2200
3F80
5280
DF80
5280
5280
5F80
4200
4200
ENDCHAR
STARTCHAR uni4F3A
ENCODING 20282
SWIDTH 1000 0
DWIDTH 10 0
BBX 9 9 0 -1
BITMAP
3F80
2080
5E80
C080
5E80
5280
5280
5E80
4180
ENDCHAR
STARTCHAR uni4F3C
ENCODING 20284
SWIDTH 1000 0
DWIDTH 10 0
BBX 9 9 0 -1
BITMAP
2880
2C80
4A80
C880
4880
4D00
7100
4280
4C80
ENDCHAR
STARTCHAR uni4F3D
ENCODING 20285
SWIDTH 1000 0
DWIDTH 10 0
BBX 9 10 0 -1
BITMAP
0800
2B80
2A80
5E80
CA80
4A80
5280
5280
4280
4F80
ENDCHAR
STARTCHAR uni4F43
ENCODING 20291
SWIDTH 1000 0
DWIDTH 10 0
BBX 9 9 0 -1
BITMAP
1F80
3280
5280
D280
5F80
5280
5280
5280
5F80
ENDCHAR
STARTCHAR uni4F46
ENCODING 20294
SWIDTH 1000 0
DWIDTH 10 0
BBX 9 9 0 -1
BITMAP
2F80
2880
4880
CF80
4880
4880
4F80
4000
5F80
ENDCHAR
STARTCHAR uni4F47
ENCODING 20295
SWIDTH 1000 0
DWIDTH 10 0
BBX 9 10 0 -1
BITMAP
0200
2200
3F80
5080
C000
5F80
4200
4200
4200
4600
ENDCHAR
STARTCHAR uni4F4D
ENCODING 20301
SWIDTH 1000 0
DWIDTH 10 0
BBX 9 10 0 -1
BITMAP
0400
2400
3F80
4000
C900
4900
4900
4A00
4200
5F80
ENDCHAR
STARTCHAR uni4F4E
ENCODING 20302
SWIDTH 1000 0
DWIDTH 10 0
BBX 9 9 0 -1
BITMAP
2F80
2900
4900
CF80
4900
4880
4C80
4000
5F80
ENDCHAR
STARTCHAR uni4F4F
ENCODING 20303
SWIDTH 1000 0
DWIDTH 10 0
BBX 9 10 0 -1
BITMAP
0400
2200
2000
5F80
C200
4200
5F80
4200
4200
5F80
ENDCHAR
STARTCHAR uni4F50
ENCODING 20304
SWIDTH 1000 0
DWIDTH 10 0
BBX 9 10 0 -1
BITMAP
0400
2400
3F80
4800
C800
4F80
5200
5200
4200
5F80
ENDCHAR
STARTCHAR uni4F51
ENCODING 20305
SWIDTH 1000 0
DWIDTH 10 0
BBX 9 10 0 -1
BITMAP
0200
2200
3F80
4400
C400
4F80
5880
6880
4880
4F80
ENDCHAR
STARTCHAR uni4F53
ENCODING 20307
SWIDTH 1000 0
DWIDTH 10 0
BBX 9 10 0 -1
BITMAP
0200
2200
2200
5F80
C200
4700
4A80
5200
4F80
4200
ENDCHAR
STARTCHAR uni4F55
ENCODING 20309
SWIDTH 1000 0
DWIDTH 10 0
BBX 9 9 0 -1
BITMAP
3F80
2080
5E80
D280
5280
5280
5E80
4080
4180
ENDCHAR
STARTCHAR uni4F57
ENCODING 20311
SWIDTH 1000 0
DWIDTH 10 0
BBX 9 10 0 -1
BITMAP
0400
2400
3F80
5080
C800
4980
4E00
4800
4880
4F80
ENDCHAR
STARTCHAR uni4F59
ENCODING 20313
SWIDTH 1000 0
DWIDTH 10 0
BBX 9 9 0 -1
BITMAP
1C00
2200
4100
BE80
0800
FF80
0800
4900
9880
ENDCHAR
STARTCHAR uni4F5A
ENCODING 20314
SWIDTH 1000 0
DWIDTH 10 0
BBX 9 10 0 -1
BITMAP
0200
2A00
2F80
4A00
C200
5F80
4200
4200
4500
5880
ENDCHAR
STARTCHAR uni4F5B
ENCODING 20315
SWIDTH 1000 0
DWIDTH 10 0
BBX 9 10 0 -1
BITMAP
0A00
2A00
3F80
4A80
DF80
4A00
7F80
4A80
5380
5200
ENDCHAR
STARTCHAR uni4F5C
ENCODING 20316
SWIDTH 1000 0
DWIDTH 10 0
BBX 9 10 0 -1
BITMAP
0800
2800
2F80
5400
D780
4400
4400
4780
4400
4400
ENDCHAR
STARTCHAR uni4F5D
ENCODING 20317
SWIDTH 1000 0
DWIDTH 10 0
BBX 9 10 0 -1
BITMAP
0800
2800
2F80
5080
DE80
4A80
4A80
4E80
4080
4300
ENDCHAR
STARTCHAR uni4F5E
ENCODING 20318
SWIDTH 1000 0
DWIDTH 10 0
BBX 9 9 0 -1
BITMAP
3F80
2000
5F80
C400
5F80
4900
4900
4E00
7180
ENDCHAR
STARTCHAR uni4F69
ENCODING 20329
SWIDTH 1000 0
DWIDTH 10 0
BBX 9 9 0 -1
BITMAP
3F80
6080
BE80
A880
BE80
AA80
AA80
AA80
A880
ENDCHAR
STARTCHAR uni4F6F
ENCODING 20335
SWIDTH 1000 0
DWIDTH 10 0
BBX 9 10 0 -1
BITMAP
0480
2500
2000
5F80
C200
5F80
4200
4200
5F80
4200
ENDCHAR
STARTCHAR uni4F70
ENCODING 20336
SWIDTH 1000 0
DWIDTH 10 0
BBX 9 9 0 -1
BITMAP
3F80
2200
4400
DF80
5080
5F80
5080
5080
5F80
ENDCHAR
STARTCHAR uni4F73
ENCODING 20339
SWIDTH 1000 0
DWIDTH 10 0
BBX 9 10 0 -1
BITMAP
0200
2200
2F80
4200
DF80
4200
4F80
4200
4200
5F80
ENDCHAR
STARTCHAR uni4F75
ENCODING 20341
SWIDTH 1000 0
DWIDTH 10 0
BBX 9 10 0 -1
BITMAP
0900
2A00
2000
7F80
C900
4900
7F80
4900
5100
5100
ENDCHAR
STARTCHAR uni4F76
ENCODING 20342
SWIDTH 1000 0
DWIDTH 10 0
BBX 9 10 0 -1
BITMAP
0200
2200
3F80
4200
CF80
4000
4F80
4880
4880
4F80
ENDCHAR
STARTCHAR uni4F7B
ENCODING 20347
SWIDTH 1000 0
DWIDTH 10 0
BBX 9 10 0 -1
BITMAP
0200
2A00
2A80
5B00
CA00
5B00
6A80
4A00
5280
6380
ENDCHAR
STARTCHAR uni4F7C
ENCODING 20348
SWIDTH 1000 0
DWIDTH 10 0
BBX 9 10 0 -1
BITMAP
0200
2200
3F80
4900
D080
6000
4900
4500
4600
5980
ENDCHAR
STARTCHAR uni4F7F
ENCODING 20351
SWIDTH 1000 0
DWIDTH 10 0
BBX 9 10 0 -1
BITMAP
0200
2200
3F80
4200
DF80
5280
5F80
4200
4500
5880
ENDCHAR
STARTCHAR uni4F83
ENCODING 20355
SWIDTH 1000 0
DWIDTH 10 0
BBX 9 9 0 -1
BITMAP
2F80
2880
4880
CF80
4000
4A80
4A80
5280
6280
ENDCHAR
STARTCHAR uni4F86
ENCODING 20358
SWIDTH 1000 0
DWIDTH 10 0
BBX 9 10 0 -1
BITMAP
0800
0800
FF80
2A00
2A00
5D00
8880
1C00
2A00
C980
ENDCHAR
STARTCHAR uni4F88
ENCODING 20360
SWIDTH 1000 0
DWIDTH 10 0
BBX 9 9 0 -1
BITMAP
2780
2880
4500
C200
4780
5880
4500
4600
5800
ENDCHAR
STARTCHAR uni4F8B
ENCODING 20363
SWIDTH 1000 0
DWIDTH 10 0
BBX 9 9 0 -1
BITMAP
7C80
5280
9A80
AA80
AA80
DA80
8A80
9080
E180
ENDCHAR
STARTCHAR uni4F8D
ENCODING 20365
SWIDTH 1000 0
DWIDTH 10 0
BBX 9 10 0 -1
BITMAP
0200
2200
2F80
4200
DF80
4080
5F80
4080
4880
4580
ENDCHAR
STARTCHAR uni4F8F
ENCODING 20367
SWIDTH 1000 0
DWIDTH 10 0
BBX 9 10 0 -1
BITMAP
0200
2A00
2F80
4A00
C200
5F80
4200
4700
4A80
5200
ENDCHAR
STARTCHAR uni4F91
ENCODING 20369
SWIDTH 1000 0
DWIDTH 10 0
BBX 9 10 0 -1
BITMAP
0200
2200
3F80
4400
CF80
5880
6F80
4880
4F80
4880
ENDCHAR
STARTCHAR uni4F96
ENCODING 20374
SWIDTH 1000 0
DWIDTH 10 0
BBX 9 9 0 -1
BITMAP
1E00
2100
7F80
8000
7F80
5480
7F80
5480
5580
ENDCHAR
STARTCHAR uni4F98
ENCODING 20376
SWIDTH 1000 0
DWIDTH 10 0
BBX 9 10 0 -1
BITMAP
0400
2400
3F80
4080
DF00
4400
4780
7C00
4480
4780
ENDCHAR
STARTCHAR uni4F9B
ENCODING 20379
SWIDTH 1000 0
DWIDTH 10 0
BBX 9 10 0 -1
BITMAP
0900
2900
2900
5F80
C900
4900
7F80
4000
4900
5080
ENDCHAR
STARTCHAR uni4F9D
ENCODING 20381
SWIDTH 1000 0
DWIDTH 10 0
BBX 9 10 0 -1
BITMAP
0400
2400
3F80
4400
CA80
4A80
5900
6900
4A80
5C80
ENDCHAR
STARTCHAR uni4FA0
ENCODING 20384
SWIDTH 1000 0
DWIDTH 10 0
BBX 9 10 0 -1
BITMAP
0200
2200
3F80
5280
CB00
4200
7F80
4200
4500
5880
ENDCHAR
STARTCHAR uni4FA1
ENCODING 20385
SWIDTH 1000 0
DWIDTH 10 0
BBX 9 9 0 -1
BITMAP
7F80
4A00
4A00
BF80
AA80
AA80
AA80
AA80
BF80
ENDCHAR
STARTCHAR uni4FAB
ENCODING 20395
SWIDTH 1000 0
DWIDTH 10 0
BBX 9 10 0 -1
BITMAP
0400
2400
3F80
4800
CF80
4400
7F80
4900
4E00
7180
ENDCHAR
STARTCHAR uni4FAD
ENCODING 20397
SWIDTH 1000 0
DWIDTH 10 0
BBX 9 9 0 -1
BITMAP
2F80
2880
4880
CF80
4900
5480
6280
4C00
4300
ENDCHAR
STARTCHAR uni4FAE
ENCODING 20398
SWIDTH 1000 0
DWIDTH 10 0
BBX 9 10 0 -1
BITMAP
0800
2800
2F80
5000
DF80
4A80
5F80
4A80
4A80
4F80
ENDCHAR
STARTCHAR uni4FAF
ENCODING 20399
SWIDTH 1000 0
DWIDTH 10 0
BBX 9 9 0 -1
BITMAP
2F80
2080
7F80
C800
4F80
5200
5F80
4500
5880
ENDCHAR
STARTCHAR uni4FB5
ENCODING 20405
SWIDTH 1000 0
DWIDTH 10 0
BBX 9 9 0 -1
BITMAP
2F80
2080
4F80
C080
5F80
4880
4900
4600
5980
ENDCHAR
STARTCHAR uni4FB6
ENCODING 20406
SWIDTH 1000 0
DWIDTH 10 0
BBX 9 9 0 -1
BITMAP
2F80
2880
4880
CF80
4400
5F80
5080
5080
5F80
ENDCHAR
STARTCHAR uni4FBF
ENCODING 20415
SWIDTH 1000 0
DWIDTH 10 0
BBX 9 9 0 -1
BITMAP
3F80
2200
5F80
D280
5F80
5280
5B80
4600
5980
ENDCHAR
STARTCHAR uni4FC2
ENCODING 20418
SWIDTH 1000 0
DWIDTH 10 0
BBX 9 9 0 -1
BITMAP
3F80
2480
4900
CA00
4480
5F80
4200
4A80
5280
ENDCHAR
STARTCHAR uni4FC3
ENCODING 20419
SWIDTH 1000 0
DWIDTH 10 0
BBX 9 9 0 -1
BITMAP
2F80
2880
4880
CF80
4200
5380
5200
5E00
6180
ENDCHAR
STARTCHAR uni4FC4
ENCODING 20420
SWIDTH 1000 0
DWIDTH 10 0
BBX 9 10 0 -1
BITMAP
0200
3E80
5280
D200
7F80
5200
5A80
7100
5280
5C80
ENDCHAR
STARTCHAR uni4FCA
ENCODING 20426
SWIDTH 1000 0
DWIDTH 10 0
BBX 9 10 0 -1
BITMAP
0400
2400
2880
5F80
C500
5980
4700
5900
4600
5980
ENDCHAR
STARTCHAR uni4FCE
ENCODING 20430
SWIDTH 1000 0
DWIDTH 10 0
BBX 9 9 0 -1
BITMAP
4F80
4880
AF80
9880
0880
4F80
4880
A880
9F80
ENDCHAR
STARTCHAR uni4FD0
ENCODING 20432
SWIDTH 1000 0
DWIDTH 10 0
BBX 9 9 0 -1
BITMAP
2680
3A80
4A80
FE80
4A80
5A80
6E80
4880
4980
ENDCHAR
STARTCHAR uni4FD1
ENCODING 20433
SWIDTH 1000 0
DWIDTH 10 0
BBX 9 9 0 -1
BITMAP
2F00
2100
5F80
D280
5F80
5280
5F80
5280
5280
ENDCHAR
STARTCHAR uni4FD4
ENCODING 20436
SWIDTH 1000 0
DWIDTH 10 0
BBX 9 9 0 -1
BITMAP
2F80
2880
4F80
C880
4880
4F80
4600
4A80
5380
ENDCHAR
STARTCHAR uni4FD7
ENCODING 20439
SWIDTH 1000 0
DWIDTH 10 0
BBX 9 9 0 -1
BITMAP
2900
3080
4600
C900
5080
6F80
4880
4880
4F80
ENDCHAR
STARTCHAR uni4FD8
ENCODING 20440
SWIDTH 1000 0
DWIDTH 10 0
BBX 9 9 0 -1
BITMAP
2F80
2900
5480
C200
4F00
4100
5F80
4200
4600
ENDCHAR
STARTCHAR uni4FDA
ENCODING 20442
SWIDTH 1000 0
DWIDTH 10 0
BBX 9 9 0 -1
BITMAP
1F80
3280
5F80
D280
5F80
4200
5F80
4200
5F80
ENDCHAR
STARTCHAR uni4FDB
ENCODING 20443
SWIDTH 1000 0
DWIDTH 10 0
BBX 9 9 0 -1
BITMAP
2F00
3100
5F80
D280
5280
5F80
4A00
5280
6380
ENDCHAR
STARTCHAR uni4FDD
ENCODING 20445
SWIDTH 1000 0
DWIDTH 10 0
BBX 9 9 0 -1
BITMAP
2F80
2880
4880
CF80
4200
5F80
4600
4A80
5280
ENDCHAR
STARTCHAR uni4FDF
ENCODING 20447
SWIDTH 1000 0
DWIDTH 10 0
BBX 9 10 0 -1
BITMAP
0400
2400
2880
5F80
C800
4F80
5200
5F80
4500
5880
ENDCHAR
STARTCHAR uni4FE1
ENCODING 20449
SWIDTH 1000 0
DWIDTH 10 0
BBX 9 9 0 -1
BITMAP
2F80
2000
5F80
C000
4F80
4000
4F80
4880
4F80
ENDCHAR
STARTCHAR uni4FE3
ENCODING 20451
SWIDTH 1000 0
DWIDTH 10 0
BBX 9 9 0 -1
BITMAP
2F80
2880
4F80
C000
4F80
4200
5F80
4500
5880
ENDCHAR
STARTCHAR uni4FE4
ENCODING 20452
SWIDTH 1000 0
DWIDTH 10 0
BBX 9 10 0 -1
BITMAP
0A00
2A00
3F80
4A80
DF80
4A00
7F80
4A80
5380
5200
ENDCHAR
STARTCHAR uni4FE5
ENCODING 20453
SWIDTH 1000 0
DWIDTH 10 0
BBX 9 10 0 -1
BITMAP
0200
2200
3F80
5280
DF80
5280
5F80
4200
5F80
4200
ENDCHAR
STARTCHAR uni4FEE
ENCODING 20462
SWIDTH 1000 0
DWIDTH 10 0
BBX 9 10 0 -1
BITMAP
0400
2400
2780
4880
D500
5600
5980
5600
5180
4E00
ENDCHAR
STARTCHAR uni4FEF
ENCODING 20463
SWIDTH 1000 0
DWIDTH 10 0
BBX 9 10 0 -1
BITMAP
0400
2400
3F80
5280
D780
5C80
5680
5580
6480
4580
ENDCHAR
STARTCHAR uni4FF3
ENCODING 20467
SWIDTH 1000 0
DWIDTH 10 0
BBX 9 10 0 -1
BITMAP
0A00
4A00
7B80
4A00
BB80
8A00
BA00
8B80
9200
9200
ENDCHAR
STARTCHAR uni4FF5
ENCODING 20469
SWIDTH 1000 0
DWIDTH 10 0
BBX 9 10 0 -1
BITMAP
0200
2200
3F80
4200
DF80
4200
7F80
4A80
7100
5C80
ENDCHAR
STARTCHAR uni4FF6
ENCODING 20470
SWIDTH 1000 0
DWIDTH 10 0
BBX 9 10 0 -1
BITMAP
1000
5380
5C80
9280
9280
FE80
9100
B500
D280
9C80
ENDCHAR
STARTCHAR uni4FF8
ENCODING 20472
SWIDTH 1000 0
DWIDTH 10 0
BBX 9 10 0 -1
BITMAP
0200
2200
3F80
4500
DF80
4A00
5F80
6200
5F80
4200
ENDCHAR
STARTCHAR uni4FFA
ENCODING 20474
SWIDTH 1000 0
DWIDTH 10 0
BBX 9 10 0 -1
BITMAP
0400
2400
3F80
4D00
D480
7F80
5480
5F80
5400
4780
ENDCHAR
STARTCHAR uni4FFE
ENCODING 20478
SWIDTH 1000 0
DWIDTH 10 0
BBX 9 10 0 -1
BITMAP
0200
2400
3F80
5280
DF80
5280
5F80
4900
7F80
4100
ENDCHAR
STARTCHAR uni5005
ENCODING 20485
SWIDTH 1000 0
DWIDTH 10 0
BBX 9 10 0 -1
BITMAP
0200
2200
3F80
4900
C900
5680
4200
5F80
4200
4200
ENDCHAR
STARTCHAR uni5006
ENCODING 20486
SWIDTH 1000 0
DWIDTH 10 0
BBX 9 9 0 -1
BITMAP
3F80
4400
BF80
A480
B680
B680
AD80
A480
A580
ENDCHAR
STARTCHAR uni5009
ENCODING 20489
SWIDTH 1000 0
DWIDTH 10 0
BBX 9 9 0 -1
BITMAP
1E00
2100
7F80
A100
3F00
2000
7F00
A100
3F00
ENDCHAR
STARTCHAR uni500B
ENCODING 20491
SWIDTH 1000 0
DWIDTH 10 0
BBX 9 9 0 -1
BITMAP
1F80
3280
5F80
D280
5780
5480
5780
5080
5F80
ENDCHAR
STARTCHAR uni500D
ENCODING 20493
SWIDTH 1000 0
DWIDTH 10 0
BBX 9 10 0 -1
BITMAP
0200
2200
3F80
4900
C900
5F80
4000
5F80
5080
5F80
ENDCHAR
STARTCHAR uni500F
ENCODING 20495
SWIDTH 1000 0
DWIDTH 10 0
BBX 9 9 0 -1
BITMAP
2780
2880
5500
D600
5980
5280
5F80
4500
5880
ENDCHAR
STARTCHAR uni5011
ENCODING 20497
SWIDTH 1000 0
DWIDTH 10 0
BBX 9 9 0 -1
BITMAP
3B80
6A80
BB80
AA80
BB80
A080
A080
A080
A180
ENDCHAR
STARTCHAR uni5012
ENCODING 20498
SWIDTH 1000 0
DWIDTH 10 0
BBX 9 9 0 -1
BITMAP
7E80
4A80
5280
FE80
9280
BE80
9280
9080
FD80
ENDCHAR
STARTCHAR uni5014
ENCODING 20500
SWIDTH 1000 0
DWIDTH 10 0
BBX 9 9 0 -1
BITMAP
1F80
3080
5F80
D200
5A80
6F80
4200
5280
5F80
ENDCHAR
STARTCHAR uni5016
ENCODING 20502
SWIDTH 1000 0
DWIDTH 10 0
BBX 9 10 0 -1
BITMAP
0200
2200
3F80
4200
DF80
4900
5F80
4200
5F80
4200
ENDCHAR
STARTCHAR uni5019
ENCODING 20505
SWIDTH 1000 0
DWIDTH 10 0
BBX 9 9 0 -1
BITMAP
2F80
2080
5F80
C800
5F80
5200
5F80
5500
5880
ENDCHAR
STARTCHAR uni501A
ENCODING 20506
SWIDTH 1000 0
DWIDTH 10 0
BBX 9 10 0 -1
BITMAP
0200
2200
3F80
4200
C500
4880
7F80
5280
5E80
4180
ENDCHAR
STARTCHAR uni501F
ENCODING 20511
SWIDTH 1000 0
DWIDTH 10 0
BBX 9 10 0 -1
BITMAP
0900
2900
3F80
4900
C900
7F80
4880
4F80
4880
4F80
ENDCHAR
STARTCHAR uni5021
ENCODING 20513
SWIDTH 1000 0
DWIDTH 10 0
BBX 9 9 0 -1
BITMAP
2F00
2900
4F00
C900
5F80
5080
5F80
5080
5F80
ENDCHAR
STARTCHAR uni5023
ENCODING 20515
SWIDTH 1000 0
DWIDTH 10 0
BBX 9 10 0 -1
BITMAP
0A00
2A00
3F80
4880
CA80
5E80
5500
6500
4680
5880
ENDCHAR
STARTCHAR uni5024
ENCODING 20516
SWIDTH 1000 0
DWIDTH 10 0
BBX 9 10 0 -1
BITMAP
0200
2F80
2200
4780
C480
5780
5480
5780
5000
5F80
ENDCHAR
STARTCHAR uni5025
ENCODING 20517
SWIDTH 1000 0
DWIDTH 10 0
BBX 9 10 0 -1
BITMAP
0200
2200
3F80
4A80
CA00
7380
4000
5F80
4200
7F80
ENDCHAR
STARTCHAR uni5026
ENCODING 20518
SWIDTH 1000 0
DWIDTH 10 0
BBX 9 10 0 -1
BITMAP
0400
5280
4900
7F80
C900
7F80
5100
6F00
4880
4F80
ENDCHAR
STARTCHAR uni5028
ENCODING 20520
SWIDTH 1000 0
DWIDTH 10 0
BBX 9 9 0 -1
BITMAP
1F80
3080
5F80
D200
5F80
5200
6F80
4880
4F80
ENDCHAR
STARTCHAR uni5029
ENCODING 20521
SWIDTH 1000 0
DWIDTH 10 0
BBX 9 10 0 -1
BITMAP
0200
2200
3F80
4200
CF80
4200
5F80
4880
4F80
4880
ENDCHAR
STARTCHAR uni502A
ENCODING 20522
SWIDTH 1000 0
DWIDTH 10 0
BBX 9 10 0 -1
BITMAP
0200
2400
3980
5080
DB80
5080
5F80
4A00
5280
6380
ENDCHAR
STARTCHAR uni502B
ENCODING 20523
SWIDTH 1000 0
DWIDTH 10 0
BBX 9 9 0 -1
BITMAP
2F00
2080
5F80
C000
5F80
4A80
5F80
4A80
4A80
ENDCHAR
STARTCHAR uni502C
ENCODING 20524
SWIDTH 1000 0
DWIDTH 10 0
BBX 9 10 0 -1
BITMAP
0400
2400
2780
4400
5F80
D080
5F80
5080
7F80
4200
ENDCHAR
STARTCHAR uni502D
ENCODING 20525
SWIDTH 1000 0
DWIDTH 10 0
BBX 9 9 0 -1
BITMAP
3F80
2200
5F80
CA00
5280
7F80
4900
4E00
7180
ENDCHAR
STARTCHAR uni5036
ENCODING 20534
SWIDTH 1000 0
DWIDTH 10 0
BBX 9 9 0 -1
BITMAP
2F80
2880
4F80
C880
4F80
4000
5F80
4500
5880
ENDCHAR
STARTCHAR uni5039
ENCODING 20537
SWIDTH 1000 0
DWIDTH 10 0
BBX 9 9 0 -1
BITMAP
2700
2880
5F80
C200
5F80
5280
5F80
4500
5880
ENDCHAR
STARTCHAR uni5043
ENCODING 20547
SWIDTH 1000 0
DWIDTH 10 0
BBX 9 9 0 -1
BITMAP
1F80
3480
5780
D480
5F80
5480
5300
5480
5F80
ENDCHAR
STARTCHAR uni5047
ENCODING 20551
SWIDTH 1000 0
DWIDTH 10 0
BBX 9 9 0 -1
BITMAP
1D80
3480
5580
DC00
5380
5C80
5280
5900
5680
ENDCHAR
STARTCHAR uni5048
ENCODING 20552
SWIDTH 1000 0
DWIDTH 10 0
BBX 9 9 0 -1
BITMAP
1F00
3100
5F00
D100
7F80
4880
5280
5C80
4300
ENDCHAR
STARTCHAR uni5049
ENCODING 20553
SWIDTH 1000 0
DWIDTH 10 0
BBX 9 10 0 -1
BITMAP
0200
2200
3F80
4480
DF80
4900
5F80
5200
7F80
4200
ENDCHAR
STARTCHAR uni504F
ENCODING 20559
SWIDTH 1000 0
DWIDTH 10 0
BBX 9 9 0 -1
BITMAP
3F80
2000
5F80
D080
5F80
6A80
5F80
4A80
4A80
ENDCHAR
STARTCHAR uni5050
ENCODING 20560
SWIDTH 1000 0
DWIDTH 10 0
BBX 9 10 0 -1
BITMAP
0200
2200
3F80
4900
C900
5F80
5100
6E00
4180
4E00
ENDCHAR
STARTCHAR uni5055
ENCODING 20565
SWIDTH 1000 0
DWIDTH 10 0
BBX 9 10 0 -1
BITMAP
0100
2900
2D80
4900
C900
4F80
4880
4F80
4880
4F80
ENDCHAR
STARTCHAR uni5056
ENCODING 20566
SWIDTH 1000 0
DWIDTH 10 0
BBX 9 10 0 -1
BITMAP
0400
2400
3F80
4480
C500
7F80
4880
5F80
6880
4F80
ENDCHAR
STARTCHAR uni505A
ENCODING 20570
SWIDTH 1000 0
DWIDTH 10 0
BBX 9 10 0 -1
BITMAP
0A00
2A00
2B80
7C80
CA80
5E80
5500
5500
5E80
4480
ENDCHAR
STARTCHAR uni505C
ENCODING 20572
SWIDTH 1000 0
DWIDTH 10 0
BBX 9 10 0 -1
BITMAP
0200
2200
3F80
4900
C900
7F80
6080
5F80
4200
4600
ENDCHAR
STARTCHAR uni5065
ENCODING 20581
SWIDTH 1000 0
DWIDTH 10 0
BBX 9 10 0 -1
BITMAP
0200
2200
3F80
5280
DF80
6280
5F80
5200
5800
6780
ENDCHAR
STARTCHAR uni506C
ENCODING 20588
SWIDTH 1000 0
DWIDTH 10 0
BBX 9 10 0 -1
BITMAP
0800
2800
3F80
4A80
DA80
6680
4900
4200
2880
4E80
ENDCHAR
STARTCHAR uni5072
ENCODING 20594
SWIDTH 1000 0
DWIDTH 10 0
BBX 9 9 0 -1
BITMAP
3F80
5280
DF80
5280
5F80
4400
1200
5080
8E80
ENDCHAR
STARTCHAR uni5074
ENCODING 20596
SWIDTH 1000 0
DWIDTH 10 0
BBX 9 9 0 -1
BITMAP
3E80
5280
DE80
5280
5280
5E80
4080
5480
6280
ENDCHAR
STARTCHAR uni5075
ENCODING 20597
SWIDTH 1000 0
DWIDTH 10 0
BBX 9 10 0 -1
BITMAP
0400
2400
2780
4400
DF80
5080
5F80
5080
5F00
6080
ENDCHAR
STARTCHAR uni5076
ENCODING 20598
SWIDTH 1000 0
DWIDTH 10 0
BBX 9 9 0 -1
BITMAP
1F80
3280
5F80
D280
5F80
4200
5F80
5480
5680
ENDCHAR
STARTCHAR uni5078
ENCODING 20600
SWIDTH 1000 0
DWIDTH 10 0
BBX 9 9 0 -1
BITMAP
2F00
2480
4B80
D000
5E80
5280
5F00
5280
5680
ENDCHAR
STARTCHAR uni507D
ENCODING 20605
SWIDTH 1000 0
DWIDTH 10 0
BBX 9 10 0 -1
BITMAP
0900
2900
2200
5F00
C900
5F80
5080
7F80
4080
5580
ENDCHAR
STARTCHAR uni5080
ENCODING 20608
SWIDTH 1000 0
DWIDTH 10 0
BBX 9 10 0 -1
BITMAP
0200
2400
3F80
5480
DF80
5480
5F80
4D00
5480
6780
ENDCHAR
STARTCHAR uni5085
ENCODING 20613
SWIDTH 1000 0
DWIDTH 10 0
BBX 9 10 0 -1
BITMAP
0200
2280
3F80
4A80
CF80
4A80
4000
5F80
4880
4580
ENDCHAR
STARTCHAR uni508D
ENCODING 20621
SWIDTH 1000 0
DWIDTH 10 0
BBX 9 10 0 -1
BITMAP
0400
2400
3F80
4900
C900
7F80
4480
5F80
4880
5300
ENDCHAR
STARTCHAR uni5091
ENCODING 20625
SWIDTH 1000 0
DWIDTH 10 0
BBX 9 10 0 -1
BITMAP
0100
5D00
5780
6D00
C780
5900
4200
7F80
4A00
5280
ENDCHAR
STARTCHAR uni5098
ENCODING 20632
SWIDTH 1000 0
DWIDTH 10 0
BBX 9 9 0 -1
BITMAP
3E00
4100
AA80
4900
AA80
4900
FF80
0800
0800
ENDCHAR
STARTCHAR uni5099
ENCODING 20633
SWIDTH 1000 0
DWIDTH 10 0
BBX 9 10 0 -1
BITMAP
0900
2900
3F80
4900
DF80
5000
5F80
7280
5F80
5280
ENDCHAR
STARTCHAR uni509A
ENCODING 20634
SWIDTH 1000 0
DWIDTH 10 0
BBX 9 10 0 -1
BITMAP
0A00
2A00
3F80
5480
E280
4280
5500
4900
5280
6480
ENDCHAR
STARTCHAR uni50AC
ENCODING 20652
SWIDTH 1000 0
DWIDTH 10 0
BBX 9 10 0 -1
BITMAP
0400
1480
3F80
4900
DF80
7200
5F80
5200
5200
5F80
ENDCHAR
STARTCHAR uni50AD
ENCODING 20653
SWIDTH 1000 0
DWIDTH 10 0
BBX 9 10 0 -1
BITMAP
0200
2200
3F80
5280
DF80
5280
5F80
6A80
4F80
4A80
ENDCHAR
STARTCHAR uni50B2
ENCODING 20658
SWIDTH 1000 0
DWIDTH 10 0
BBX 9 10 0 -1
BITMAP
1200
5200
7F80
5080
FE80
5280
7D00
5500
5680
6C80
ENDCHAR
STARTCHAR uni50B3
ENCODING 20659
SWIDTH 1000 0
DWIDTH 10 0
BBX 9 10 0 -1
BITMAP
0400
2400
3F80
5480
DF80
4480
7F80
4080
4880
4580
ENDCHAR
STARTCHAR uni50B4
ENCODING 20660
SWIDTH 1000 0
DWIDTH 10 0
BBX 9 9 0 -1
BITMAP
1F80
3500
5500
D700
5000
5F80
5280
5280
5F80
ENDCHAR
STARTCHAR uni50B5
ENCODING 20661
SWIDTH 1000 0
DWIDTH 10 0
BBX 9 10 0 -1
BITMAP
0200
2200
3F80
4200
DF80
4200
7F80
4880
4F00
7080
ENDCHAR
STARTCHAR uni50B7
ENCODING 20663
SWIDTH 1000 0
DWIDTH 10 0
BBX 9 10 0 -1
BITMAP
0800
2800
3F80
5100
DF00
5100
7F80
4A80
5480
6B00
ENDCHAR
STARTCHAR uni50BE
ENCODING 20670
SWIDTH 1000 0
DWIDTH 10 0
BBX 9 9 0 -1
BITMAP
2F80
2200
5780
DC80
5780
5480
5F80
4500
5880
ENDCHAR
STARTCHAR uni50C2
ENCODING 20674
SWIDTH 1000 0
DWIDTH 10 0
BBX 9 10 0 -1
BITMAP
0200
2200
2F80
4A80
DF00
4A80
5F80
4880
4700
5880
ENDCHAR
STARTCHAR uni50C5
ENCODING 20677
SWIDTH 1000 0
DWIDTH 10 0
BBX 9 10 0 -1
BITMAP
0500
3F80
2500
5F80
D280
5F80
4200
5F80
4200
5F80
ENDCHAR
STARTCHAR uni50C9
ENCODING 20681
SWIDTH 1000 0
DWIDTH 10 0
BBX 9 9 0 -1
BITMAP
3E00
4100
BE80
0000
F780
9480
F780
5500
8880
ENDCHAR
STARTCHAR uni50CA
ENCODING 20682
SWIDTH 1000 0
DWIDTH 10 0
BBX 9 9 0 -1
BITMAP
3F80
2500
5F80
CA80
5F80
5280
6E00
4880
4F80
ENDCHAR
STARTCHAR uni50CD
ENCODING 20685
SWIDTH 1000 0
DWIDTH 10 0
BBX 9 10 0 -1
BITMAP
0100
7D00
4900
7F80
AA80
BE80
AA80
BE80
8880
BD80
ENDCHAR
STARTCHAR uni50CF
ENCODING 20687
SWIDTH 1000 0
DWIDTH 10 0
BBX 9 9 0 -1
BITMAP
2F00
3100
5F80
D280
5F80
4A80
5700
4A80
5680
ENDCHAR
STARTCHAR uni50D1
ENCODING 20689
SWIDTH 1000 0
DWIDTH 10 0
BBX 9 9 0 -1
BITMAP
3F80
2400
5F80
C900
5680
6000
5F80
5680
5180
ENDCHAR
STARTCHAR uni50D5
ENCODING 20693
SWIDTH 1000 0
DWIDTH 10 0
BBX 9 10 0 -1
BITMAP
0A00
2A80
3F80
4900
C900
7F80
4200
5F80
4500
5880
ENDCHAR
STARTCHAR uni50D6
ENCODING 20694
SWIDTH 1000 0
DWIDTH 10 0
BBX 9 10 0 -1
BITMAP
0200
2200
3F80
4200
DF80
4880
4500
7F80
5080
5F80
ENDCHAR
STARTCHAR uni50DA
ENCODING 20698
SWIDTH 1000 0
DWIDTH 10 0
BBX 9 10 0 -1
BITMAP
0200
2200
3F80
5500
CF80
5880
6F80
4200
4A80
5680
ENDCHAR
STARTCHAR uni50DE
ENCODING 20702
SWIDTH 1000 0
DWIDTH 10 0
BBX 9 9 0 -1
BITMAP
3F80
2A80
5F00
D100
5F80
5080
5F80
6080
5580
ENDCHAR
STARTCHAR uni50E3
ENCODING 20707
SWIDTH 1000 0
DWIDTH 10 0
BBX 9 10 0 -1
BITMAP
0900
2900
3F80
4900
DF80
5500
6A80
5F80
5080
5F80
ENDCHAR
STARTCHAR uni50E5
ENCODING 20709
SWIDTH 1000 0
DWIDTH 10 0
BBX 9 10 0 -1
BITMAP
0400
2400
3F80
4900
DF80
4900
7F80
4A00
5280
6380
ENDCHAR
STARTCHAR uni50E7
ENCODING 20711
SWIDTH 1000 0
DWIDTH 10 0
BBX 9 10 0 -1
BITMAP
0900
2200
3F80
5280
DF80
5280
5F80
4880
4880
4F80
ENDCHAR
STARTCHAR uni50ED
ENCODING 20717
SWIDTH 1000 0
DWIDTH 10 0
BBX 9 10 0 -1
BITMAP
0900
2900
3F80
5500
DF80
5500
6A80
5F80
5080
5F80
ENDCHAR
STARTCHAR uni50EE
ENCODING 20718
SWIDTH 1000 0
DWIDTH 10 0
BBX 9 10 0 -1
BITMAP
0200
2200
3F80
4900
C900
7F80
5280
5F80
4200
5F80
ENDCHAR
STARTCHAR uni50F5
ENCODING 20725
SWIDTH 1000 0
DWIDTH 10 0
BBX 9 9 0 -1
BITMAP
7F80
5280
5F80
8000
BF80
9280
9F80
9280
BF80
ENDCHAR
STARTCHAR uni50F9
ENCODING 20729
SWIDTH 1000 0
DWIDTH 10 0
BBX 9 9 0 -1
BITMAP
7F80
4A00
7F80
AA80
BF80
9100
9100
8E00
B180
ENDCHAR
STARTCHAR uni50FB
ENCODING 20731
SWIDTH 1000 0
DWIDTH 10 0
BBX 9 10 0 -1
BITMAP
0100
3D00
5780
D680
5E80
5380
7D00
5780
5500
5D00
ENDCHAR
STARTCHAR uni5100
ENCODING 20736
SWIDTH 1000 0
DWIDTH 10 0
BBX 9 10 0 -1
BITMAP
0900
2200
3F80
4200
DF80
4200
7F80
5280
7B00
5480
ENDCHAR
STARTCHAR uni5101
ENCODING 20737
SWIDTH 1000 0
DWIDTH 10 0
BBX 9 10 0 -1
BITMAP
0400
2500
2F80
5A00
CF80
4A00
5D80
5480
5680
5180
ENDCHAR
STARTCHAR uni5102
ENCODING 20738
SWIDTH 1000 0
DWIDTH 10 0
BBX 9 10 0 -1
BITMAP
0A00
2A00
3F80
4A80
DF80
5000
5F80
6A80
4900
4C80
ENDCHAR
STARTCHAR uni5104
ENCODING 20740
SWIDTH 1000 0
DWIDTH 10 0
BBX 9 10 0 -1
BITMAP
0200
2200
3F80
4900
DF80
4880
4F80
4200
2880
4E80
ENDCHAR
STARTCHAR uni5109
ENCODING 20745
SWIDTH 1000 0
DWIDTH 10 0
BBX 9 9 0 -1
BITMAP
2700
2880
5780
C000
5F80
5280
5F80
4500
5A80
ENDCHAR
STARTCHAR uni5112
ENCODING 20754
SWIDTH 1000 0
DWIDTH 10 0
BBX 9 9 0 -1
BITMAP
3F80
2400
7F80
C480
5D80
4400
7F80
5480
5580
ENDCHAR
STARTCHAR uni5114
ENCODING 20756
SWIDTH 1000 0
DWIDTH 10 0
BBX 9 10 0 -1
BITMAP
0400
3F80
2400
5F80
C480
5F00
4000
7F80
5480
5D80
ENDCHAR
STARTCHAR uni5115
ENCODING 20757
SWIDTH 1000 0
DWIDTH 10 0
BBX 9 10 0 -1
BITMAP
0200
2200
3F80
4500
DD80
4A80
5700
4880
4F80
5880
ENDCHAR
STARTCHAR uni5116
ENCODING 20758
SWIDTH 1000 0
DWIDTH 10 0
BBX 9 10 0 -1
BITMAP
0100
3F00
5580
DE00
5380
5200
5F80
4A80
4A80
5F80
ENDCHAR
STARTCHAR uni5118
ENCODING 20760
SWIDTH 1000 0
DWIDTH 10 0
BBX 9 10 0 -1
BITMAP
0400
2400
3F80
4480
DF80
5500
6A80
5F80
4A80
7F80
ENDCHAR
STARTCHAR uni511A
ENCODING 20762
SWIDTH 1000 0
DWIDTH 10 0
BBX 9 10 0 -1
BITMAP
0500
2500
3F80
4500
DF80
4A80
5F80
5480
4300
5C00
ENDCHAR
STARTCHAR uni511F
ENCODING 20767
SWIDTH 1000 0
DWIDTH 10 0
BBX 9 10 0 -1
BITMAP
0400
2500
3F80
4900
DF80
5080
5F80
5080
5F00
6080
ENDCHAR
STARTCHAR uni5121
ENCODING 20769
SWIDTH 1000 0
DWIDTH 10 0
BBX 9 9 0 -1
BITMAP
5F00
5500
5F00
8000
BF80
AA80
BF80
AA80
BF80
ENDCHAR
STARTCHAR uni512A
ENCODING 20778
SWIDTH 1000 0
DWIDTH 10 0
BBX 9 9 0 -1
BITMAP
3F80
3100
5F00
D100
7F80
5280
6900
4600
5980
ENDCHAR
STARTCHAR uni5132
ENCODING 20786
SWIDTH 1000 0
DWIDTH 10 0
BBX 9 10 0 -1
BITMAP
0100
7900
4780
7900
8780
BA80
8780
BA80
AA80
BB80
ENDCHAR
STARTCHAR uni5137
ENCODING 20791
SWIDTH 1000 0
DWIDTH 10 0
BBX 9 9 0 -1
BITMAP
3B80
2000
5D80
D500
5F80
4A80
5F80
6900
4D80
ENDCHAR
STARTCHAR uni513A
ENCODING 20794
SWIDTH 1000 0
DWIDTH 10 0
BBX 9 10 0 -1
BITMAP
1400
5500
7F80
6D00
BF80
9500
FF80
9500
AD00
A780
ENDCHAR
STARTCHAR uni513B
ENCODING 20795
SWIDTH 1000 0
DWIDTH 10 0
BBX 9 10 0 -1
BITMAP
0400
2500
3F80
4A80
DF00
5500
5F80
4400
5F80
6A80
ENDCHAR
STARTCHAR uni513C
ENCODING 20796
SWIDTH 1000 0
DWIDTH 10 0
BBX 9 9 0 -1
BITMAP
2F80
2A80
5F80
D200
5F80
5480
5E80
7500
4680
ENDCHAR
STARTCHAR uni513F
ENCODING 20799
SWIDTH 1000 0
DWIDTH 10 0
BBX 9 9 0 -1
BITMAP
2400
2400
2400
2400
2400
4400
4480
8480
8780
ENDCHAR
STARTCHAR uni5140
ENCODING 20800
SWIDTH 1000 0
DWIDTH 10 0
BBX 9 9 0 -1
BITMAP
FF80
2400
2400
2400
2400
4400
4480
8480
8780
ENDCHAR
STARTCHAR uni5141
ENCODING 20801
SWIDTH 1000 0
DWIDTH 10 0
BBX 9 9 0 -1
BITMAP
1000
2200
4100
FF80
1400
1400
1480
2480
C780
ENDCHAR
STARTCHAR uni5143
ENCODING 20803
SWIDTH 1000 0
DWIDTH 10 0
BBX 9 9 0 -1
BITMAP
7F00
0000
0000
FF80
1400
1400
1400
2480
C780
ENDCHAR
STARTCHAR uni5144
ENCODING 20804
SWIDTH 1000 0
DWIDTH 10 0
BBX 9 9 0 -1
BITMAP
3F00
2100
2100
2100
3F00
1400
1480
2480
C780
ENDCHAR
STARTCHAR uni5145
ENCODING 20805
SWIDTH 1000 0
DWIDTH 10 0
BBX 9 10 0 -1
BITMAP
0800
0800
FF80
1200
2100
7E80
1400
1480
2480
C780
ENDCHAR
STARTCHAR uni5146
ENCODING 20806
SWIDTH 1000 0
DWIDTH 10 0
BBX 9 10 0 -1
BITMAP
0400
1400
9480
5500
1400
3500
5480
9400
2480
C780
ENDCHAR
STARTCHAR uni5147
ENCODING 20807
SWIDTH 1000 0
DWIDTH 10 0
BBX 9 9 0 -1
BITMAP
5500
4900
5500
6100
4100
7F00
1400
2480
C780
ENDCHAR
STARTCHAR uni5148
ENCODING 20808
SWIDTH 1000 0
DWIDTH 10 0
BBX 9 10 0 -1
BITMAP
0800
4800
7F00
4800
8800
FF80
1400
1400
2480
C780
ENDCHAR
STARTCHAR uni5149
ENCODING 20809
SWIDTH 1000 0
DWIDTH 10 0
BBX 9 10 0 -1
BITMAP
0800
0800
4900
2A00
0800
FF80
1400
1400
2480
C780
ENDCHAR
STARTCHAR uni514B
ENCODING 20811
SWIDTH 1000 0
DWIDTH 10 0
BBX 9 10 0 -1
BITMAP
0800
0800
FF80
0800
7F00
4100
7F00
1400
2480
C780
ENDCHAR
STARTCHAR uni514C
ENCODING 20812
SWIDTH 1000 0
DWIDTH 10 0
BBX 9 9 0 -1
BITMAP
2E00
4100
BE80
2200
2200
3E00
1480
2480
C780
ENDCHAR
STARTCHAR uni514D
ENCODING 20813
SWIDTH 1000 0
DWIDTH 10 0
BBX 9 9 0 -1
BITMAP
3E00
4200
FF00
4900
4900
7F00
1480
2480
C780
ENDCHAR
STARTCHAR uni514E
ENCODING 20814
SWIDTH 1000 0
DWIDTH 10 0
BBX 9 9 0 -1
BITMAP
FF80
0800
7F00
4900
4900
7F00
1500
2480
C780
ENDCHAR
STARTCHAR uni5150
ENCODING 20816
SWIDTH 1000 0
DWIDTH 10 0
BBX 9 9 0 -1
BITMAP
5F00
5100
5F00
5100
5100
5F00
1400
2480
C780
ENDCHAR
STARTCHAR uni5152
ENCODING 20818
SWIDTH 1000 0
DWIDTH 10 0
BBX 9 10 0 -1
BITMAP
0800
1000
6700
4100
7700
4100
7F00
1480
2480
C780
ENDCHAR
STARTCHAR uni5154
ENCODING 20820
SWIDTH 1000 0
DWIDTH 10 0
BBX 9 9 0 -1
BITMAP
3E00
4200
FF00
4900
4900
7F00
1500
2480
C780
ENDCHAR
STARTCHAR uni515A
ENCODING 20826
SWIDTH 1000 0
DWIDTH 10 0
BBX 9 10 0 -1
BITMAP
0800
2900
2A00
FF80
8080
BE80
2200
3E00
2480
C780
ENDCHAR
STARTCHAR uni515C
ENCODING 20828
SWIDTH 1000 0
DWIDTH 10 0
BBX 9 10 0 -1
BITMAP
0800
1000
DD80
A280
BE80
A280
DD80
0000
2480
C780
ENDCHAR
STARTCHAR uni5162
ENCODING 20834
SWIDTH 1000 0
DWIDTH 10 0
BBX 9 10 0 -1
BITMAP
2200
2200
F780
2200
F780
9480
F780
6600
AA80
BB80
ENDCHAR
STARTCHAR uni5165
ENCODING 20837
SWIDTH 1000 0
DWIDTH 10 0
BBX 9 9 0 -1
BITMAP
7800
0800
0800
0800
0800
1400
2400
4200
8180
ENDCHAR
STARTCHAR uni5168
ENCODING 20840
SWIDTH 1000 0
DWIDTH 10 0
BBX 9 9 0 -1
BITMAP
1C00
2200
4100
FF80
0800
7F00
0800
0800
FF80
ENDCHAR
STARTCHAR uni5169
ENCODING 20841
SWIDTH 1000 0
DWIDTH 10 0
BBX 9 9 0 -1
BITMAP
FF80
0800
FF80
8880
EE80
AA80
DD80
8880
8980
ENDCHAR
STARTCHAR uni516A
ENCODING 20842
SWIDTH 1000 0
DWIDTH 10 0
BBX 9 9 0 -1
BITMAP
7E00
2100
5F80
8000
F280
9500
D500
B280
9280
ENDCHAR
STARTCHAR uni516B
ENCODING 20843
SWIDTH 1000 0
DWIDTH 10 0
BBX 9 9 0 -1
BITMAP
1E00
0200
0200
2200
2100
4100
4100
8080
8080
ENDCHAR
STARTCHAR uni516C
ENCODING 20844
SWIDTH 1000 0
DWIDTH 10 0
BBX 9 9 0 -1
BITMAP
1E00
4200
4100
9100
9080
2280
2200
4500
7900
ENDCHAR
STARTCHAR uni516D
ENCODING 20845
SWIDTH 1000 0
DWIDTH 10 0
BBX 9 10 0 -1
BITMAP
0800
0800
0800
FF80
0000
0000
2100
2100
4080
8080
ENDCHAR
STARTCHAR uni516E
ENCODING 20846
SWIDTH 1000 0
DWIDTH 10 0
BBX 9 9 0 -1
BITMAP
2E00
4100
8080
7F00
2000
7F00
4100
0200
0C00
ENDCHAR
STARTCHAR uni5171
ENCODING 20849
SWIDTH 1000 0
DWIDTH 10 0
BBX 9 10 0 -1
BITMAP
1200
1200
1200
FF80
1200
1200
FF80
0000
2100
C080
ENDCHAR
STARTCHAR uni5175
ENCODING 20853
SWIDTH 1000 0
DWIDTH 10 0
BBX 9 9 0 -1
BITMAP
3F00
2000
3F00
2200
2200
FF80
0000
2200
C180
ENDCHAR
STARTCHAR uni5176
ENCODING 20854
SWIDTH 1000 0
DWIDTH 10 0
BBX 9 10 0 -1
BITMAP
2200
2200
FF80
2200
3E00
2200
FF80
0000
2200
C180
ENDCHAR
STARTCHAR uni5177
ENCODING 20855
SWIDTH 1000 0
DWIDTH 10 0
BBX 9 9 0 -1
BITMAP
3E00
2200
3E00
2200
3E00
0000
FF80
2200
C180
ENDCHAR
STARTCHAR uni5178
ENCODING 20856
SWIDTH 1000 0
DWIDTH 10 0
BBX 9 10 0 -1
BITMAP
1400
1400
7F00
5500
7F00
5500
5500
FF80
2200
C180
ENDCHAR
STARTCHAR uni517C
ENCODING 20860
SWIDTH 1000 0
DWIDTH 10 0
BBX 9 10 0 -1
BITMAP
2100
2200
FF80
1500
FF80
1500
7F00
1400
3500
D480
ENDCHAR
STARTCHAR uni5180
ENCODING 20864
SWIDTH 1000 0
DWIDTH 10 0
BBX 9 10 0 -1
BITMAP
0400
2480
E700
2400
FF80
4900
7F00
2200
FF80
4100
ENDCHAR
STARTCHAR uni5182
ENCODING 20866
SWIDTH 1000 0
DWIDTH 10 0
BBX 9 9 0 -1
BITMAP
FF80
8080
8080
8080
8080
8080
8080
8080
8180
ENDCHAR
STARTCHAR uni5185
ENCODING 20869
SWIDTH 1000 0
DWIDTH 10 0
BBX 9 10 0 -1
BITMAP
0800
0800
FF80
8880
9480
A280
C180
8080
8080
8180
ENDCHAR
STARTCHAR uni5186
ENCODING 20870
SWIDTH 1000 0
DWIDTH 10 0
BBX 9 9 0 -1
BITMAP
FF80
8880
8880
8880
FF80
8080
8080
8080
8380
ENDCHAR
STARTCHAR uni5189
ENCODING 20873
SWIDTH 1000 0
DWIDTH 10 0
BBX 9 10 0 -1
BITMAP
0800
0800
7F00
4900
7F00
4900
4900
FF80
4100
4300
ENDCHAR
STARTCHAR uni518A
ENCODING 20874
SWIDTH 1000 0
DWIDTH 10 0
BBX 9 9 0 -1
BITMAP
7F00
5500
5500
5500
FF80
5500
5500
5500
4300
ENDCHAR
STARTCHAR uni518C
ENCODING 20876
SWIDTH 1000 0
DWIDTH 10 0
BBX 9 9 0 -1
BITMAP
7700
5500
5500
5500
FF80
5500
5500
9100
B300
ENDCHAR
STARTCHAR uni518D
ENCODING 20877
SWIDTH 1000 0
DWIDTH 10 0
BBX 9 9 0 -1
BITMAP
FF80
0800
7F00
4900
7F00
4900
FF80
4100
4300
ENDCHAR
STARTCHAR uni518F
ENCODING 20879
SWIDTH 1000 0
DWIDTH 10 0
BBX 9 9 0 -1
BITMAP
FF80
9480
9480
A780
C080
BE80
A280
BE80
8180
ENDCHAR
STARTCHAR uni5190
ENCODING 20880
SWIDTH 1000 0
DWIDTH 10 0
BBX 9 9 0 -1
BITMAP
FF80
8080
BE80
0000
7F00
4100
7F00
4100
4300
ENDCHAR
STARTCHAR uni5191
ENCODING 20881
SWIDTH 1000 0
DWIDTH 10 0
BBX 9 10 0 -1
BITMAP
0800
0800
FF80
8880
FF80
8880
FF80
4100
5D00
4300
ENDCHAR
STARTCHAR uni5192
ENCODING 20882
SWIDTH 1000 0
DWIDTH 10 0
BBX 8 9 1 -1
BITMAP
FF
81
FF
81
FF
42
7E
42
7E
ENDCHAR
STARTCHAR uni5193
ENCODING 20883
SWIDTH 1000 0
DWIDTH 10 0
BBX 9 10 0 -1
BITMAP
2200
2200
7F00
2200
FF80
0800
7F00
4900
FF80
4100
ENDCHAR
STARTCHAR uni5195
ENCODING 20885
SWIDTH 1000 0
DWIDTH 10 0
BBX 9 9 0 -1
BITMAP
7F00
4100
5D00
2200
FF00
4900
7F00
1480
E780
ENDCHAR
STARTCHAR uni5196
ENCODING 20886
SWIDTH 1000 0
DWIDTH 10 0
BBX 9 3 0 3
BITMAP
FF80
8080
8080
ENDCHAR
STARTCHAR uni5197
ENCODING 20887
SWIDTH 1000 0
DWIDTH 10 0
BBX 9 9 0 -1
BITMAP
FF80
8080
8080
3C00
2400
2400
2480
2480
C780
ENDCHAR
STARTCHAR uni5199
ENCODING 20889
SWIDTH 1000 0
DWIDTH 10 0
BBX 9 9 0 -1
BITMAP
FF80
A080
BE80
2000
3E00
0200
FF80
0200
1C00
ENDCHAR
STARTCHAR uni51A0
ENCODING 20896
SWIDTH 1000 0
DWIDTH 10 0
BBX 9 9 0 -1
BITMAP
FF80
8080
F100
0780
F900
5500
5300
9080
9F80
ENDCHAR
STARTCHAR uni51A2
ENCODING 20898
SWIDTH 1000 0
DWIDTH 10 0
BBX 9 9 0 -1
BITMAP
FF80
8080
7F00
2880
4D00
9600
2500
C480
1800
ENDCHAR
STARTCHAR uni51A4
ENCODING 20900
SWIDTH 1000 0
DWIDTH 10 0
BBX 9 9 0 -1
BITMAP
FF80
8080
BE80
4200
FF00
4900
7F00
1480
E780
ENDCHAR
STARTCHAR uni51A5
ENCODING 20901
SWIDTH 1000 0
DWIDTH 10 0
BBX 9 9 0 -1
BITMAP
FF80
8080
BE80
2200
3E00
2200
FF80
2200
C180
ENDCHAR
STARTCHAR uni51A6
ENCODING 20902
SWIDTH 1000 0
DWIDTH 10 0
BBX 9 9 0 -1
BITMAP
FF80
8480
F700
0400
FF80
5480
5300
9480
9F80
ENDCHAR
STARTCHAR uni51A8
ENCODING 20904
SWIDTH 1000 0
DWIDTH 10 0
BBX 9 9 0 -1
BITMAP
FF80
8080
7F00
2200
7F00
4900
7F00
4900
7F00
ENDCHAR
STARTCHAR uni51A9
ENCODING 20905
SWIDTH 1000 0
DWIDTH 10 0
BBX 9 9 0 -1
BITMAP
FF80
8880
B680
2200
3600
2200
7F80
8080
5580
ENDCHAR
STARTCHAR uni51AA
ENCODING 20906
SWIDTH 1000 0
DWIDTH 10 0
BBX 9 9 0 -1
BITMAP
FF80
9480
7F00
2200
FF80
4900
BE80
2A00
2A00
ENDCHAR
STARTCHAR uni51AB
ENCODING 20907
SWIDTH 1000 0
DWIDTH 10 0
BBX 5 9 2 -1
BITMAP
40
20
00
00
00
08
10
20
C0
ENDCHAR
STARTCHAR uni51AC
ENCODING 20908
SWIDTH 1000 0
DWIDTH 10 0
BBX 9 10 0 -1
BITMAP
1000
1000
1F00
2100
5200
0C00
3200
CD80
3000
0E00
ENDCHAR
STARTCHAR uni51B0
ENCODING 20912
SWIDTH 1000 0
DWIDTH 10 0
BBX 9 10 0 -1
BITMAP
0200
8200
4280
1F00
0200
0600
4B00
5280
8280
8600
ENDCHAR
STARTCHAR uni51B1
ENCODING 20913
SWIDTH 1000 0
DWIDTH 10 0
BBX 9 9 0 -1
BITMAP
9F80
4400
0700
0900
0900
4F00
4900
8100
9F80
ENDCHAR
STARTCHAR uni51B2
ENCODING 20914
SWIDTH 1000 0
DWIDTH 10 0
BBX 9 10 0 -1
BITMAP
0200
8200
4200
1F80
1280
1280
5F80
4200
8200
8200
ENDCHAR
STARTCHAR uni51B3
ENCODING 20915
SWIDTH 1000 0
DWIDTH 10 0
BBX 9 10 0 -1
BITMAP
0200
8200
4F80
0280
0280
1F80
4200
4200
8500
9880
ENDCHAR
STARTCHAR uni51B4
ENCODING 20916
SWIDTH 1000 0
DWIDTH 10 0
BBX 9 9 0 -1
BITMAP
9F80
4100
0900
0900
1F80
4500
4900
9100
8300
ENDCHAR
STARTCHAR uni51B5
ENCODING 20917
SWIDTH 1000 0
DWIDTH 10 0
BBX 9 9 0 -1
BITMAP
9F80
5080
1080
1F80
0A00
4A00
4A80
9280
9380
ENDCHAR
STARTCHAR uni51B6
ENCODING 20918
SWIDTH 1000 0
DWIDTH 10 0
BBX 9 10 0 -1
BITMAP
0400
8400
4880
1080
1F80
0000
1F80
1080
5080
9F80
ENDCHAR
STARTCHAR uni51B7
ENCODING 20919
SWIDTH 1000 0
DWIDTH 10 0
BBX 9 9 0 -1
BITMAP
8F00
5080
2000
1F80
0000
5F80
4480
8480
8580
ENDCHAR
STARTCHAR uni51BD
ENCODING 20925
SWIDTH 1000 0
DWIDTH 10 0
BBX 9 9 0 -1
BITMAP
9E80
4480
2E80
0A80
0A80
5680
4280
8480
9980
ENDCHAR
STARTCHAR uni51C4
ENCODING 20932
SWIDTH 1000 0
DWIDTH 10 0
BBX 9 10 0 -1
BITMAP
0400
8400
5F80
0480
3F80
0480
5F80
4900
8E00
B180
ENDCHAR
STARTCHAR uni51C5
ENCODING 20933
SWIDTH 1000 0
DWIDTH 10 0
BBX 9 9 0 -1
BITMAP
9F80
5280
1F80
1280
1780
5480
5780
9080
9F80
ENDCHAR
STARTCHAR uni51C6
ENCODING 20934
SWIDTH 1000 0
DWIDTH 10 0
BBX 9 10 0 -1
BITMAP
0800
0900
9F80
5200
3F80
1200
5F80
5200
9200
9F80
ENDCHAR
STARTCHAR uni51C9
ENCODING 20937
SWIDTH 1000 0
DWIDTH 10 0
BBX 9 10 0 -1
BITMAP
0200
8200
5F80
0000
0F80
0880
4F80
4200
9280
A680
ENDCHAR
STARTCHAR uni51CB
ENCODING 20939
SWIDTH 1000 0
DWIDTH 10 0
BBX 9 9 0 -1
BITMAP
BF80
6480
3F80
2480
3F80
2080
AE80
AA80
AE80
ENDCHAR
STARTCHAR uni51CC
ENCODING 20940
SWIDTH 1000 0
DWIDTH 10 0
BBX 9 10 0 -1
BITMAP
0200
8200
5F80
0200
3F80
0A00
3780
0900
4600
9980
ENDCHAR
STARTCHAR uni51CD
ENCODING 20941
SWIDTH 1000 0
DWIDTH 10 0
BBX 9 10 0 -1
BITMAP
0200
8200
7F80
1280
1F80
1280
5F80
4600
8A80
B280
ENDCHAR
STARTCHAR uni51D6
ENCODING 20950
SWIDTH 1000 0
DWIDTH 10 0
BBX 9 10 0 -1
BITMAP
0800
8900
5F80
1200
1F80
5200
9F80
0800
FF80
0800
ENDCHAR
STARTCHAR uni51DB
ENCODING 20955
SWIDTH 1000 0
DWIDTH 10 0
BBX 9 10 0 -1
BITMAP
0200
8200
7F80
1680
1080
1F80
4000
5F80
8A00
9280
ENDCHAR
STARTCHAR uni51DC
ENCODING 20956
SWIDTH 1000 0
DWIDTH 10 0
BBX 9 10 0 -1
BITMAP
0200
8200
7F80
1680
1080
1F80
4200
5F80
8A00
B280
ENDCHAR
STARTCHAR uni51DD
ENCODING 20957
SWIDTH 1000 0
DWIDTH 10 0
BBX 9 9 0 -1
BITMAP
2780
BC80
6100
3F80
2A80
7E00
4B80
9A00
AF80
ENDCHAR
STARTCHAR uni51E0
ENCODING 20960
SWIDTH 1000 0
DWIDTH 10 0
BBX 9 9 0 -1
BITMAP
3E00
2200
2200
2200
2200
2200
2280
4280
8380
ENDCHAR
STARTCHAR uni51E1
ENCODING 20961
SWIDTH 1000 0
DWIDTH 10 0
BBX 9 9 0 -1
BITMAP
3E00
2200
2200
3200
2A00
2200
2280
4280
8380
ENDCHAR
STARTCHAR uni51E6
ENCODING 20966
SWIDTH 1000 0
DWIDTH 10 0
BBX 9 10 0 -1
BITMAP
4000
4000
7780
5480
5480
9480
A880
2000
5000
8F80
ENDCHAR
STARTCHAR uni51E7
ENCODING 20967
SWIDTH 1000 0
DWIDTH 10 0
BBX 9 9 0 -1
BITMAP
7F00
5100
5100
7D00
5500
5500
5500
9480
9080
ENDCHAR
STARTCHAR uni51E9
ENCODING 20969
SWIDTH 1000 0
DWIDTH 10 0
BBX 9 9 0 -1
BITMAP
7F00
4900
4900
7F00
4900
5900
5D00
AA80
A880
ENDCHAR
STARTCHAR uni51EA
ENCODING 20970
SWIDTH 1000 0
DWIDTH 10 0
BBX 9 9 0 -1
BITMAP
FF00
8900
8900
A900
AF00
A900
A880
FE80
8080
ENDCHAR
STARTCHAR uni51ED
ENCODING 20973
SWIDTH 1000 0
DWIDTH 10 0
BBX 9 9 0 -1
BITMAP
2F80
4200
DF80
4200
4F80
0000
3E00
2280
C380
ENDCHAR
STARTCHAR uni51F0
ENCODING 20976
SWIDTH 1000 0
DWIDTH 10 0
BBX 9 9 0 -1
BITMAP
FF00
9100
BD00
A500
BD00
A500
BD00
9080
BC80
ENDCHAR
STARTCHAR uni51F1
ENCODING 20977
SWIDTH 1000 0
DWIDTH 10 0
BBX 9 10 0 -1
BITMAP
2000
AB80
FA80
0280
FA80
8A80
FA80
5280
5280
FC80
ENDCHAR
STARTCHAR uni51F5
ENCODING 20981
SWIDTH 1000 0
DWIDTH 10 0
BBX 9 9 0 -1
BITMAP
8080
8080
8080
8080
8080
8080
8080
8080
FF80
ENDCHAR
STARTCHAR uni51F6
ENCODING 20982
SWIDTH 1000 0
DWIDTH 10 0
BBX 9 9 0 -1
BITMAP
8080
A280
9480
8880
9480
A280
8080
8080
FF80
ENDCHAR
STARTCHAR uni51F8
ENCODING 20984
SWIDTH 1000 0
DWIDTH 10 0
BBX 9 9 0 -1
BITMAP
3E00
2200
2200
2200
E380
8080
8080
8080
FF80
ENDCHAR
STARTCHAR uni51F9
ENCODING 20985
SWIDTH 1000 0
DWIDTH 10 0
BBX 9 9 0 -1
BITMAP
F780
9480
9480
9480
9C80
8080
8080
8080
FF80
ENDCHAR
STARTCHAR uni51FA
ENCODING 20986
SWIDTH 1000 0
DWIDTH 10 0
BBX 9 10 0 -1
BITMAP
0800
0800
4900
4900
7F00
0800
0800
8880
8880
FF80
ENDCHAR
STARTCHAR uni51FD
ENCODING 20989
SWIDTH 1000 0
DWIDTH 10 0
BBX 9 9 0 -1
BITMAP
FF80
1000
1100
DA80
8C80
AA80
C980
8880
FF80
ENDCHAR
STARTCHAR uni51FE
ENCODING 20990
SWIDTH 1000 0
DWIDTH 10 0
BBX 9 9 0 -1
BITMAP
7F00
0400
8880
EF80
A980
AA80
ED80
9080
FF80
ENDCHAR
STARTCHAR uni5200
ENCODING 20992
SWIDTH 1000 0
DWIDTH 10 0
BBX 9 9 0 -1
BITMAP
FF80
1080
1080
1080
1080
2080
2080
4100
4600
ENDCHAR
STARTCHAR uni5203
ENCODING 20995
SWIDTH 1000 0
DWIDTH 10 0
BBX 9 9 0 -1
BITMAP
FF80
1080
5080
3080
1080
2880
2480
4100
4600
ENDCHAR
STARTCHAR uni5204
ENCODING 20996
SWIDTH 1000 0
DWIDTH 10 0
BBX 9 9 0 -1
BITMAP
FF00
1100
5100
7100
9900
2700
2180
4200
4C00
ENDCHAR
STARTCHAR uni5206
ENCODING 20998
SWIDTH 1000 0
DWIDTH 10 0
BBX 9 9 0 -1
BITMAP
2F00
2100
4100
4080
BF80
9100
1100
2100
2600
ENDCHAR
STARTCHAR uni5207
ENCODING 20999
SWIDTH 1000 0
DWIDTH 10 0
BBX 9 9 0 -1
BITMAP
5F80
4480
5480
6480
C480
4880
4880
7100
0600
ENDCHAR
STARTCHAR uni5208
ENCODING 21000
SWIDTH 1000 0
DWIDTH 10 0
BBX 9 9 0 -1
BITMAP
1080
1480
9480
5480
2480
2480
5480
4880
8180
ENDCHAR
STARTCHAR uni520A
ENCODING 21002
SWIDTH 1000 0
DWIDTH 10 0
BBX 9 9 0 -1
BITMAP
F880
2480
2480
2480
FC80
2480
2480
2080
2180
ENDCHAR
STARTCHAR uni520B
ENCODING 21003
SWIDTH 1000 0
DWIDTH 10 0
BBX 9 9 0 -1
BITMAP
0C80
F280
1280
1280
FE80
1280
1280
2080
4180
ENDCHAR
STARTCHAR uni520E
ENCODING 21006
SWIDTH 1000 0
DWIDTH 10 0
BBX 9 10 0 -1
BITMAP
4000
4080
7A80
AA80
AA80
2A80
4A80
4A80
0880
3180
ENDCHAR
STARTCHAR uni5211
ENCODING 21009
SWIDTH 1000 0
DWIDTH 10 0
BBX 9 9 0 -1
BITMAP
FC80
5280
5280
5280
FE80
5280
5280
9080
9180
ENDCHAR
STARTCHAR uni5214
ENCODING 21012
SWIDTH 1000 0
DWIDTH 10 0
BBX 9 10 0 -1
BITMAP
2000
2080
FA80
2A80
2A80
FE80
2280
2280
5080
8980
ENDCHAR
STARTCHAR uni5217
ENCODING 21015
SWIDTH 1000 0
DWIDTH 10 0
BBX 9 9 0 -1
BITMAP
FC80
2280
3A80
4A80
AA80
9A80
0A80
1080
6180
ENDCHAR
STARTCHAR uni521D
ENCODING 21021
SWIDTH 1000 0
DWIDTH 10 0
BBX 9 9 0 -1
BITMAP
5F80
4480
F480
1480
2480
4880
E880
5080
5300
ENDCHAR
STARTCHAR uni5224
ENCODING 21028
SWIDTH 1000 0
DWIDTH 10 0
BBX 9 10 0 -1
BITMAP
2000
2080
AA80
B280
2280
FA80
2280
FA80
2080
2180
ENDCHAR
STARTCHAR uni5225
ENCODING 21029
SWIDTH 1000 0
DWIDTH 10 0
BBX 9 9 0 -1
BITMAP
F880
8A80
8A80
FA80
4280
7A80
8A80
8880
3180
ENDCHAR
STARTCHAR uni5227
ENCODING 21031
SWIDTH 1000 0
DWIDTH 10 0
BBX 9 10 0 -1
BITMAP
2000
2F80
F280
2280
2280
FA80
4480
9480
F080
1300
ENDCHAR
STARTCHAR uni5229
ENCODING 21033
SWIDTH 1000 0
DWIDTH 10 0
BBX 9 9 0 -1
BITMAP
1880
E280
2280
FA80
2280
3280
6A80
A080
2180
ENDCHAR
STARTCHAR uni522A
ENCODING 21034
SWIDTH 1000 0
DWIDTH 10 0
BBX 9 9 0 -1
BITMAP
F880
AA80
AA80
AA80
FE80
AA80
AA80
A880
8980
ENDCHAR
STARTCHAR uni522E
ENCODING 21038
SWIDTH 1000 0
DWIDTH 10 0
BBX 9 9 0 -1
BITMAP
1880
E280
2280
FE80
2280
FA80
8A80
8880
F980
ENDCHAR
STARTCHAR uni5230
ENCODING 21040
SWIDTH 1000 0
DWIDTH 10 0
BBX 9 9 0 -1
BITMAP
F880
2280
4A80
FA80
2280
FA80
2280
2080
F980
ENDCHAR
STARTCHAR uni5233
ENCODING 21043
SWIDTH 1000 0
DWIDTH 10 0
BBX 9 10 0 -1
BITMAP
2000
2080
FA80
5280
8A80
FA80
4280
FA80
8880
3180
ENDCHAR
STARTCHAR uni5236
ENCODING 21046
SWIDTH 1000 0
DWIDTH 10 0
BBX 9 10 0 -1
BITMAP
2000
A080
FA80
A280
FE80
2280
FA80
AA80
A880
A980
ENDCHAR
STARTCHAR uni5237
ENCODING 21047
SWIDTH 1000 0
DWIDTH 10 0
BBX 9 9 0 -1
BITMAP
F880
8A80
FA80
A280
FA80
AA80
AA80
B880
2180
ENDCHAR
STARTCHAR uni5238
ENCODING 21048
SWIDTH 1000 0
DWIDTH 10 0
BBX 9 10 0 -1
BITMAP
0800
2900
2A00
7F00
1200
FF80
4100
BE80
1200
6600
ENDCHAR
STARTCHAR uni5239
ENCODING 21049
SWIDTH 1000 0
DWIDTH 10 0
BBX 9 9 0 -1
BITMAP
5080
2280
5280
8A80
2280
FA80
2280
7080
A980
ENDCHAR
STARTCHAR uni523A
ENCODING 21050
SWIDTH 1000 0
DWIDTH 10 0
BBX 9 10 0 -1
BITMAP
2000
2080
FA80
2280
FA80
AA80
AA80
3280
6880
A580
ENDCHAR
STARTCHAR uni523B
ENCODING 21051
SWIDTH 1000 0
DWIDTH 10 0
BBX 9 10 0 -1
BITMAP
1000
1080
FE80
2280
4A80
5280
2280
CA80
3080
CD80
ENDCHAR
STARTCHAR uni5243
ENCODING 21059
SWIDTH 1000 0
DWIDTH 10 0
BBX 9 10 0 -1
BITMAP
4800
5080
0280
FA80
2A80
FA80
A280
FC80
6480
AD80
ENDCHAR
STARTCHAR uni5244
ENCODING 21060
SWIDTH 1000 0
DWIDTH 10 0
BBX 9 9 0 -1
BITMAP
F880
5680
AA80
5680
0280
FA80
2280
2080
F980
ENDCHAR
STARTCHAR uni5247
ENCODING 21063
SWIDTH 1000 0
DWIDTH 10 0
BBX 9 9 0 -1
BITMAP
F880
8A80
FA80
8A80
8A80
FA80
0280
5080
8980
ENDCHAR
STARTCHAR uni524A
ENCODING 21066
SWIDTH 1000 0
DWIDTH 10 0
BBX 9 10 0 -1
BITMAP
2000
2080
AA80
B280
2280
FA80
8A80
FA80
8880
9980
ENDCHAR
STARTCHAR uni524B
ENCODING 21067
SWIDTH 1000 0
DWIDTH 10 0
BBX 9 10 0 -1
BITMAP
2000
2280
FA80
2280
FA80
8A80
F880
5180
9000
9F80
ENDCHAR
STARTCHAR uni524C
ENCODING 21068
SWIDTH 1000 0
DWIDTH 10 0
BBX 9 10 0 -1
BITMAP
2000
2080
FA80
2280
FA80
AA80
FA80
2280
6880
A580
ENDCHAR
STARTCHAR uni524D
ENCODING 21069
SWIDTH 1000 0
DWIDTH 10 0
BBX 9 10 0 -1
BITMAP
2200
2400
FF80
0000
F480
9480
F480
9480
F080
9180
ENDCHAR
STARTCHAR uni524F
ENCODING 21071
SWIDTH 1000 0
DWIDTH 10 0
BBX 9 10 0 -1
BITMAP
4800
5780
0280
FA80
5680
5280
FD80
5480
9080
9300
ENDCHAR
STARTCHAR uni5254
ENCODING 21076
SWIDTH 1000 0
DWIDTH 10 0
BBX 9 9 0 -1
BITMAP
F880
8A80
FA80
8A80
FA80
4280
FE80
5480
AD80
ENDCHAR
STARTCHAR uni5256
ENCODING 21078
SWIDTH 1000 0
DWIDTH 10 0
BBX 9 10 0 -1
BITMAP
2000
2080
FE80
4A80
4A80
FE80
0280
FA80
8880
F980
ENDCHAR
STARTCHAR uni525B
ENCODING 21083
SWIDTH 1000 0
DWIDTH 10 0
BBX 9 9 0 -1
BITMAP
F880
8A80
DA80
AA80
FA80
AA80
AA80
F880
8980
ENDCHAR
STARTCHAR uni525E
ENCODING 21086
SWIDTH 1000 0
DWIDTH 10 0
BBX 9 10 0 -1
BITMAP
2000
2080
FA80
2280
5280
8A80
FE80
AA80
E880
1980
ENDCHAR
STARTCHAR uni5263
ENCODING 21091
SWIDTH 1000 0
DWIDTH 10 0
BBX 9 9 0 -1
BITMAP
7080
8A80
FA80
2280
FA80
AA80
FA80
5080
8D80
ENDCHAR
STARTCHAR uni5264
ENCODING 21092
SWIDTH 1000 0
DWIDTH 10 0
BBX 9 10 0 -1
BITMAP
2000
2080
FE80
4A80
3280
CE80
7A80
4A80
F880
8980
ENDCHAR
STARTCHAR uni5265
ENCODING 21093
SWIDTH 1000 0
DWIDTH 10 0
BBX 9 9 0 -1
BITMAP
F880
0A80
FA80
0A80
FE80
AA80
7280
A880
6580
ENDCHAR
STARTCHAR uni5269
ENCODING 21097
SWIDTH 1000 0
DWIDTH 10 0
BBX 9 9 0 -1
BITMAP
F880
2280
FE80
2A80
6A80
AE80
3280
6880
A580
ENDCHAR
STARTCHAR uni526A
ENCODING 21098
SWIDTH 1000 0
DWIDTH 10 0
BBX 9 10 0 -1
BITMAP
2200
2400
FF80
9480
F480
9180
0000
FF80
1080
E300
ENDCHAR
STARTCHAR uni526F
ENCODING 21103
SWIDTH 1000 0
DWIDTH 10 0
BBX 9 9 0 -1
BITMAP
FC80
0280
7A80
4A80
FE80
A480
FC80
A480
FD80
ENDCHAR
STARTCHAR uni5270
ENCODING 21104
SWIDTH 1000 0
DWIDTH 10 0
BBX 9 9 0 -1
BITMAP
FC80
1280
FE80
5280
FE80
5280
FE80
5880
9580
ENDCHAR
STARTCHAR uni5271
ENCODING 21105
SWIDTH 1000 0
DWIDTH 10 0
BBX 9 9 0 -1
BITMAP
7780
8A80
FA80
2680
FB80
AA80
FC80
5080
8B00
ENDCHAR
STARTCHAR uni5272
ENCODING 21106
SWIDTH 1000 0
DWIDTH 10 0
BBX 9 10 0 -1
BITMAP
1000
1080
FE80
9280
7E80
1280
FE80
4480
4480
7D80
ENDCHAR
STARTCHAR uni5273
ENCODING 21107
SWIDTH 1000 0
DWIDTH 10 0
BBX 9 10 0 -1
BITMAP
5000
5080
FE80
5280
8A80
F680
0280
FA80
8880
F980
ENDCHAR
STARTCHAR uni5274
ENCODING 21108
SWIDTH 1000 0
DWIDTH 10 0
BBX 9 9 0 -1
BITMAP
A880
AA80
FA80
0280
FA80
8A80
FA80
5080
F980
ENDCHAR
STARTCHAR uni5275
ENCODING 21109
SWIDTH 1000 0
DWIDTH 10 0
BBX 9 9 0 -1
BITMAP
3880
4680
FA80
4A80
7A80
4A80
7E80
C480
7D80
ENDCHAR
STARTCHAR uni527D
ENCODING 21117
SWIDTH 1000 0
DWIDTH 10 0
BBX 9 9 0 -1
BITMAP
F880
5280
FA80
AA80
FA80
0280
FA80
6080
A980
ENDCHAR
STARTCHAR uni527F
ENCODING 21119
SWIDTH 1000 0
DWIDTH 10 0
BBX 9 9 0 -1
BITMAP
A880
5280
FA80
AA80
FA80
AA80
FE80
2880
A580
ENDCHAR
STARTCHAR uni5283
ENCODING 21123
SWIDTH 1000 0
DWIDTH 10 0
BBX 9 9 0 -1
BITMAP
F880
4A80
FA80
4A80
FE80
AA80
FA80
A880
FD80
ENDCHAR
STARTCHAR uni5287
ENCODING 21127
SWIDTH 1000 0
DWIDTH 10 0
BBX 9 10 0 -1
BITMAP
2000
3880
2280
FE80
A280
BA80
D280
B680
D880
B580
ENDCHAR
STARTCHAR uni5288
ENCODING 21128
SWIDTH 1000 0
DWIDTH 10 0
BBX 9 10 0 -1
BITMAP
0200
F200
9F80
F500
8500
FF80
9200
FF80
1080
E300
ENDCHAR
STARTCHAR uni5289
ENCODING 21129
SWIDTH 1000 0
DWIDTH 10 0
BBX 9 9 0 -1
BITMAP
DE80
8A80
DA80
2680
7A80
9280
FC80
5480
FD80
ENDCHAR
STARTCHAR uni528D
ENCODING 21133
SWIDTH 1000 0
DWIDTH 10 0
BBX 9 9 0 -1
BITMAP
7080
8A80
FA80
0280
FA80
AA80
FA80
5080
AD80
ENDCHAR
STARTCHAR uni5291
ENCODING 21137
SWIDTH 1000 0
DWIDTH 10 0
BBX 9 10 0 -1
BITMAP
2000
2080
FE80
4A80
B680
4A80
7A80
4A80
F880
8980
ENDCHAR
STARTCHAR uni5292
ENCODING 21138
SWIDTH 1000 0
DWIDTH 10 0
BBX 9 9 0 -1
BITMAP
7780
8A80
FA80
0680
FA80
AA80
FC80
5080
AB00
ENDCHAR
STARTCHAR uni5294
ENCODING 21140
SWIDTH 1000 0
DWIDTH 10 0
BBX 9 9 0 -1
BITMAP
7780
8A80
FA80
0680
FB80
AA80
FC80
5080
AB00
ENDCHAR
STARTCHAR uni529B
ENCODING 21147
SWIDTH 1000 0
DWIDTH 10 0
BBX 9 10 0 -1
BITMAP
0800
0800
0800
FF80
0880
0880
1080
1080
2080
C700
ENDCHAR
STARTCHAR uni529F
ENCODING 21151
SWIDTH 1000 0
DWIDTH 10 0
BBX 9 10 0 -1
BITMAP
0200
0200
E200
5F80
4480
4480
4480
4880
E880
0300
ENDCHAR
STARTCHAR uni52A0
ENCODING 21152
SWIDTH 1000 0
DWIDTH 10 0
BBX 9 10 0 -1
BITMAP
2000
2000
2380
FA80
4A80
4A80
4A80
8A80
8A80
3380
ENDCHAR
STARTCHAR uni52A3
ENCODING 21155
SWIDTH 1000 0
DWIDTH 10 0
BBX 9 10 0 -1
BITMAP
0800
0800
4900
9880
0600
F800
0800
7F80
1080
E300
ENDCHAR
STARTCHAR uni52A9
ENCODING 21161
SWIDTH 1000 0
DWIDTH 10 0
BBX 9 10 0 -1
BITMAP
0200
F200
9200
FF80
9280
9280
F480
9480
9080
FB00
ENDCHAR
STARTCHAR uni52AA
ENCODING 21162
SWIDTH 1000 0
DWIDTH 10 0
BBX 9 10 0 -1
BITMAP
2000
2780
F880
4A80
3300
CC80
1000
FF80
1080
6700
ENDCHAR
STARTCHAR uni52AB
ENCODING 21163
SWIDTH 1000 0
DWIDTH 10 0
BBX 9 10 0 -1
BITMAP
2200
2200
F200
2F80
2280
F280
4480
9480
F080
1300
ENDCHAR
STARTCHAR uni52AC
ENCODING 21164
SWIDTH 1000 0
DWIDTH 10 0
BBX 9 10 0 -1
BITMAP
4200
4200
7A00
8F80
EA80
AA80
AA80
EC80
0880
3300
ENDCHAR
STARTCHAR uni52AD
ENCODING 21165
SWIDTH 1000 0
DWIDTH 10 0
BBX 9 10 0 -1
BITMAP
0200
F200
5200
5F80
B280
0280
F480
9480
9080
F300
ENDCHAR
STARTCHAR uni52B1
ENCODING 21169
SWIDTH 1000 0
DWIDTH 10 0
BBX 9 10 0 -1
BITMAP
0200
FA00
8200
FF80
A280
BA80
AA80
AC80
4880
5B00
ENDCHAR
STARTCHAR uni52B4
ENCODING 21172
SWIDTH 1000 0
DWIDTH 10 0
BBX 9 10 0 -1
BITMAP
1100
4A00
2400
FF80
8880
0800
7F00
1100
2100
C600
ENDCHAR
STARTCHAR uni52B5
ENCODING 21173
SWIDTH 1000 0
DWIDTH 10 0
BBX 9 10 0 -1
BITMAP
0800
2A00
4900
FF80
1200
FF80
4900
BF80
1100
6600
ENDCHAR
STARTCHAR uni52B9
ENCODING 21177
SWIDTH 1000 0
DWIDTH 10 0
BBX 9 10 0 -1
BITMAP
2200
2200
FA00
5780
8A80
0280
5480
2480
5080
8300
ENDCHAR
STARTCHAR uni52BC
ENCODING 21180
SWIDTH 1000 0
DWIDTH 10 0
BBX 9 10 0 -1
BITMAP
4200
4200
F200
4F80
F280
0280
F480
9480
9080
F300
ENDCHAR
STARTCHAR uni52BE
ENCODING 21182
SWIDTH 1000 0
DWIDTH 10 0
BBX 9 10 0 -1
BITMAP
2200
2200
FA00
4F80
8A80
5280
2480
C880
3080
CB00
ENDCHAR
STARTCHAR uni52C1
ENCODING 21185
SWIDTH 1000 0
DWIDTH 10 0
BBX 9 10 0 -1
BITMAP
0200
FA00
5200
AF80
5280
0280
FC80
2480
2080
FB00
ENDCHAR
STARTCHAR uni52C3
ENCODING 21187
SWIDTH 1000 0
DWIDTH 10 0
BBX 9 10 0 -1
BITMAP
2200
2200
FA00
2780
FA80
9280
2480
FC80
2080
6300
ENDCHAR
STARTCHAR uni52C5
ENCODING 21189
SWIDTH 1000 0
DWIDTH 10 0
BBX 9 10 0 -1
BITMAP
0200
2200
FA00
2780
FA80
AA80
FC80
2480
7080
AB00
ENDCHAR
STARTCHAR uni52C7
ENCODING 21191
SWIDTH 1000 0
DWIDTH 10 0
BBX 9 9 0 -1
BITMAP
7E00
0400
7F00
4900
7F00
4900
FF80
1080
E300
ENDCHAR
STARTCHAR uni52C9
ENCODING 21193
SWIDTH 1000 0
DWIDTH 10 0
BBX 9 10 0 -1
BITMAP
0200
7200
9200
FF80
AA80
AA80
FC80
5580
9000
9F80
ENDCHAR
STARTCHAR uni52CD
ENCODING 21197
SWIDTH 1000 0
DWIDTH 10 0
BBX 9 10 0 -1
BITMAP
2200
2200
F200
0F80
F280
9280
F480
2480
A880
AB00
ENDCHAR
STARTCHAR uni52D2
ENCODING 21202
SWIDTH 1000 0
DWIDTH 10 0
BBX 9 10 0 -1
BITMAP
0200
5200
FA00
5780
FA80
AA80
FA80
2480
FC80
2300
ENDCHAR
STARTCHAR uni52D5
ENCODING 21205
SWIDTH 1000 0
DWIDTH 10 0
BBX 9 10 0 -1
BITMAP
0200
FA00
2200
FF80
AA80
FA80
AA80
FC80
2080
FB00
ENDCHAR
STARTCHAR uni52D7
ENCODING 21207
SWIDTH 1000 0
DWIDTH 10 0
BBX 9 9 0 -1
BITMAP
7F00
4100
7F00
4100
F200
9F80
F280
9480
FB00
ENDCHAR
STARTCHAR uni52D8
ENCODING 21208
SWIDTH 1000 0
DWIDTH 10 0
BBX 9 10 0 -1
BITMAP
0200
4A00
FA00
4F80
7A80
4A80
FA80
AC80
8080
FB00
ENDCHAR
STARTCHAR uni52D9
ENCODING 21209
SWIDTH 1000 0
DWIDTH 10 0
BBX 9 10 0 -1
BITMAP
0400
F400
1F80
2900
E600
3980
6400
BF80
2480
6B00
ENDCHAR
STARTCHAR uni52DD
ENCODING 21213
SWIDTH 1000 0
DWIDTH 10 0
BBX 9 10 0 -1
BITMAP
0200
EA80
BF80
E500
BF80
A900
E480
BF80
A880
B300
ENDCHAR
STARTCHAR uni52DE
ENCODING 21214
SWIDTH 1000 0
DWIDTH 10 0
BBX 9 10 0 -1
BITMAP
2200
AA80
AA80
5500
8880
FF80
8880
7F00
1100
E600
ENDCHAR
STARTCHAR uni52DF
ENCODING 21215
SWIDTH 1000 0
DWIDTH 10 0
BBX 9 10 0 -1
BITMAP
1400
FF80
1400
7F00
4100
FF80
2900
7F80
9100
2600
ENDCHAR
STARTCHAR uni52E0
ENCODING 21216
SWIDTH 1000 0
DWIDTH 10 0
BBX 9 10 0 -1
BITMAP
0200
DA00
6A00
DF80
6A80
D280
2A80
C480
1080
E300
ENDCHAR
STARTCHAR uni52E2
ENCODING 21218
SWIDTH 1000 0
DWIDTH 10 0
BBX 9 10 0 -1
BITMAP
2200
2200
FF80
5280
AE80
F380
2400
FF80
1080
E300
ENDCHAR
STARTCHAR uni52E3
ENCODING 21219
SWIDTH 1000 0
DWIDTH 10 0
BBX 9 10 0 -1
BITMAP
2200
2200
FA00
2780
FA80
2280
FC80
9480
7080
8B00
ENDCHAR
STARTCHAR uni52E4
ENCODING 21220
SWIDTH 1000 0
DWIDTH 10 0
BBX 9 10 0 -1
BITMAP
5200
FA00
5200
FF80
AA80
FA80
2280
FC80
2080
FB00
ENDCHAR
STARTCHAR uni52E6
ENCODING 21222
SWIDTH 1000 0
DWIDTH 10 0
BBX 9 10 0 -1
BITMAP
4200
AA00
5200
FF80
AA80
FA80
AA80
FC80
6080
AB00
ENDCHAR
STARTCHAR uni52E7
ENCODING 21223
SWIDTH 1000 0
DWIDTH 10 0
BBX 9 10 0 -1
BITMAP
4200
4200
7A00
A780
FA80
A280
FC80
A480
A080
FB00
ENDCHAR
STARTCHAR uni52F2
ENCODING 21234
SWIDTH 1000 0
DWIDTH 10 0
BBX 9 10 0 -1
BITMAP
0200
FA00
2780
FA80
AA80
FC80
2080
FB00
0000
9480
ENDCHAR
STARTCHAR uni52F3
ENCODING 21235
SWIDTH 1000 0
DWIDTH 10 0
BBX 9 10 0 -1
BITMAP
0200
FA00
2200
FF80
AA80
FA80
2280
FC80
0080
AB00
ENDCHAR
STARTCHAR uni52F5
ENCODING 21237
SWIDTH 1000 0
DWIDTH 10 0
BBX 9 10 0 -1
BITMAP
0200
FE00
9200
FF80
AA80
FA80
AA80
FC80
A480
B580
ENDCHAR
STARTCHAR uni52F8
ENCODING 21240
SWIDTH 1000 0
DWIDTH 10 0
BBX 9 10 0 -1
BITMAP
5200
FA00
5200
FF80
AA80
FA80
5480
FC80
9080
FB00
ENDCHAR
STARTCHAR uni52F9
ENCODING 21241
SWIDTH 1000 0
DWIDTH 10 0
BBX 9 10 0 -1
BITMAP
2000
2000
3F80
4080
4080
8080
8080
0080
0100
0600
ENDCHAR
STARTCHAR uni52FA
ENCODING 21242
SWIDTH 1000 0
DWIDTH 10 0
BBX 9 10 0 -1
BITMAP
2000
2000
3F80
4080
4080
9080
8880
0080
0100
0600
ENDCHAR
STARTCHAR uni52FE
ENCODING 21246
SWIDTH 1000 0
DWIDTH 10 0
BBX 9 10 0 -1
BITMAP
4000
4000
7F80
8080
A080
2080
4480
7C80
0100
0E00
ENDCHAR
STARTCHAR uni52FF
ENCODING 21247
SWIDTH 1000 0
DWIDTH 10 0
BBX 9 10 0 -1
BITMAP
2000
2000
3F80
4A80
4A80
9280
9480
2480
4880
1300
ENDCHAR
STARTCHAR uni5301
ENCODING 21249
SWIDTH 1000 0
DWIDTH 10 0
BBX 9 10 0 -1
BITMAP
2000
2000
3F80
4480
5480
8880
8C80
1280
2100
0600
ENDCHAR
STARTCHAR uni5302
ENCODING 21250
SWIDTH 1000 0
DWIDTH 10 0
BBX 9 10 0 -1
BITMAP
2000
2000
3F80
4080
6480
A880
B080
2480
3C80
0300
ENDCHAR
STARTCHAR uni5305
ENCODING 21253
SWIDTH 1000 0
DWIDTH 10 0
BBX 9 10 0 -1
BITMAP
2000
2000
7F80
4080
BC80
8480
3D80
2000
2080
3F80
ENDCHAR
STARTCHAR uni5306
ENCODING 21254
SWIDTH 1000 0
DWIDTH 10 0
BBX 9 10 0 -1
BITMAP
2000
2000
3F80
4A80
6A80
9280
9C80
2680
4880
1300
ENDCHAR
STARTCHAR uni5308
ENCODING 21256
SWIDTH 1000 0
DWIDTH 10 0
BBX 9 10 0 -1
BITMAP
2000
2000
3F80
4480
A880
9480
6C80
4480
7C80
0300
ENDCHAR
STARTCHAR uni530D
ENCODING 21261
SWIDTH 1000 0
DWIDTH 10 0
BBX 9 10 0 -1
BITMAP
2000
2000
3F80
5480
FE80
9080
7C80
5480
7C80
5700
ENDCHAR
STARTCHAR uni530F
ENCODING 21263
SWIDTH 1000 0
DWIDTH 10 0
BBX 9 10 0 -1
BITMAP
2400
2400
FF80
5480
8F80
F900
4700
F400
9480
3780
ENDCHAR
STARTCHAR uni5310
ENCODING 21264
SWIDTH 1000 0
DWIDTH 10 0
BBX 9 10 0 -1
BITMAP
2000
2000
3F80
4080
FC80
A880
7C80
5480
7C80
0300
ENDCHAR
STARTCHAR uni5315
ENCODING 21269
SWIDTH 1000 0
DWIDTH 10 0
BBX 9 10 0 -1
BITMAP
2000
2000
2000
2100
2600
3800
E000
2080
2080
3F80
ENDCHAR
STARTCHAR uni5316
ENCODING 21270
SWIDTH 1000 0
DWIDTH 10 0
BBX 9 10 0 -1
BITMAP
0800
2800
2880
4900
CA00
4C00
4800
4880
4880
4F80
ENDCHAR
STARTCHAR uni5317
ENCODING 21271
SWIDTH 1000 0
DWIDTH 10 0
BBX 9 10 0 -1
BITMAP
0400
2400
2480
E500
2600
2400
2400
6480
A480
2780
ENDCHAR
STARTCHAR uni5319
ENCODING 21273
SWIDTH 1000 0
DWIDTH 10 0
BBX 9 9 0 -1
BITMAP
F400
9480
F500
9600
F400
2480
B780
E000
9F80
ENDCHAR
STARTCHAR uni531A
ENCODING 21274
SWIDTH 1000 0
DWIDTH 10 0
BBX 9 9 0 -1
BITMAP
FF80
8000
8000
8000
8000
8000
8000
8000
FF80
ENDCHAR
STARTCHAR uni531D
ENCODING 21277
SWIDTH 1000 0
DWIDTH 10 0
BBX 9 9 0 -1
BITMAP
FF80
8400
8400
9F80
9480
9480
9580
8400
FF80
ENDCHAR
STARTCHAR uni5320
ENCODING 21280
SWIDTH 1000 0
DWIDTH 10 0
BBX 9 9 0 -1
BITMAP
FF80
8000
9F00
9000
9F80
A200
A200
8200
FF80
ENDCHAR
STARTCHAR uni5321
ENCODING 21281
SWIDTH 1000 0
DWIDTH 10 0
BBX 9 9 0 -1
BITMAP
FF80
8000
BF80
8400
9F00
8400
BF80
8000
FF80
ENDCHAR
STARTCHAR uni5323
ENCODING 21283
SWIDTH 1000 0
DWIDTH 10 0
BBX 9 9 0 -1
BITMAP
FF80
8000
BF00
A500
BF00
A500
BF00
8400
FF80
ENDCHAR
STARTCHAR uni532A
ENCODING 21290
SWIDTH 1000 0
DWIDTH 10 0
BBX 9 9 0 -1
BITMAP
FF80
8A00
8A00
FB80
8A00
BB80
8A00
9200
FF80
ENDCHAR
STARTCHAR uni532F
ENCODING 21295
SWIDTH 1000 0
DWIDTH 10 0
BBX 9 9 0 -1
BITMAP
FF80
8A00
AF00
9A00
CF00
AA00
CF00
8000
FF80
ENDCHAR
STARTCHAR uni5331
ENCODING 21297
SWIDTH 1000 0
DWIDTH 10 0
BBX 9 9 0 -1
BITMAP
FF80
8400
BF00
A500
FF80
9100
9F00
A080
FF80
ENDCHAR
STARTCHAR uni5333
ENCODING 21299
SWIDTH 1000 0
DWIDTH 10 0
BBX 9 9 0 -1
BITMAP
FF80
9200
A100
FF80
A500
BF00
9200
A500
FF80
ENDCHAR
STARTCHAR uni5338
ENCODING 21304
SWIDTH 1000 0
DWIDTH 10 0
BBX 9 9 0 -1
BITMAP
FF80
4000
4000
4000
4000
4000
4000
4000
3F80
ENDCHAR
STARTCHAR uni5339
ENCODING 21305
SWIDTH 1000 0
DWIDTH 10 0
BBX 9 9 0 -1
BITMAP
FF80
9200
9200
9200
A380
C000
8000
FF80
8000
ENDCHAR
STARTCHAR uni533A
ENCODING 21306
SWIDTH 1000 0
DWIDTH 10 0
BBX 9 9 0 -1
BITMAP
FF80
8000
9100
8A00
8400
8A00
9100
8000
FF80
ENDCHAR
STARTCHAR uni533B
ENCODING 21307
SWIDTH 1000 0
DWIDTH 10 0
BBX 9 9 0 -1
BITMAP
FF80
9000
9F00
A400
FF80
8A00
9100
A080
FF80
ENDCHAR
STARTCHAR uni533F
ENCODING 21311
SWIDTH 1000 0
DWIDTH 10 0
BBX 9 9 0 -1
BITMAP
FF80
9200
BF00
8800
FF80
9000
BF00
9100
FF80
ENDCHAR
STARTCHAR uni5340
ENCODING 21312
SWIDTH 1000 0
DWIDTH 10 0
BBX 9 9 0 -1
BITMAP
FF80
8A00
8A00
8E00
8000
BB80
AA80
AA80
FF80
ENDCHAR
STARTCHAR uni5341
ENCODING 21313
SWIDTH 1000 0
DWIDTH 10 0
BBX 9 10 0 -1
BITMAP
0800
0800
0800
0800
FF80
0800
0800
0800
0800
0800
ENDCHAR
STARTCHAR uni5343
ENCODING 21315
SWIDTH 1000 0
DWIDTH 10 0
BBX 9 9 0 -1
BITMAP
0700
7800
0800
0800
FF80
0800
0800
0800
0800
ENDCHAR
STARTCHAR uni5345
ENCODING 21317
SWIDTH 1000 0
DWIDTH 10 0
BBX 9 9 0 -1
BITMAP
4900
4900
4900
FF80
4900
4900
4900
8900
8900
ENDCHAR
STARTCHAR uni5346
ENCODING 21318
SWIDTH 1000 0
DWIDTH 10 0
BBX 9 10 0 -1
BITMAP
0800
0800
FE00
1280
2280
CB80
0800
FF80
0800
0800
ENDCHAR
STARTCHAR uni5347
ENCODING 21319
SWIDTH 1000 0
DWIDTH 10 0
BBX 9 9 0 -1
BITMAP
1A00
E200
2200
2200
FF80
2200
2200
4200
4200
ENDCHAR
STARTCHAR uni5348
ENCODING 21320
SWIDTH 1000 0
DWIDTH 10 0
BBX 9 10 0 -1
BITMAP
4000
4000
7F80
8800
8800
0800
FF80
0800
0800
0800
ENDCHAR
STARTCHAR uni5349
ENCODING 21321
SWIDTH 1000 0
DWIDTH 10 0
BBX 9 10 0 -1
BITMAP
0800
0800
FF80
0800
2A00
2200
FF80
2200
4200
4200
ENDCHAR
STARTCHAR uni534A
ENCODING 21322
SWIDTH 1000 0
DWIDTH 10 0
BBX 9 10 0 -1
BITMAP
0800
0800
4900
2A00
0800
FF80
0800
FF80
0800
0800
ENDCHAR
STARTCHAR uni534D
ENCODING 21325
SWIDTH 1000 0
DWIDTH 10 0
BBX 9 9 0 -1
BITMAP
F880
0880
0880
0880
FF80
8800
8800
8800
8F80
ENDCHAR
STARTCHAR uni5351
ENCODING 21329
SWIDTH 1000 0
DWIDTH 10 0
BBX 9 10 0 -1
BITMAP
0800
1000
7F00
4900
7F00
4900
7F00
2400
FF80
0400
ENDCHAR
STARTCHAR uni5352
ENCODING 21330
SWIDTH 1000 0
DWIDTH 10 0
BBX 9 10 0 -1
BITMAP
0800
0800
FF80
2200
2200
5500
8880
FF80
0800
0800
ENDCHAR
STARTCHAR uni5353
ENCODING 21331
SWIDTH 1000 0
DWIDTH 10 0
BBX 9 10 0 -1
BITMAP
0800
0800
0F00
0800
3F00
2100
3F00
2100
FF80
0800
ENDCHAR
STARTCHAR uni5354
ENCODING 21332
SWIDTH 1000 0
DWIDTH 10 0
BBX 9 10 0 -1
BITMAP
0400
4400
5F80
4480
E480
4900
7F80
5480
5480
6D80
ENDCHAR
STARTCHAR uni5357
ENCODING 21335
SWIDTH 1000 0
DWIDTH 10 0
BBX 9 10 0 -1
BITMAP
0800
0800
FF80
0800
FF80
9480
BE80
8880
BE80
8980
ENDCHAR
STARTCHAR uni5358
ENCODING 21336
SWIDTH 1000 0
DWIDTH 10 0
BBX 9 10 0 -1
BITMAP
4900
0200
7F00
4900
7F00
4900
7F00
0800
FF80
0800
ENDCHAR
STARTCHAR uni535A
ENCODING 21338
SWIDTH 1000 0
DWIDTH 10 0
BBX 9 10 0 -1
BITMAP
0200
4280
5F80
4A80
EF80
4A80
5F80
4080
4880
4580
ENDCHAR
STARTCHAR uni535C
ENCODING 21340
SWIDTH 1000 0
DWIDTH 10 0
BBX 4 9 3 -1
BITMAP
80
80
80
C0
A0
90
80
80
80
ENDCHAR
STARTCHAR uni535E
ENCODING 21342
SWIDTH 1000 0
DWIDTH 10 0
BBX 9 10 0 -1
BITMAP
0800
0800
FF80
0800
0C00
0A00
0900
0800
0800
0800
ENDCHAR
STARTCHAR uni5360
ENCODING 21344
SWIDTH 1000 0
DWIDTH 10 0
BBX 7 10 1 -1
BITMAP
10
10
10
1E
10
10
FE
82
82
FE
ENDCHAR
STARTCHAR uni5366
ENCODING 21350
SWIDTH 1000 0
DWIDTH 10 0
BBX 10 10 0 -1
BITMAP
2200
2200
FA00
2200
FB00
2280
FA40
2200
2200
FA00
ENDCHAR
STARTCHAR uni5369
ENCODING 21353
SWIDTH 1000 0
DWIDTH 10 0
BBX 6 9 2 -1
BITMAP
FC
84
84
84
84
84
9C
80
80
ENDCHAR
STARTCHAR uni536E
ENCODING 21358
SWIDTH 1000 0
DWIDTH 10 0
BBX 9 9 0 -1
BITMAP
7F80
4000
7F80
4000
5F00
5100
5300
9080
9F80
ENDCHAR
STARTCHAR uni536F
ENCODING 21359
SWIDTH 1000 0
DWIDTH 10 0
BBX 9 9 0 -1
BITMAP
3780
C480
9480
9480
9480
F480
9480
2580
2400
ENDCHAR
STARTCHAR uni5370
ENCODING 21360
SWIDTH 1000 0
DWIDTH 10 0
BBX 9 9 0 -1
BITMAP
3780
C480
8480
F480
8480
8480
8480
F580
0400
ENDCHAR
STARTCHAR uni5371
ENCODING 21361
SWIDTH 1000 0
DWIDTH 10 0
BBX 9 9 0 -1
BITMAP
3E00
4400
FF80
4000
5F00
5100
5300
9080
9F80
ENDCHAR
STARTCHAR uni5373
ENCODING 21363
SWIDTH 1000 0
DWIDTH 10 0
BBX 9 9 0 -1
BITMAP
F780
9480
F480
9480
9480
F480
A480
9580
EC00
ENDCHAR
STARTCHAR uni5374
ENCODING 21364
SWIDTH 1000 0
DWIDTH 10 0
BBX 9 10 0 -1
BITMAP
2000
2780
FC80
2480
2480
FC80
4480
8C80
F580
0400
ENDCHAR
STARTCHAR uni5375
ENCODING 21365
SWIDTH 1000 0
DWIDTH 10 0
BBX 9 9 0 -1
BITMAP
3780
C480
9480
D680
9580
B480
D480
1580
6400
ENDCHAR
STARTCHAR uni5377
ENCODING 21367
SWIDTH 1000 0
DWIDTH 10 0
BBX 9 10 0 -1
BITMAP
0800
2A00
4900
FF80
1200
FF80
4500
BC80
2100
3F00
ENDCHAR
STARTCHAR uni5378
ENCODING 21368
SWIDTH 1000 0
DWIDTH 10 0
BBX 9 10 0 -1
BITMAP
4000
4780
7C80
A480
FC80
2480
3480
A480
A580
FC00
ENDCHAR
STARTCHAR uni537B
ENCODING 21371
SWIDTH 1000 0
DWIDTH 10 0
BBX 9 9 0 -1
BITMAP
5380
8A80
0280
7280
8A80
0680
FB80
8A00
FA00
ENDCHAR
STARTCHAR uni537F
ENCODING 21375
SWIDTH 1000 0
DWIDTH 10 0
BBX 9 9 0 -1
BITMAP
FB80
AA80
BA80
AA80
BA80
A280
EA80
3B80
6200
ENDCHAR
STARTCHAR uni5382
ENCODING 21378
SWIDTH 1000 0
DWIDTH 10 0
BBX 9 9 0 -1
BITMAP
7F80
4000
4000
4000
4000
4000
4000
8000
8000
ENDCHAR
STARTCHAR uni5384
ENCODING 21380
SWIDTH 1000 0
DWIDTH 10 0
BBX 9 9 0 -1
BITMAP
7F80
4000
5F00
5100
5100
5300
5000
9080
9F80
ENDCHAR
STARTCHAR uni5396
ENCODING 21398
SWIDTH 1000 0
DWIDTH 10 0
BBX 9 9 0 -1
BITMAP
FF80
9100
9200
FC80
9100
9200
9880
2900
CF80
ENDCHAR
STARTCHAR uni5398
ENCODING 21400
SWIDTH 1000 0
DWIDTH 10 0
BBX 9 9 0 -1
BITMAP
7F80
4000
5F80
5280
5F80
5280
9F80
8200
3F80
ENDCHAR
STARTCHAR uni539A
ENCODING 21402
SWIDTH 1000 0
DWIDTH 10 0
BBX 9 9 0 -1
BITMAP
7F80
5080
5F80
5080
5F80
4100
9F80
8200
0E00
ENDCHAR
STARTCHAR uni539F
ENCODING 21407
SWIDTH 1000 0
DWIDTH 10 0
BBX 9 9 0 -1
BITMAP
7F80
4400
5F00
5100
5F00
9100
9F00
2500
4C80
ENDCHAR
STARTCHAR uni53A0
ENCODING 21408
SWIDTH 1000 0
DWIDTH 10 0
BBX 9 9 0 -1
BITMAP
FF80
8000
FA80
8A80
FA80
8A80
FA80
5080
8980
ENDCHAR
STARTCHAR uni53A5
ENCODING 21413
SWIDTH 1000 0
DWIDTH 10 0
BBX 9 9 0 -1
BITMAP
FF80
9400
A400
FF80
A280
AA00
FA00
2500
4880
ENDCHAR
STARTCHAR uni53A6
ENCODING 21414
SWIDTH 1000 0
DWIDTH 10 0
BBX 9 9 0 -1
BITMAP
FF80
8400
BF00
A100
BF00
A100
D300
1E00
E180
ENDCHAR
STARTCHAR uni53A8
ENCODING 21416
SWIDTH 1000 0
DWIDTH 10 0
BBX 9 9 0 -1
BITMAP
FF80
8100
F900
8780
F900
8D00
F900
5100
FB00
ENDCHAR
STARTCHAR uni53A9
ENCODING 21417
SWIDTH 1000 0
DWIDTH 10 0
BBX 9 9 0 -1
BITMAP
FF80
8000
F780
9500
F500
9F80
F300
A500
D980
ENDCHAR
STARTCHAR uni53AD
ENCODING 21421
SWIDTH 1000 0
DWIDTH 10 0
BBX 9 9 0 -1
BITMAP
FF80
9200
F280
8F80
F200
9200
F200
9500
B880
ENDCHAR
STARTCHAR uni53AE
ENCODING 21422
SWIDTH 1000 0
DWIDTH 10 0
BBX 9 9 0 -1
BITMAP
FF80
AA00
FA00
AB80
BA80
AA80
FE80
2280
4880
ENDCHAR
STARTCHAR uni53B0
ENCODING 21424
SWIDTH 1000 0
DWIDTH 10 0
BBX 9 9 0 -1
BITMAP
FF80
A400
B780
A480
FA80
8A80
E900
AA80
EC80
ENDCHAR
STARTCHAR uni53B3
ENCODING 21427
SWIDTH 1000 0
DWIDTH 10 0
BBX 9 10 0 -1
BITMAP
0400
2500
FF80
9200
FF80
A880
BA80
AA80
FB00
8C80
ENDCHAR
STARTCHAR uni53B6
ENCODING 21430
SWIDTH 1000 0
DWIDTH 10 0
BBX 9 9 0 -1
BITMAP
1000
1000
1000
2100
2100
2100
4680
F880
0080
ENDCHAR
STARTCHAR uni53BB
ENCODING 21435
SWIDTH 1000 0
DWIDTH 10 0
BBX 9 10 0 -1
BITMAP
0800
0800
7F00
0800
0800
FF80
1200
2200
4500
7900
ENDCHAR
STARTCHAR uni53C2
ENCODING 21442
SWIDTH 1000 0
DWIDTH 10 0
BBX 9 10 0 -1
BITMAP
1000
2200
7F00
0800
FF80
2200
CD00
3080
0600
7800
ENDCHAR
STARTCHAR uni53C3
ENCODING 21443
SWIDTH 1000 0
DWIDTH 10 0
BBX 9 10 0 -1
BITMAP
1000
2200
7F00
2200
5500
F780
2A00
D100
0680
7800
ENDCHAR
STARTCHAR uni53C8
ENCODING 21448
SWIDTH 1000 0
DWIDTH 10 0
BBX 9 9 0 -1
BITMAP
7F00
0100
0100
2200
2200
1400
0800
3600
C180
ENDCHAR
STARTCHAR uni53C9
ENCODING 21449
SWIDTH 1000 0
DWIDTH 10 0
BBX 9 9 0 -1
BITMAP
7F00
1100
0900
0200
2200
1400
0800
3600
C180
ENDCHAR
STARTCHAR uni53CA
ENCODING 21450
SWIDTH 1000 0
DWIDTH 10 0
BBX 8 9 1 -1
BITMAP
FE
22
24
47
51
8A
84
1A
E1
ENDCHAR
STARTCHAR uni53CB
ENCODING 21451
SWIDTH 1000 0
DWIDTH 10 0
BBX 9 10 0 -1
BITMAP
1000
1000
FF80
1000
1F00
2100
2900
4A00
8600
3980
ENDCHAR
STARTCHAR uni53CC
ENCODING 21452
SWIDTH 1000 0
DWIDTH 10 0
BBX 9 9 0 -1
BITMAP
FF80
1080
5480
5480
2500
2500
5200
8D00
3080
ENDCHAR
STARTCHAR uni53CD
ENCODING 21453
SWIDTH 1000 0
DWIDTH 10 0
BBX 9 9 0 -1
BITMAP
7F80
4000
4000
7F00
5100
5100
8A00
8E00
3180
ENDCHAR
STARTCHAR uni53CE
ENCODING 21454
SWIDTH 1000 0
DWIDTH 10 0
BBX 9 9 0 -1
BITMAP
2F80
2080
A480
A480
A500
B500
E200
A600
3980
ENDCHAR
STARTCHAR uni53D4
ENCODING 21460
SWIDTH 1000 0
DWIDTH 10 0
BBX 9 10 0 -1
BITMAP
2000
2780
3880
2280
2280
FA80
2100
A900
AA80
6C80
ENDCHAR
STARTCHAR uni53D6
ENCODING 21462
SWIDTH 1000 0
DWIDTH 10 0
BBX 9 9 0 -1
BITMAP
FF80
4880
7880
4A80
7A80
4900
4900
FA80
0C80
ENDCHAR
STARTCHAR uni53D7
ENCODING 21463
SWIDTH 1000 0
DWIDTH 10 0
BBX 9 9 0 -1
BITMAP
7F00
2500
1200
FF80
8080
7E00
2200
1C00
E380
ENDCHAR
STARTCHAR uni53D9
ENCODING 21465
SWIDTH 1000 0
DWIDTH 10 0
BBX 9 9 0 -1
BITMAP
7780
8080
F880
2280
FA80
2280
A900
AB00
6C80
ENDCHAR
STARTCHAR uni53DB
ENCODING 21467
SWIDTH 1000 0
DWIDTH 10 0
BBX 9 9 0 -1
BITMAP
2F80
A800
A800
2F80
F880
2480
F500
4300
4C80
ENDCHAR
STARTCHAR uni53DF
ENCODING 21471
SWIDTH 1000 0
DWIDTH 10 0
BBX 9 10 0 -1
BITMAP
0800
2800
CB80
8880
EB80
8880
FF80
2200
1C00
E380
ENDCHAR
STARTCHAR uni53E1
ENCODING 21473
SWIDTH 1000 0
DWIDTH 10 0
BBX 9 10 0 -1
BITMAP
3000
2380
FC80
B480
4A80
F280
8D00
F900
8A80
FC80
ENDCHAR
STARTCHAR uni53E2
ENCODING 21474
SWIDTH 1000 0
DWIDTH 10 0
BBX 9 10 0 -1
BITMAP
1400
5500
FF80
2200
FF80
9000
FF80
9480
F300
1C80
ENDCHAR
STARTCHAR uni53E3
ENCODING 21475
SWIDTH 1000 0
DWIDTH 10 0
BBX 9 8 0 -1
BITMAP
FF80
8080
8080
8080
8080
8080
FF80
8080
ENDCHAR
STARTCHAR uni53E4
ENCODING 21476
SWIDTH 1000 0
DWIDTH 10 0
BBX 9 10 0 -1
BITMAP
0800
0800
0800
FF80
0800
0800
7F00
4100
4100
7F00
ENDCHAR
STARTCHAR uni53E5
ENCODING 21477
SWIDTH 1000 0
DWIDTH 10 0
BBX 9 10 0 -1
BITMAP
2000
2000
3F80
4080
7C80
A480
A480
3C80
0100
0600
ENDCHAR
STARTCHAR uni53E8
ENCODING 21480
SWIDTH 1000 0
DWIDTH 10 0
BBX 9 9 0 -1
BITMAP
1F80
E480
A480
A480
A480
A480
A880
E880
0300
ENDCHAR
STARTCHAR uni53E9
ENCODING 21481
SWIDTH 1000 0
DWIDTH 10 0
BBX 9 9 0 -1
BITMAP
F780
9480
9480
9480
9480
9480
9480
F580
0400
ENDCHAR
STARTCHAR uni53EA
ENCODING 21482
SWIDTH 1000 0
DWIDTH 10 0
BBX 9 9 0 -1
BITMAP
7F00
4100
4100
4100
4100
7F00
0000
4100
8080
ENDCHAR
STARTCHAR uni53EB
ENCODING 21483
SWIDTH 1000 0
DWIDTH 10 0
BBX 9 9 0 -1
BITMAP
0100
E900
A900
A900
A900
A980
AF00
F900
0100
ENDCHAR
STARTCHAR uni53EC
ENCODING 21484
SWIDTH 1000 0
DWIDTH 10 0
BBX 9 9 0 -1
BITMAP
FF80
0880
3080
C300
0000
7F00
4100
4100
7F00
ENDCHAR
STARTCHAR uni53ED
ENCODING 21485
SWIDTH 1000 0
DWIDTH 10 0
BBX 9 9 0 -1
BITMAP
0F00
E100
A900
A900
A900
A900
A880
F080
1080
ENDCHAR
STARTCHAR uni53EE
ENCODING 21486
SWIDTH 1000 0
DWIDTH 10 0
BBX 9 9 0 -1
BITMAP
1F80
E100
A100
A100
A100
A100
A100
E100
0700
ENDCHAR
STARTCHAR uni53EF
ENCODING 21487
SWIDTH 1000 0
DWIDTH 10 0
BBX 9 9 0 -1
BITMAP
FF80
0100
7900
4900
4900
4900
7900
0100
0300
ENDCHAR
STARTCHAR uni53F0
ENCODING 21488
SWIDTH 1000 0
DWIDTH 10 0
BBX 9 10 0 -1
BITMAP
1000
1000
2100
4100
FF80
0000
7F00
4100
4100
7F00
ENDCHAR
STARTCHAR uni53F1
ENCODING 21489
SWIDTH 1000 0
DWIDTH 10 0
BBX 9 10 0 -1
BITMAP
0800
0800
E800
A980
AE00
B800
A800
A880
E880
0F80
ENDCHAR
STARTCHAR uni53F2
ENCODING 21490
SWIDTH 1000 0
DWIDTH 10 0
BBX 9 10 0 -1
BITMAP
0800
0800
7F00
4900
4900
7F00
2800
1800
2600
C180
ENDCHAR
STARTCHAR uni53F3
ENCODING 21491
SWIDTH 1000 0
DWIDTH 10 0
BBX 9 10 0 -1
BITMAP
0800
0800
FF80
1000
1000
3F00
6100
A100
2100
3F00
ENDCHAR
STARTCHAR uni53F6
ENCODING 21494
SWIDTH 1000 0
DWIDTH 10 0
BBX 9 10 0 -1
BITMAP
0200
0200
E200
A200
BF80
A200
A200
A200
E200
0200
ENDCHAR
STARTCHAR uni53F7
ENCODING 21495
SWIDTH 1000 0
DWIDTH 10 0
BBX 9 9 0 -1
BITMAP
7F00
4100
7F00
0000
FF80
2000
7F00
4100
0E00
ENDCHAR
STARTCHAR uni53F8
ENCODING 21496
SWIDTH 1000 0
DWIDTH 10 0
BBX 9 9 0 -1
BITMAP
FF80
0080
7C80
0080
7C80
4480
4480
7C80
0180
ENDCHAR
STARTCHAR uni53FA
ENCODING 21498
SWIDTH 1000 0
DWIDTH 10 0
BBX 9 9 0 -1
BITMAP
0E00
E200
A200
A200
A500
A500
A900
E880
3080
ENDCHAR
STARTCHAR uni5401
ENCODING 21505
SWIDTH 1000 0
DWIDTH 10 0
BBX 9 9 0 -1
BITMAP
1F80
E200
A200
A200
BF80
A200
A200
E200
0600
ENDCHAR
STARTCHAR uni5403
ENCODING 21507
SWIDTH 1000 0
DWIDTH 10 0
BBX 9 10 0 -1
BITMAP
0800
0800
EF80
B000
AF80
A200
A400
A880
E880
0F80
ENDCHAR
STARTCHAR uni5404
ENCODING 21508
SWIDTH 1000 0
DWIDTH 10 0
BBX 9 10 0 -1
BITMAP
1000
1000
1F00
2100
5200
0E00
3100
DE80
2100
3F00
ENDCHAR
STARTCHAR uni5408
ENCODING 21512
SWIDTH 1000 0
DWIDTH 10 0
BBX 9 9 0 -1
BITMAP
1C00
2200
4100
BE80
0000
7F00
4100
4100
7F00
ENDCHAR
STARTCHAR uni5409
ENCODING 21513
SWIDTH 1000 0
DWIDTH 10 0
BBX 9 10 0 -1
BITMAP
0800
0800
FF80
0800
7F00
0000
7F00
4100
4100
7F00
ENDCHAR
STARTCHAR uni540A
ENCODING 21514
SWIDTH 1000 0
DWIDTH 10 0
BBX 9 9 0 -1
BITMAP
7F00
4100
4100
7F00
0800
FF80
8880
8880
8980
ENDCHAR
STARTCHAR uni540B
ENCODING 21515
SWIDTH 1000 0
DWIDTH 10 0
BBX 9 10 0 -1
BITMAP
0100
E100
A100
BF80
A100
A900
A500
A100
E100
0300
ENDCHAR
STARTCHAR uni540C
ENCODING 21516
SWIDTH 1000 0
DWIDTH 10 0
BBX 9 9 0 -1
BITMAP
FF80
8080
BE80
8080
BE80
A280
A280
BE80
8180
ENDCHAR
STARTCHAR uni540D
ENCODING 21517
SWIDTH 1000 0
DWIDTH 10 0
BBX 9 10 0 -1
BITMAP
0800
0800
0F00
1100
6200
1400
0F80
3080
D080
1F80
ENDCHAR
STARTCHAR uni540E
ENCODING 21518
SWIDTH 1000 0
DWIDTH 10 0
BBX 9 9 0 -1
BITMAP
0380
7C00
4000
7F80
4000
5F80
9080
9080
1F80
ENDCHAR
STARTCHAR uni540F
ENCODING 21519
SWIDTH 1000 0
DWIDTH 10 0
BBX 9 10 0 -1
BITMAP
0800
0800
FF80
0800
7F00
4900
7F00
2800
1800
E780
ENDCHAR
STARTCHAR uni5410
ENCODING 21520
SWIDTH 1000 0
DWIDTH 10 0
BBX 9 10 0 -1
BITMAP
0200
0200
E200
BF80
A200
A200
A200
A200
E200
1F80
ENDCHAR
STARTCHAR uni5411
ENCODING 21521
SWIDTH 1000 0
DWIDTH 10 0
BBX 9 10 0 -1
BITMAP
0800
1000
2000
FF80
8080
BE80
A280
A280
BE80
8180
ENDCHAR
STARTCHAR uni541B
ENCODING 21531
SWIDTH 1000 0
DWIDTH 10 0
BBX 9 9 0 -1
BITMAP
7F00
1100
FF80
1100
7F00
2000
7F00
A100
3F00
ENDCHAR
STARTCHAR uni541D
ENCODING 21533
SWIDTH 1000 0
DWIDTH 10 0
BBX 9 10 0 -1
BITMAP
0800
0800
FF80
2200
1C00
2200
C180
7F00
4100
7F00
ENDCHAR
STARTCHAR uni541F
ENCODING 21535
SWIDTH 1000 0
DWIDTH 10 0
BBX 9 9 0 -1
BITMAP
0700
E880
B000
AF80
A000
AF80
A080
E100
0600
ENDCHAR
STARTCHAR uni5420
ENCODING 21536
SWIDTH 1000 0
DWIDTH 10 0
BBX 9 10 0 -1
BITMAP
0200
0280
E280
BF80
A200
A200
A200
A500
E880
3080
ENDCHAR
STARTCHAR uni5426
ENCODING 21542
SWIDTH 1000 0
DWIDTH 10 0
BBX 9 9 0 -1
BITMAP
FF80
0400
1A00
E900
0880
7F00
4100
4100
7F00
ENDCHAR
STARTCHAR uni5429
ENCODING 21545
SWIDTH 1000 0
DWIDTH 10 0
BBX 9 9 0 -1
BITMAP
0700
E100
A880
A880
BF80
A480
A480
E880
0B00
ENDCHAR
STARTCHAR uni542B
ENCODING 21547
SWIDTH 1000 0
DWIDTH 10 0
BBX 9 9 0 -1
BITMAP
1C00
2200
7F00
8080
3E00
0400
7F00
4100
7F00
ENDCHAR
STARTCHAR uni542C
ENCODING 21548
SWIDTH 1000 0
DWIDTH 10 0
BBX 9 9 0 -1
BITMAP
0180
EE00
A800
AF80
A900
A900
A900
F100
1100
ENDCHAR
STARTCHAR uni542D
ENCODING 21549
SWIDTH 1000 0
DWIDTH 10 0
BBX 9 10 0 -1
BITMAP
0400
0400
FF80
A000
AF00
A900
A900
A900
F100
1180
ENDCHAR
STARTCHAR uni542E
ENCODING 21550
SWIDTH 1000 0
DWIDTH 10 0
BBX 9 10 0 -1
BITMAP
0400
0400
E880
A880
BF80
A500
A500
A500
E900
3180
ENDCHAR
STARTCHAR uni5436
ENCODING 21558
SWIDTH 1000 0
DWIDTH 10 0
BBX 9 10 0 -1
BITMAP
0E00
0200
FF80
9280
9280
9280
9580
9880
F080
1180
ENDCHAR
STARTCHAR uni5438
ENCODING 21560
SWIDTH 1000 0
DWIDTH 10 0
BBX 9 9 0 -1
BITMAP
1F80
E900
AA00
AB80
A880
B480
A300
E500
1880
ENDCHAR
STARTCHAR uni5439
ENCODING 21561
SWIDTH 1000 0
DWIDTH 10 0
BBX 9 10 0 -1
BITMAP
0800
0800
EF80
AA80
B280
A200
A200
A200
E500
1880
ENDCHAR
STARTCHAR uni543B
ENCODING 21563
SWIDTH 1000 0
DWIDTH 10 0
BBX 9 10 0 -1
BITMAP
0800
0800
EF80
BA80
AA80
AA80
B480
A480
E880
0B00
ENDCHAR
STARTCHAR uni543C
ENCODING 21564
SWIDTH 1000 0
DWIDTH 10 0
BBX 9 9 0 -1
BITMAP
1D00
E500
A500
A900
AF00
B900
A900
E900
1980
ENDCHAR
STARTCHAR uni543D
ENCODING 21565
SWIDTH 1000 0
DWIDTH 10 0
BBX 9 10 0 -1
BITMAP
0200
0A00
EA00
AF80
B200
A200
BF80
A200
E200
0200
ENDCHAR
STARTCHAR uni543E
ENCODING 21566
SWIDTH 1000 0
DWIDTH 10 0
BBX 9 9 0 -1
BITMAP
7F00
0800
7F00
1100
FF80
0000
7F00
4100
7F00
ENDCHAR
STARTCHAR uni5440
ENCODING 21568
SWIDTH 1000 0
DWIDTH 10 0
BBX 9 9 0 -1
BITMAP
1F80
E900
A900
A900
BF80
A300
A500
E900
1300
ENDCHAR
STARTCHAR uni5442
ENCODING 21570
SWIDTH 1000 0
DWIDTH 10 0
BBX 8 9 1 -1
BITMAP
7E
42
42
7E
10
FF
81
81
FF
ENDCHAR
STARTCHAR uni5446
ENCODING 21574
SWIDTH 1000 0
DWIDTH 10 0
BBX 9 9 0 -1
BITMAP
7F00
4100
4100
7F00
0800
FF80
1A00
2900
C880
ENDCHAR
STARTCHAR uni5448
ENCODING 21576
SWIDTH 1000 0
DWIDTH 10 0
BBX 9 9 0 -1
BITMAP
7F00
4100
4100
7F00
0800
7F00
0800
0800
FF80
ENDCHAR
STARTCHAR uni5449
ENCODING 21577
SWIDTH 1000 0
DWIDTH 10 0
BBX 9 9 0 -1
BITMAP
3F00
A100
BF00
8000
FF00
0100
FF80
2200
C180
ENDCHAR
STARTCHAR uni544A
ENCODING 21578
SWIDTH 1000 0
DWIDTH 10 0
BBX 9 10 0 -1
BITMAP
0800
4800
7F00
8800
FF80
0000
7F00
4100
4100
7F00
ENDCHAR
STARTCHAR uni544E
ENCODING 21582
SWIDTH 1000 0
DWIDTH 10 0
BBX 9 9 0 -1
BITMAP
0F80
E880
A880
AF80
A900
A900
A900
F080
1080
ENDCHAR
STARTCHAR uni5451
ENCODING 21585
SWIDTH 1000 0
DWIDTH 10 0
BBX 9 9 0 -1
BITMAP
7F00
0800
FF80
1200
2100
FF80
4100
4100
7F00
ENDCHAR
STARTCHAR uni545F
ENCODING 21599
SWIDTH 1000 0
DWIDTH 10 0
BBX 9 10 0 -1
BITMAP
0200
0200
FF80
A400
A880
A500
A200
A480
E880
0F80
ENDCHAR
STARTCHAR uni5468
ENCODING 21608
SWIDTH 1000 0
DWIDTH 10 0
BBX 9 9 0 -1
BITMAP
7F80
4880
7E80
4880
7F80
4080
7E80
A280
BF80
ENDCHAR
STARTCHAR uni546A
ENCODING 21610
SWIDTH 1000 0
DWIDTH 10 0
BBX 9 9 0 -1
BITMAP
0F80
E880
A880
A880
AF80
A500
A500
E900
0980
ENDCHAR
STARTCHAR uni5470
ENCODING 21616
SWIDTH 1000 0
DWIDTH 10 0
BBX 9 10 0 -1
BITMAP
0400
2400
3780
A400
BC80
E780
0000
7F00
4100
7F00
ENDCHAR
STARTCHAR uni5471
ENCODING 21617
SWIDTH 1000 0
DWIDTH 10 0
BBX 9 9 0 -1
BITMAP
3F80
E900
A900
A900
A900
A900
AA80
DE80
4080
ENDCHAR
STARTCHAR uni5473
ENCODING 21619
SWIDTH 1000 0
DWIDTH 10 0
BBX 9 10 0 -1
BITMAP
0200
0200
EF80
A200
A200
BF80
A200
A600
EB00
1280
ENDCHAR
STARTCHAR uni5475
ENCODING 21621
SWIDTH 1000 0
DWIDTH 10 0
BBX 9 9 0 -1
BITMAP
1F80
E080
AE80
AA80
AA80
AA80
AE80
E080
0180
ENDCHAR
STARTCHAR uni5476
ENCODING 21622
SWIDTH 1000 0
DWIDTH 10 0
BBX 9 9 0 -1
BITMAP
0B80
E880
BE80
AA80
AA80
B300
BD00
EA80
0A80
ENDCHAR
STARTCHAR uni5477
ENCODING 21623
SWIDTH 1000 0
DWIDTH 10 0
BBX 9 9 0 -1
BITMAP
1F80
F280
9280
9F80
9280
9280
9F80
F200
0200
ENDCHAR
STARTCHAR uni547B
ENCODING 21627
SWIDTH 1000 0
DWIDTH 10 0
BBX 9 10 0 -1
BITMAP
0200
0200
FF80
9280
9F80
9280
9280
9F80
F200
0200
ENDCHAR
STARTCHAR uni547C
ENCODING 21628
SWIDTH 1000 0
DWIDTH 10 0
BBX 9 9 0 -1
BITMAP
1F80
E200
AA80
AB00
A200
BF80
A200
E200
0600
ENDCHAR
STARTCHAR uni547D
ENCODING 21629
SWIDTH 1000 0
DWIDTH 10 0
BBX 9 9 0 -1
BITMAP
1E00
2100
7E80
8000
F780
9480
9480
F780
0400
ENDCHAR
STARTCHAR uni5480
ENCODING 21632
SWIDTH 1000 0
DWIDTH 10 0
BBX 9 9 0 -1
BITMAP
0F80
E880
AF80
A880
A880
AF80
A880
E880
1F80
ENDCHAR
STARTCHAR uni5484
ENCODING 21636
SWIDTH 1000 0
DWIDTH 10 0
BBX 9 10 0 -1
BITMAP
0200
0200
EA80
AA80
AF80
A200
A200
AA80
EA80
0F80
ENDCHAR
STARTCHAR uni5486
ENCODING 21638
SWIDTH 1000 0
DWIDTH 10 0
BBX 9 10 0 -1
BITMAP
0800
0800
EF80
B080
AF80
A900
AF00
A800
E880
0F80
ENDCHAR
STARTCHAR uni548B
ENCODING 21643
SWIDTH 1000 0
DWIDTH 10 0
BBX 9 10 0 -1
BITMAP
0800
0800
EF80
B400
A780
A400
A400
A780
E400
0400
ENDCHAR
STARTCHAR uni548C
ENCODING 21644
SWIDTH 1000 0
DWIDTH 10 0
BBX 9 9 0 -1
BITMAP
1800
E780
2480
FC80
2480
3480
6C80
A480
2780
ENDCHAR
STARTCHAR uni548E
ENCODING 21646
SWIDTH 1000 0
DWIDTH 10 0
BBX 9 10 0 -1
BITMAP
0200
7200
5200
D500
3880
CF80
0000
7F00
4100
7F00
ENDCHAR
STARTCHAR uni548F
ENCODING 21647
SWIDTH 1000 0
DWIDTH 10 0
BBX 9 10 0 -1
BITMAP
0C00
0300
E000
BE00
A280
BB00
AA00
AB00
F280
2600
ENDCHAR
STARTCHAR uni5490
ENCODING 21648
SWIDTH 1000 0
DWIDTH 10 0
BBX 9 10 0 -1
BITMAP
0080
0480
E480
AF80
B880
AC80
AA80
A880
E880
0980
ENDCHAR
STARTCHAR uni5492
ENCODING 21650
SWIDTH 1000 0
DWIDTH 10 0
BBX 9 9 0 -1
BITMAP
F780
9480
F780
0000
3E00
2200
2200
2280
C380
ENDCHAR
STARTCHAR uni54A2
ENCODING 21666
SWIDTH 1000 0
DWIDTH 10 0
BBX 9 9 0 -1
BITMAP
7700
5500
7F00
0000
FF80
2000
7F00
4100
0600
ENDCHAR
STARTCHAR uni54A4
ENCODING 21668
SWIDTH 1000 0
DWIDTH 10 0
BBX 9 10 0 -1
BITMAP
0400
0400
FF80
A080
BF00
A400
A780
BC00
E480
0780
ENDCHAR
STARTCHAR uni54A5
ENCODING 21669
SWIDTH 1000 0
DWIDTH 10 0
BBX 9 9 0 -1
BITMAP
1F80
E400
A880
BF80
A200
AF80
A200
E200
1F80
ENDCHAR
STARTCHAR uni54A8
ENCODING 21672
SWIDTH 1000 0
DWIDTH 10 0
BBX 9 10 0 -1
BITMAP
0800
0800
EF80
0A80
1200
4500
8880
7F00
4100
7F00
ENDCHAR
STARTCHAR uni54AB
ENCODING 21675
SWIDTH 1000 0
DWIDTH 10 0
BBX 9 9 0 -1
BITMAP
7B80
4A80
4A80
7B80
5000
5280
5480
8800
8780
ENDCHAR
STARTCHAR uni54AC
ENCODING 21676
SWIDTH 1000 0
DWIDTH 10 0
BBX 9 10 0 -1
BITMAP
0400
0400
FF80
A500
A880
B000
A900
A500
E600
1980
ENDCHAR
STARTCHAR uni54AF
ENCODING 21679
SWIDTH 1000 0
DWIDTH 10 0
BBX 9 10 0 -1
BITMAP
0400
0400
E780
A880
B500
A200
A700
B880
E880
0F80
ENDCHAR
STARTCHAR uni54B2
ENCODING 21682
SWIDTH 1000 0
DWIDTH 10 0
BBX 9 10 0 -1
BITMAP
0900
0A00
E000
BF80
A200
A200
BF80
A200
E500
1880
ENDCHAR
STARTCHAR uni54B3
ENCODING 21683
SWIDTH 1000 0
DWIDTH 10 0
BBX 9 10 0 -1
BITMAP
0200
0200
FF80
A480
A900
AA00
A480
A900
E600
1980
ENDCHAR
STARTCHAR uni54B8
ENCODING 21688
SWIDTH 1000 0
DWIDTH 10 0
BBX 9 10 0 -1
BITMAP
0400
0480
7F80
4200
7A80
4280
7900
A900
BA80
8C80
ENDCHAR
STARTCHAR uni54BC
ENCODING 21692
SWIDTH 1000 0
DWIDTH 10 0
BBX 8 9 1 -1
BITMAP
7E
42
5E
52
FF
A5
A5
BD
83
ENDCHAR
STARTCHAR uni54BD
ENCODING 21693
SWIDTH 1000 0
DWIDTH 10 0
BBX 9 9 0 -1
BITMAP
3F80
E480
A480
BF80
A480
AA80
B180
E080
3F80
ENDCHAR
STARTCHAR uni54BE
ENCODING 21694
SWIDTH 1000 0
DWIDTH 10 0
BBX 9 10 0 -1
BITMAP
0400
0400
FF80
A480
A500
BF80
A400
BF00
E880
0F80
ENDCHAR
STARTCHAR uni54C0
ENCODING 21696
SWIDTH 1000 0
DWIDTH 10 0
BBX 9 10 0 -1
BITMAP
0800
0800
FF80
2200
2200
3E00
1480
E500
2200
7980
ENDCHAR
STARTCHAR uni54C1
ENCODING 21697
SWIDTH 1000 0
DWIDTH 10 0
BBX 9 9 0 -1
BITMAP
3E00
2200
2200
3E00
0000
F780
9480
9480
F780
ENDCHAR
STARTCHAR uni54C2
ENCODING 21698
SWIDTH 1000 0
DWIDTH 10 0
BBX 9 9 0 -1
BITMAP
3F80
CA00
BF80
AA80
AA80
AA80
B380
E080
3F80
ENDCHAR
STARTCHAR uni54C4
ENCODING 21700
SWIDTH 1000 0
DWIDTH 10 0
BBX 9 10 0 -1
BITMAP
0900
0900
E900
BF80
A900
A900
BF80
A000
E900
1080
ENDCHAR
STARTCHAR uni54C7
ENCODING 21703
SWIDTH 1000 0
DWIDTH 10 0
BBX 9 10 0 -1
BITMAP
0200
0200
EF80
A200
BF80
A200
AF80
A200
E200
1F80
ENDCHAR
STARTCHAR uni54C8
ENCODING 21704
SWIDTH 1000 0
DWIDTH 10 0
BBX 9 9 0 -1
BITMAP
0700
E880
B000
AF80
A000
AF80
A880
E880
0F80
ENDCHAR
STARTCHAR uni54C9
ENCODING 21705
SWIDTH 1000 0
DWIDTH 10 0
BBX 9 10 0 -1
BITMAP
0400
4500
F480
4400
FF80
0200
F280
9100
9280
F480
ENDCHAR
STARTCHAR uni54D8
ENCODING 21720
SWIDTH 1000 0
DWIDTH 10 0
BBX 9 9 0 -1
BITMAP
0B80
F000
A000
A780
A880
B880
A880
E880
0980
ENDCHAR
STARTCHAR uni54E1
ENCODING 21729
SWIDTH 1000 0
DWIDTH 10 0
BBX 8 9 1 -1
BITMAP
7E
42
FF
81
FF
81
FF
24
C3
ENDCHAR
STARTCHAR uni54E2
ENCODING 21730
SWIDTH 1000 0
DWIDTH 10 0
BBX 9 9 0 -1
BITMAP
1F80
E200
AF80
A200
BF80
A900
FF80
0900
1100
ENDCHAR
STARTCHAR uni54E5
ENCODING 21733
SWIDTH 1000 0
DWIDTH 10 0
BBX 9 9 0 -1
BITMAP
FF80
4900
4900
7900
0100
FF80
4900
7900
0300
ENDCHAR
STARTCHAR uni54E6
ENCODING 21734
SWIDTH 1000 0
DWIDTH 10 0
BBX 9 10 0 -1
BITMAP
0200
1E80
EA80
AA00
BF80
AA00
AE80
B900
EA80
1C80
ENDCHAR
STARTCHAR uni54E8
ENCODING 21736
SWIDTH 1000 0
DWIDTH 10 0
BBX 9 10 0 -1
BITMAP
0200
0200
EA80
AB00
A200
AF80
A880
AF80
E880
0980
ENDCHAR
STARTCHAR uni54E9
ENCODING 21737
SWIDTH 1000 0
DWIDTH 10 0
BBX 9 9 0 -1
BITMAP
0F80
EA80
AF80
AA80
AF80
A200
AF80
E200
1F80
ENDCHAR
STARTCHAR uni54ED
ENCODING 21741
SWIDTH 1000 0
DWIDTH 10 0
BBX 9 9 0 -1
BITMAP
F780
9480
9480
F780
0900
FF80
1400
2200
C180
ENDCHAR
STARTCHAR uni54EE
ENCODING 21742
SWIDTH 1000 0
DWIDTH 10 0
BBX 9 10 0 -1
BITMAP
0400
0400
FF80
A480
A500
BF80
A500
AF80
F200
0600
ENDCHAR
STARTCHAR uni54F2
ENCODING 21746
SWIDTH 1000 0
DWIDTH 10 0
BBX 9 10 0 -1
BITMAP
4000
4F80
F800
4F80
E900
4900
0000
7F00
4100
7F00
ENDCHAR
STARTCHAR uni54FA
ENCODING 21754
SWIDTH 1000 0
DWIDTH 10 0
BBX 9 10 0 -1
BITMAP
0200
0280
FF80
9200
9F80
9280
9F80
9280
FF80
1280
ENDCHAR
STARTCHAR uni54FD
ENCODING 21757
SWIDTH 1000 0
DWIDTH 10 0
BBX 9 9 0 -1
BITMAP
1F80
E200
AF80
AA80
AF80
AA80
BB80
E600
1980
ENDCHAR
STARTCHAR uni5504
ENCODING 21764
SWIDTH 1000 0
DWIDTH 10 0
BBX 9 9 0 -1
BITMAP
0F80
E880
AF80
A880
A880
AF80
E000
0500
1880
ENDCHAR
STARTCHAR uni5506
ENCODING 21766
SWIDTH 1000 0
DWIDTH 10 0
BBX 9 10 0 -1
BITMAP
0400
0400
E880
BF80
A500
B980
A700
B900
E600
1980
ENDCHAR
STARTCHAR uni5507
ENCODING 21767
SWIDTH 1000 0
DWIDTH 10 0
BBX 9 9 0 -1
BITMAP
FF80
8000
FF80
A200
B980
0000
7F00
4100
7F00
ENDCHAR
STARTCHAR uni550F
ENCODING 21775
SWIDTH 1000 0
DWIDTH 10 0
BBX 9 9 0 -1
BITMAP
1980
E600
A900
BF80
A400
AF80
FA80
2A80
0200
ENDCHAR
STARTCHAR uni5510
ENCODING 21776
SWIDTH 1000 0
DWIDTH 10 0
BBX 9 10 0 -1
BITMAP
0800
0800
FF80
8900
FF80
8900
FF00
A100
2100
3F00
ENDCHAR
STARTCHAR uni5514
ENCODING 21780
SWIDTH 1000 0
DWIDTH 10 0
BBX 9 9 0 -1
BITMAP
1F80
E200
AF80
A480
BF80
A000
AF80
E880
0F80
ENDCHAR
STARTCHAR uni5516
ENCODING 21782
SWIDTH 1000 0
DWIDTH 10 0
BBX 9 9 0 -1
BITMAP
3F80
CA00
BF80
AA80
AA80
BF80
AA00
CA00
3F80
ENDCHAR
STARTCHAR uni552E
ENCODING 21806
SWIDTH 1000 0
DWIDTH 10 0
BBX 9 10 0 -1
BITMAP
2000
2200
7F80
C400
7F80
4400
7F80
2100
2100
3F00
ENDCHAR
STARTCHAR uni552F
ENCODING 21807
SWIDTH 1000 0
DWIDTH 10 0
BBX 9 10 0 -1
BITMAP
0400
0500
EF80
A900
BF80
A900
AF80
A900
E900
0F80
ENDCHAR
STARTCHAR uni5531
ENCODING 21809
SWIDTH 1000 0
DWIDTH 10 0
BBX 9 9 0 -1
BITMAP
0F00
E900
AF00
A900
BF80
A080
BF80
E080
3F80
ENDCHAR
STARTCHAR uni5533
ENCODING 21811
SWIDTH 1000 0
DWIDTH 10 0
BBX 9 9 0 -1
BITMAP
1F80
E000
AF80
A880
AF80
B200
AF80
E500
1880
ENDCHAR
STARTCHAR uni5538
ENCODING 21816
SWIDTH 1000 0
DWIDTH 10 0
BBX 9 9 0 -1
BITMAP
0F00
F080
AF80
A000
AF80
A100
A200
E880
2E80
ENDCHAR
STARTCHAR uni5539
ENCODING 21817
SWIDTH 1000 0
DWIDTH 10 0
BBX 9 10 0 -1
BITMAP
0800
0B00
EC80
B800
A900
AC80
B400
A600
E500
1880
ENDCHAR
STARTCHAR uni553E
ENCODING 21822
SWIDTH 1000 0
DWIDTH 10 0
BBX 9 9 0 -1
BITMAP
1F80
E200
BF80
AA80
BF80
AA80
BF80
E200
1F80
ENDCHAR
STARTCHAR uni5540
ENCODING 21824
SWIDTH 1000 0
DWIDTH 10 0
BBX 9 9 0 -1
BITMAP
3F80
E200
AF80
A200
BF80
A200
AF80
C200
5F80
ENDCHAR
STARTCHAR uni5544
ENCODING 21828
SWIDTH 1000 0
DWIDTH 10 0
BBX 9 9 0 -1
BITMAP
1F80
E400
AA00
B280
A700
AA00
B300
E280
0C00
ENDCHAR
STARTCHAR uni5545
ENCODING 21829
SWIDTH 1000 0
DWIDTH 10 0
BBX 9 10 0 -1
BITMAP
0400
0400
E780
A400
AF80
A880
AF80
A880
FF80
0200
ENDCHAR
STARTCHAR uni5546
ENCODING 21830
SWIDTH 1000 0
DWIDTH 10 0
BBX 9 10 0 -1
BITMAP
0800
0800
FF80
2200
FF80
9480
A780
DC80
9480
9D80
ENDCHAR
STARTCHAR uni554C
ENCODING 21836
SWIDTH 1000 0
DWIDTH 10 0
BBX 9 10 0 -1
BITMAP
0200
0200
FF80
AA80
AA00
B380
A000
BF80
E200
3F80
ENDCHAR
STARTCHAR uni554F
ENCODING 21839
SWIDTH 1000 0
DWIDTH 10 0
BBX 9 9 0 -1
BITMAP
F780
9480
F780
9480
F780
8080
9C80
9480
9D80
ENDCHAR
STARTCHAR uni5553
ENCODING 21843
SWIDTH 1000 0
DWIDTH 10 0
BBX 9 10 0 -1
BITMAP
0400
F400
0780
F900
9500
F600
8980
7F00
4100
7F00
ENDCHAR
STARTCHAR uni5556
ENCODING 21846
SWIDTH 1000 0
DWIDTH 10 0
BBX 9 10 0 -1
BITMAP
0200
0A80
EA80
A500
B880
A200
AA80
AA80
E500
1880
ENDCHAR
STARTCHAR uni5557
ENCODING 21847
SWIDTH 1000 0
DWIDTH 10 0
BBX 9 9 0 -1
BITMAP
0780
E880
B100
A400
A980
A880
AD80
E880
0F80
ENDCHAR
STARTCHAR uni555C
ENCODING 21852
SWIDTH 1000 0
DWIDTH 10 0
BBX 9 9 0 -1
BITMAP
1F80
E480
A900
B680
A000
BF80
A480
E900
1680
ENDCHAR
STARTCHAR uni555D
ENCODING 21853
SWIDTH 1000 0
DWIDTH 10 0
BBX 9 9 0 -1
BITMAP
1F80
EA80
AA80
BE80
AA80
BA80
AF80
EA00
0980
ENDCHAR
STARTCHAR uni5563
ENCODING 21859
SWIDTH 1000 0
DWIDTH 10 0
BBX 9 10 0 -1
BITMAP
1000
1380
FE80
A880
BE80
A880
AC80
A880
BF80
E200
ENDCHAR
STARTCHAR uni557B
ENCODING 21883
SWIDTH 1000 0
DWIDTH 10 0
BBX 9 10 0 -1
BITMAP
0800
0800
7F00
1400
FF80
AA80
2A00
7F00
4100
7F00
ENDCHAR
STARTCHAR uni557C
ENCODING 21884
SWIDTH 1000 0
DWIDTH 10 0
BBX 9 10 0 -1
BITMAP
0400
0400
FF80
A900
BF80
A480
BF80
A480
E480
2580
ENDCHAR
STARTCHAR uni557E
ENCODING 21886
SWIDTH 1000 0
DWIDTH 10 0
BBX 9 10 0 -1
BITMAP
0200
1E00
EA80
AA80
BE80
AB00
AA00
BA00
ED00
0880
ENDCHAR
STARTCHAR uni5580
ENCODING 21888
SWIDTH 1000 0
DWIDTH 10 0
BBX 9 10 0 -1
BITMAP
0400
0400
FF80
AA80
AA80
A600
A900
BF80
E900
0F00
ENDCHAR
STARTCHAR uni5583
ENCODING 21891
SWIDTH 1000 0
DWIDTH 10 0
BBX 9 10 0 -1
BITMAP
0400
0400
FF80
A400
BF80
AA80
BF80
A480
FF80
2480
ENDCHAR
STARTCHAR uni5584
ENCODING 21892
SWIDTH 1000 0
DWIDTH 10 0
BBX 9 10 0 -1
BITMAP
2200
2400
FF80
0800
7F00
2A00
FF80
4100
4100
7F00
ENDCHAR
STARTCHAR uni5587
ENCODING 21895
SWIDTH 1000 0
DWIDTH 10 0
BBX 9 10 0 -1
BITMAP
0800
0880
FE80
A880
BE80
AA80
BE80
A880
FC80
2A80
ENDCHAR
STARTCHAR uni5589
ENCODING 21897
SWIDTH 1000 0
DWIDTH 10 0
BBX 9 9 0 -1
BITMAP
0F80
E080
BF80
A800
AF80
B200
AF80
E500
2880
ENDCHAR
STARTCHAR uni558A
ENCODING 21898
SWIDTH 1000 0
DWIDTH 10 0
BBX 9 10 0 -1
BITMAP
0200
0280
FF80
A200
BE80
AA80
A900
B900
E280
4C80
ENDCHAR
STARTCHAR uni558B
ENCODING 21899
SWIDTH 1000 0
DWIDTH 10 0
BBX 9 10 0 -1
BITMAP
0200
0A80
FF80
AA80
AB80
A800
BF80
A600
EA80
1280
ENDCHAR
STARTCHAR uni5598
ENCODING 21912
SWIDTH 1000 0
DWIDTH 10 0
BBX 9 10 0 -1
BITMAP
0400
2480
E480
BF80
A000
BF80
A400
BF80
EA80
2A80
ENDCHAR
STARTCHAR uni5599
ENCODING 21913
SWIDTH 1000 0
DWIDTH 10 0
BBX 9 9 0 -1
BITMAP
0F80
E900
BF00
B200
BF80
AA00
B680
EB00
1680
ENDCHAR
STARTCHAR uni559A
ENCODING 21914
SWIDTH 1000 0
DWIDTH 10 0
BBX 9 9 0 -1
BITMAP
0F00
F100
BF80
AA80
B380
A480
BF80
C900
3080
ENDCHAR
STARTCHAR uni559C
ENCODING 21916
SWIDTH 1000 0
DWIDTH 10 0
BBX 9 10 0 -1
BITMAP
0800
0800
FF80
0800
7F00
2200
1400
FF80
4100
7F00
ENDCHAR
STARTCHAR uni559D
ENCODING 21917
SWIDTH 1000 0
DWIDTH 10 0
BBX 9 9 0 -1
BITMAP
1F00
F100
9F00
9100
9F80
8880
9280
FC80
0300
ENDCHAR
STARTCHAR uni559E
ENCODING 21918
SWIDTH 1000 0
DWIDTH 10 0
BBX 9 10 0 -1
BITMAP
1000
2380
FE80
A680
BE80
A280
BA80
A280
FB80
2200
ENDCHAR
STARTCHAR uni559F
ENCODING 21919
SWIDTH 1000 0
DWIDTH 10 0
BBX 9 9 0 -1
BITMAP
3F80
E480
BF80
A480
BF80
A880
AF80
E880
0980
ENDCHAR
STARTCHAR uni55A7
ENCODING 21927
SWIDTH 1000 0
DWIDTH 10 0
BBX 9 10 0 -1
BITMAP
0400
0400
FF80
A080
AF00
A900
AF00
A900
E900
1F80
ENDCHAR
STARTCHAR uni55A8
ENCODING 21928
SWIDTH 1000 0
DWIDTH 10 0
BBX 9 10 0 -1
BITMAP
0400
0400
FF80
A900
AF00
A000
BF80
AA80
EA00
3380
ENDCHAR
STARTCHAR uni55A9
ENCODING 21929
SWIDTH 1000 0
DWIDTH 10 0
BBX 9 9 0 -1
BITMAP
1F00
C880
B780
A000
BA80
AA80
BD00
EA80
2A80
ENDCHAR
STARTCHAR uni55AA
ENCODING 21930
SWIDTH 1000 0
DWIDTH 10 0
BBX 9 10 0 -1
BITMAP
0800
0800
FF80
AA80
EB80
0800
FF80
4900
4600
F180
ENDCHAR
STARTCHAR uni55AB
ENCODING 21931
SWIDTH 1000 0
DWIDTH 10 0
BBX 9 10 0 -1
BITMAP
0800
0B80
FE80
A880
BD80
AA00
BF80
A200
E500
1880
ENDCHAR
STARTCHAR uni55AC
ENCODING 21932
SWIDTH 1000 0
DWIDTH 10 0
BBX 9 9 0 -1
BITMAP
7F00
0800
FF80
2200
5D00
8080
7F00
5500
5D00
ENDCHAR
STARTCHAR uni55AE
ENCODING 21934
SWIDTH 1000 0
DWIDTH 10 0
BBX 9 9 0 -1
BITMAP
F780
9480
9480
FF80
4900
7F00
4900
FF80
0800
ENDCHAR
STARTCHAR uni55B0
ENCODING 21936
SWIDTH 1000 0
DWIDTH 10 0
BBX 9 9 0 -1
BITMAP
0700
E880
BF80
A880
AF80
A880
AF80
E900
0C80
ENDCHAR
STARTCHAR uni55B6
ENCODING 21942
SWIDTH 1000 0
DWIDTH 10 0
BBX 9 10 0 -1
BITMAP
0800
2A00
FF80
A280
BE80
1000
7F00
4100
4100
7F00
ENDCHAR
STARTCHAR uni55C4
ENCODING 21956
SWIDTH 1000 0
DWIDTH 10 0
BBX 9 9 0 -1
BITMAP
1F80
E200
AF80
A880
AF80
A880
BD80
E300
1C80
ENDCHAR
STARTCHAR uni55C5
ENCODING 21957
SWIDTH 1000 0
DWIDTH 10 0
BBX 9 10 0 -1
BITMAP
0200
0400
EF80
A880
AF80
A880
BF80
A200
E500
1880
ENDCHAR
STARTCHAR uni55C7
ENCODING 21959
SWIDTH 1000 0
DWIDTH 10 0
BBX 9 10 0 -1
BITMAP
0800
0800
FF80
2A00
5500
FF80
5500
5D00
4100
7F00
ENDCHAR
STARTCHAR uni55D4
ENCODING 21972
SWIDTH 1000 0
DWIDTH 10 0
BBX 9 10 0 -1
BITMAP
1000
1E00
F080
AF80
A900
AF00
A900
BF80
E500
1880
ENDCHAR
STARTCHAR uni55DA
ENCODING 21978
SWIDTH 1000 0
DWIDTH 10 0
BBX 9 10 0 -1
BITMAP
0200
0400
EF00
A900
AF80
A800
AF80
A080
EA80
1580
ENDCHAR
STARTCHAR uni55DC
ENCODING 21980
SWIDTH 1000 0
DWIDTH 10 0
BBX 9 10 0 -1
BITMAP
0400
0400
EF80
A500
BF80
AC80
B500
AF80
E880
0F80
ENDCHAR
STARTCHAR uni55DF
ENCODING 21983
SWIDTH 1000 0
DWIDTH 10 0
BBX 9 10 0 -1
BITMAP
0900
0200
FF80
A200
AF80
A200
BF80
A500
E900
1780
ENDCHAR
STARTCHAR uni55E3
ENCODING 21987
SWIDTH 1000 0
DWIDTH 10 0
BBX 9 9 0 -1
BITMAP
FF80
8880
FE80
0080
FE80
AA80
FA80
AE80
A980
ENDCHAR
STARTCHAR uni55E4
ENCODING 21988
SWIDTH 1000 0
DWIDTH 10 0
BBX 9 10 0 -1
BITMAP
0200
1280
FF80
A400
BF80
AA80
AA80
AF00
E280
1F80
ENDCHAR
STARTCHAR uni55F7
ENCODING 22007
SWIDTH 1000 0
DWIDTH 10 0
BBX 9 10 0 -1
BITMAP
0A00
0A00
FF80
A880
BE80
AA80
BD00
9500
D680
2C80
ENDCHAR
STARTCHAR uni55F9
ENCODING 22009
SWIDTH 1000 0
DWIDTH 10 0
BBX 9 10 0 -1
BITMAP
0200
1200
EF80
BA80
AF80
BA80
AF80
AA00
F800
2780
ENDCHAR
STARTCHAR uni55FD
ENCODING 22013
SWIDTH 1000 0
DWIDTH 10 0
BBX 9 10 0 -1
BITMAP
0A00
0A00
FF80
AA80
BD80
AD00
BD00
A900
FE80
2880
ENDCHAR
STARTCHAR uni55FE
ENCODING 22014
SWIDTH 1000 0
DWIDTH 10 0
BBX 9 10 0 -1
BITMAP
0A00
0A00
EB80
BE00
AB80
AD00
B780
A500
E680
1880
ENDCHAR
STARTCHAR uni5606
ENCODING 22022
SWIDTH 1000 0
DWIDTH 10 0
BBX 9 10 0 -1
BITMAP
0500
3F80
E500
AF80
AA80
AF80
A200
BF80
E500
1880
ENDCHAR
STARTCHAR uni5609
ENCODING 22025
SWIDTH 1000 0
DWIDTH 10 0
BBX 9 10 0 -1
BITMAP
0800
0800
FF80
0800
7F00
2200
FF80
5480
9480
B780
ENDCHAR
STARTCHAR uni5614
ENCODING 22036
SWIDTH 1000 0
DWIDTH 10 0
BBX 9 9 0 -1
BITMAP
3F80
E900
A900
AF00
A000
BB80
AA80
EA80
3F80
ENDCHAR
STARTCHAR uni5616
ENCODING 22038
SWIDTH 1000 0
DWIDTH 10 0
BBX 9 10 0 -1
BITMAP
0200
0200
FF80
A200
BF80
A200
BF80
A880
EF00
3180
ENDCHAR
STARTCHAR uni5617
ENCODING 22039
SWIDTH 1000 0
DWIDTH 10 0
BBX 9 10 0 -1
BITMAP
0800
2A00
FF80
A280
2200
7E00
4080
7F80
4100
7F00
ENDCHAR
STARTCHAR uni5618
ENCODING 22040
SWIDTH 1000 0
DWIDTH 10 0
BBX 9 10 0 -1
BITMAP
0600
0400
FF80
A880
BF00
A800
AF80
B500
E500
5F80
ENDCHAR
STARTCHAR uni561B
ENCODING 22043
SWIDTH 1000 0
DWIDTH 10 0
BBX 9 10 0 -1
BITMAP
0200
0200
FF80
A900
BF80
A900
BB00
AD80
C900
4900
ENDCHAR
STARTCHAR uni5629
ENCODING 22057
SWIDTH 1000 0
DWIDTH 10 0
BBX 9 10 0 -1
BITMAP
0500
0500
FF80
A500
BF80
AA80
BF80
AA80
FF80
0200
ENDCHAR
STARTCHAR uni562F
ENCODING 22063
SWIDTH 1000 0
DWIDTH 10 0
BBX 9 10 0 -1
BITMAP
0200
0200
EF80
A280
BF80
AB00
A680
BF80
EA80
3280
ENDCHAR
STARTCHAR uni5631
ENCODING 22065
SWIDTH 1000 0
DWIDTH 10 0
BBX 9 9 0 -1
BITMAP
3F80
E080
BF80
AA80
AF80
A200
FF80
5480
5680
ENDCHAR
STARTCHAR uni5632
ENCODING 22066
SWIDTH 1000 0
DWIDTH 10 0
BBX 9 10 0 -1
BITMAP
0800
0B80
FE80
AB80
BE80
A280
BF80
A280
FE80
0980
ENDCHAR
STARTCHAR uni5634
ENCODING 22068
SWIDTH 1000 0
DWIDTH 10 0
BBX 9 10 0 -1
BITMAP
0200
0A00
EF80
AA00
BF80
AA80
AF80
AA80
FF80
1080
ENDCHAR
STARTCHAR uni5636
ENCODING 22070
SWIDTH 1000 0
DWIDTH 10 0
BBX 9 9 0 -1
BITMAP
2B80
FE00
AA00
BB80
AA80
BE80
A280
F480
2480
ENDCHAR
STARTCHAR uni5638
ENCODING 22072
SWIDTH 1000 0
DWIDTH 10 0
BBX 9 10 0 -1
BITMAP
0800
0800
EF80
BA80
AF80
AA80
BF80
A000
EA80
1280
ENDCHAR
STARTCHAR uni5642
ENCODING 22082
SWIDTH 1000 0
DWIDTH 10 0
BBX 9 10 0 -1
BITMAP
0900
0200
FF80
AA80
AD80
A880
BF80
A080
E880
0580
ENDCHAR
STARTCHAR uni564C
ENCODING 22092
SWIDTH 1000 0
DWIDTH 10 0
BBX 9 10 0 -1
BITMAP
0900
0200
FF80
A480
BF80
A480
BF80
A880
E880
0F80
ENDCHAR
STARTCHAR uni564E
ENCODING 22094
SWIDTH 1000 0
DWIDTH 10 0
BBX 9 10 0 -1
BITMAP
0200
1F80
E200
BF80
B080
AF80
A880
AF80
E500
1F80
ENDCHAR
STARTCHAR uni5650
ENCODING 22096
SWIDTH 1000 0
DWIDTH 10 0
BBX 9 9 0 -1
BITMAP
7700
5500
7700
0000
7F00
0800
FF80
5500
7700
ENDCHAR
STARTCHAR uni565B
ENCODING 22107
SWIDTH 1000 0
DWIDTH 10 0
BBX 9 10 0 -1
BITMAP
0600
2400
FF80
B500
A480
BF80
AC80
B580
E480
3F80
ENDCHAR
STARTCHAR uni5664
ENCODING 22116
SWIDTH 1000 0
DWIDTH 10 0
BBX 9 10 0 -1
BITMAP
0900
0900
FF80
AB00
BD80
AF00
A000
BF80
EA00
1280
ENDCHAR
STARTCHAR uni5668
ENCODING 22120
SWIDTH 1000 0
DWIDTH 10 0
BBX 9 9 0 -1
BITMAP
7700
5500
7700
0800
FF80
2200
F780
5500
7700
ENDCHAR
STARTCHAR uni566A
ENCODING 22122
SWIDTH 1000 0
DWIDTH 10 0
BBX 9 9 0 -1
BITMAP
0F00
E900
BF80
B280
BF80
A200
BF80
EA00
1280
ENDCHAR
STARTCHAR uni566B
ENCODING 22123
SWIDTH 1000 0
DWIDTH 10 0
BBX 9 10 0 -1
BITMAP
0200
0200
FF80
A900
BF80
A900
AF00
A200
E880
2E80
ENDCHAR
STARTCHAR uni566C
ENCODING 22124
SWIDTH 1000 0
DWIDTH 10 0
BBX 9 10 0 -1
BITMAP
0200
1200
FB80
AD00
A900
BF80
AA80
B700
E200
1F80
ENDCHAR
STARTCHAR uni5674
ENCODING 22132
SWIDTH 1000 0
DWIDTH 10 0
BBX 9 10 0 -1
BITMAP
0200
0200
FF80
AA80
BF80
A880
AF80
A880
E700
1880
ENDCHAR
STARTCHAR uni5678
ENCODING 22136
SWIDTH 1000 0
DWIDTH 10 0
BBX 9 10 0 -1
BITMAP
0800
EB80
AD00
BB80
AA80
AB80
BE80
AB80
AA00
EC80
ENDCHAR
STARTCHAR uni567A
ENCODING 22138
SWIDTH 1000 0
DWIDTH 10 0
BBX 9 10 0 -1
BITMAP
0800
0B80
FE00
A600
A780
BE80
AA80
BE80
DA80
2A80
ENDCHAR
STARTCHAR uni5680
ENCODING 22144
SWIDTH 1000 0
DWIDTH 10 0
BBX 9 10 0 -1
BITMAP
0400
0400
FF80
A900
B480
A500
BF80
AA80
FF80
0400
ENDCHAR
STARTCHAR uni5686
ENCODING 22150
SWIDTH 1000 0
DWIDTH 10 0
BBX 9 10 0 -1
BITMAP
0900
0900
FF80
A400
BF80
AA00
BF80
EA80
2E80
2180
ENDCHAR
STARTCHAR uni5687
ENCODING 22151
SWIDTH 1000 0
DWIDTH 10 0
BBX 9 10 0 -1
BITMAP
0A00
0A00
FF80
AA00
AA00
BF80
A500
9580
F500
2D00
ENDCHAR
STARTCHAR uni568A
ENCODING 22154
SWIDTH 1000 0
DWIDTH 10 0
BBX 9 10 0 -1
BITMAP
0200
0400
EF00
A900
BF80
B280
BF80
A500
FF80
0900
ENDCHAR
STARTCHAR uni568F
ENCODING 22159
SWIDTH 1000 0
DWIDTH 10 0
BBX 9 10 0 -1
BITMAP
0200
0200
FF80
AA80
AF80
AA80
BF80
A280
EE00
3180
ENDCHAR
STARTCHAR uni5694
ENCODING 22164
SWIDTH 1000 0
DWIDTH 10 0
BBX 9 10 0 -1
BITMAP
0200
0200
FF80
AA80
AF80
A480
BF80
A280
EE00
3180
ENDCHAR
STARTCHAR uni56A0
ENCODING 22176
SWIDTH 1000 0
DWIDTH 10 0
BBX 9 9 0 -1
BITMAP
3680
EA80
AE80
B280
9E80
AA80
BE80
E880
3D80
ENDCHAR
STARTCHAR uni56A2
ENCODING 22178
SWIDTH 1000 0
DWIDTH 10 0
BBX 9 10 0 -1
BITMAP
0800
0800
FF80
4900
FF80
A280
7F00
2980
C600
7180
ENDCHAR
STARTCHAR uni56A5
ENCODING 22181
SWIDTH 1000 0
DWIDTH 10 0
BBX 9 10 0 -1
BITMAP
1200
3F80
D200
BF00
A580
A500
BD80
A000
D500
2A80
ENDCHAR
STARTCHAR uni56AE
ENCODING 22190
SWIDTH 1000 0
DWIDTH 10 0
BBX 9 9 0 -1
BITMAP
5F80
9280
FF00
5280
FF80
2200
FF80
9480
9D80
ENDCHAR
STARTCHAR uni56B4
ENCODING 22196
SWIDTH 1000 0
DWIDTH 10 0
BBX 9 9 0 -1
BITMAP
7700
5500
FF80
9200
FF80
B880
AA80
FB00
8C80
ENDCHAR
STARTCHAR uni56B6
ENCODING 22198
SWIDTH 1000 0
DWIDTH 10 0
BBX 9 9 0 -1
BITMAP
3B80
EA80
BB80
AA80
9500
BF80
A900
EE00
3180
ENDCHAR
STARTCHAR uni56BC
ENCODING 22204
SWIDTH 1000 0
DWIDTH 10 0
BBX 9 9 0 -1
BITMAP
1F80
E500
BF80
AA80
BF80
A880
BF80
E280
3980
ENDCHAR
STARTCHAR uni56C0
ENCODING 22208
SWIDTH 1000 0
DWIDTH 10 0
BBX 9 10 0 -1
BITMAP
0A00
0A80
FF80
AA80
BF80
AA80
BF80
AA80
FC80
0980
ENDCHAR
STARTCHAR uni56C1
ENCODING 22209
SWIDTH 1000 0
DWIDTH 10 0
BBX 9 9 0 -1
BITMAP
1F80
E900
AF00
A900
BF80
AA80
AA80
FB80
0C80
ENDCHAR
STARTCHAR uni56C2
ENCODING 22210
SWIDTH 1000 0
DWIDTH 10 0
BBX 9 9 0 -1
BITMAP
7700
5500
FF80
2200
3E00
4100
F780
5500
7700
ENDCHAR
STARTCHAR uni56C3
ENCODING 22211
SWIDTH 1000 0
DWIDTH 10 0
BBX 9 10 0 -1
BITMAP
0500
0500
FF80
B500
AB80
A500
BF80
AD00
F700
2580
ENDCHAR
STARTCHAR uni56C8
ENCODING 22216
SWIDTH 1000 0
DWIDTH 10 0
BBX 9 10 0 -1
BITMAP
0A00
0A00
FF80
AA00
B780
AA80
B500
BF80
E900
1F80
ENDCHAR
STARTCHAR uni56CE
ENCODING 22222
SWIDTH 1000 0
DWIDTH 10 0
BBX 9 9 0 -1
BITMAP
3F00
E880
BF80
AA80
AF80
BC80
A780
D480
2F80
ENDCHAR
STARTCHAR uni56D1
ENCODING 22225
SWIDTH 1000 0
DWIDTH 10 0
BBX 9 9 0 -1
BITMAP
3F80
E080
BF80
AA80
BF80
AA80
BE80
C880
5F00
ENDCHAR
STARTCHAR uni56D3
ENCODING 22227
SWIDTH 1000 0
DWIDTH 10 0
BBX 9 10 0 -1
BITMAP
0800
0B80
FE80
AA80
BD80
AA00
BF80
B580
EA80
3F80
ENDCHAR
STARTCHAR uni56D7
ENCODING 22231
SWIDTH 1000 0
DWIDTH 10 0
BBX 9 9 0 -1
BITMAP
FF80
8080
8080
8080
8080
8080
8080
8080
FF80
ENDCHAR
STARTCHAR uni56D8
ENCODING 22232
SWIDTH 1000 0
DWIDTH 10 0
BBX 9 9 0 -1
BITMAP
FF80
8080
BE80
A280
BE80
A080
A280
BE80
8180
ENDCHAR
STARTCHAR uni56DA
ENCODING 22234
SWIDTH 1000 0
DWIDTH 10 0
BBX 9 9 0 -1
BITMAP
FF80
8880
8880
8880
9480
A280
C180
8080
FF80
ENDCHAR
STARTCHAR uni56DB
ENCODING 22235
SWIDTH 1000 0
DWIDTH 10 0
BBX 9 9 0 -1
BITMAP
FF80
9480
9480
A480
C780
8080
8080
FF80
8080
ENDCHAR
STARTCHAR uni56DE
ENCODING 22238
SWIDTH 1000 0
DWIDTH 10 0
BBX 9 9 0 -1
BITMAP
FF80
8080
BE80
A280
A280
A280
BE80
8080
FF80
ENDCHAR
STARTCHAR uni56E0
ENCODING 22240
SWIDTH 1000 0
DWIDTH 10 0
BBX 9 9 0 -1
BITMAP
FF80
8880
8880
FF80
8880
9480
A280
8080
FF80
ENDCHAR
STARTCHAR uni56E3
ENCODING 22243
SWIDTH 1000 0
DWIDTH 10 0
BBX 9 9 0 -1
BITMAP
FF80
8480
8480
FE80
8480
A480
9480
8480
FF80
ENDCHAR
STARTCHAR uni56EE
ENCODING 22254
SWIDTH 1000 0
DWIDTH 10 0
BBX 9 9 0 -1
BITMAP
FF80
8880
A880
AE80
E880
A880
AE80
8080
FF80
ENDCHAR
STARTCHAR uni56F0
ENCODING 22256
SWIDTH 1000 0
DWIDTH 10 0
BBX 9 9 0 -1
BITMAP
FF80
8880
8880
FF80
9880
AC80
CA80
8880
FF80
ENDCHAR
STARTCHAR uni56F2
ENCODING 22258
SWIDTH 1000 0
DWIDTH 10 0
BBX 9 9 0 -1
BITMAP
FF80
9480
BE80
9480
9480
FF80
9480
A480
FF80
ENDCHAR
STARTCHAR uni56F3
ENCODING 22259
SWIDTH 1000 0
DWIDTH 10 0
BBX 9 9 0 -1
BITMAP
FF80
9080
8A80
C280
A480
8480
8A80
9080
FF80
ENDCHAR
STARTCHAR uni56F9
ENCODING 22265
SWIDTH 1000 0
DWIDTH 10 0
BBX 9 9 0 -1
BITMAP
FF80
9480
A280
DD80
8080
BE80
8A80
8880
FF80
ENDCHAR
STARTCHAR uni56FA
ENCODING 22266
SWIDTH 1000 0
DWIDTH 10 0
BBX 9 9 0 -1
BITMAP
FF80
8880
BE80
8880
BE80
A280
BE80
8080
FF80
ENDCHAR
STARTCHAR uni56FD
ENCODING 22269
SWIDTH 1000 0
DWIDTH 10 0
BBX 9 9 0 -1
BITMAP
FF80
8080
BE80
8880
BE80
8980
BE80
8080
FF80
ENDCHAR
STARTCHAR uni56FF
ENCODING 22271
SWIDTH 1000 0
DWIDTH 10 0
BBX 9 9 0 -1
BITMAP
FF80
8880
FF80
8880
9E80
B280
DE80
9280
FF80
ENDCHAR
STARTCHAR uni5700
ENCODING 22272
SWIDTH 1000 0
DWIDTH 10 0
BBX 9 9 0 -1
BITMAP
FF80
9480
A680
C880
BE80
9080
9E80
A280
FF80
ENDCHAR
STARTCHAR uni5703
ENCODING 22275
SWIDTH 1000 0
DWIDTH 10 0
BBX 9 9 0 -1
BITMAP
FF80
8A80
FF80
8880
BE80
AA80
BE80
AA80
FF80
ENDCHAR
STARTCHAR uni5704
ENCODING 22276
SWIDTH 1000 0
DWIDTH 10 0
BBX 9 9 0 -1
BITMAP
FF80
8080
BE80
8880
BE80
9280
FF80
A280
FF80
ENDCHAR
STARTCHAR uni5708
ENCODING 22280
SWIDTH 1000 0
DWIDTH 10 0
BBX 9 9 0 -1
BITMAP
FF80
AA80
BE80
9480
FF80
A280
DD80
9080
FF80
ENDCHAR
STARTCHAR uni5709
ENCODING 22281
SWIDTH 1000 0
DWIDTH 10 0
BBX 9 9 0 -1
BITMAP
FF80
8880
FF80
9480
FF80
8880
BE80
8880
FF80
ENDCHAR
STARTCHAR uni570B
ENCODING 22283
SWIDTH 1000 0
DWIDTH 10 0
BBX 9 9 0 -1
BITMAP
FF80
8A80
FF80
9480
F680
8480
EA80
9280
FF80
ENDCHAR
STARTCHAR uni570D
ENCODING 22285
SWIDTH 1000 0
DWIDTH 10 0
BBX 9 9 0 -1
BITMAP
FF80
8880
BE80
9280
FF80
A480
FF80
8480
FF80
ENDCHAR
STARTCHAR uni570F
ENCODING 22287
SWIDTH 1000 0
DWIDTH 10 0
BBX 9 9 0 -1
BITMAP
FF80
AA80
9480
FF80
9480
A680
DD80
9280
FF80
ENDCHAR
STARTCHAR uni5712
ENCODING 22290
SWIDTH 1000 0
DWIDTH 10 0
BBX 9 9 0 -1
BITMAP
FF80
8880
BE80
8880
FF80
A280
BF80
9480
FF80
ENDCHAR
STARTCHAR uni5713
ENCODING 22291
SWIDTH 1000 0
DWIDTH 10 0
BBX 9 9 0 -1
BITMAP
FF80
9480
BE80
A280
BE80
A280
9C80
A280
FF80
ENDCHAR
STARTCHAR uni5716
ENCODING 22294
SWIDTH 1000 0
DWIDTH 10 0
BBX 9 9 0 -1
BITMAP
FF80
A280
BE80
8880
FF80
AA80
AE80
A280
FF80
ENDCHAR
STARTCHAR uni5718
ENCODING 22296
SWIDTH 1000 0
DWIDTH 10 0
BBX 9 9 0 -1
BITMAP
FF80
8880
BE80
AA80
BE80
AA80
FF80
9280
FF80
ENDCHAR
STARTCHAR uni571C
ENCODING 22300
SWIDTH 1000 0
DWIDTH 10 0
BBX 9 9 0 -1
BITMAP
FF80
AA80
BE80
8080
FF80
9480
FD80
A280
FF80
ENDCHAR
STARTCHAR uni571F
ENCODING 22303
SWIDTH 1000 0
DWIDTH 10 0
BBX 9 10 0 -1
BITMAP
0800
0800
0800
7F00
0800
0800
0800
0800
0800
FF80
ENDCHAR
STARTCHAR uni5726
ENCODING 22310
SWIDTH 1000 0
DWIDTH 10 0
BBX 9 9 0 -1
BITMAP
4E00
4200
E200
4200
4200
4500
4500
E880
3080
ENDCHAR
STARTCHAR uni5727
ENCODING 22311
SWIDTH 1000 0
DWIDTH 10 0
BBX 9 9 0 -1
BITMAP
7F80
4000
4200
4200
5F80
4200
8200
8200
3F80
ENDCHAR
STARTCHAR uni5728
ENCODING 22312
SWIDTH 1000 0
DWIDTH 10 0
BBX 9 10 0 -1
BITMAP
1000
1000
FF80
2200
2200
5F80
C200
4200
4200
5F80
ENDCHAR
STARTCHAR uni572D
ENCODING 22317
SWIDTH 1000 0
DWIDTH 10 0
BBX 9 10 0 -1
BITMAP
0800
0800
7F00
0800
FF80
0800
7F00
0800
0800
FF80
ENDCHAR
STARTCHAR uni5730
ENCODING 22320
SWIDTH 1000 0
DWIDTH 10 0
BBX 9 10 0 -1
BITMAP
0200
4200
4A00
EB80
4E80
5A80
4A00
4800
E880
0F80
ENDCHAR
STARTCHAR uni5737
ENCODING 22327
SWIDTH 1000 0
DWIDTH 10 0
BBX 9 9 0 -1
BITMAP
5F80
4400
E400
4600
4500
4480
4400
E400
0400
ENDCHAR
STARTCHAR uni5738
ENCODING 22328
SWIDTH 1000 0
DWIDTH 10 0
BBX 9 10 0 -1
BITMAP
0200
4200
4200
F280
5280
5280
5280
5280
F280
1F80
ENDCHAR
STARTCHAR uni573B
ENCODING 22331
SWIDTH 1000 0
DWIDTH 10 0
BBX 9 9 0 -1
BITMAP
4180
4E00
E800
4F80
4900
4900
5100
F100
0100
ENDCHAR
STARTCHAR uni5740
ENCODING 22336
SWIDTH 1000 0
DWIDTH 10 0
BBX 9 10 0 -1
BITMAP
0200
4200
4200
EA00
4B80
4A00
4A00
4A00
EA00
1F80
ENDCHAR
STARTCHAR uni5742
ENCODING 22338
SWIDTH 1000 0
DWIDTH 10 0
BBX 9 9 0 -1
BITMAP
4F80
4800
F800
4F80
4880
5480
5500
E300
0C80
ENDCHAR
STARTCHAR uni5747
ENCODING 22343
SWIDTH 1000 0
DWIDTH 10 0
BBX 9 10 0 -1
BITMAP
0800
4800
4F80
F080
4E80
4080
4380
4C80
E080
0300
ENDCHAR
STARTCHAR uni574A
ENCODING 22346
SWIDTH 1000 0
DWIDTH 10 0
BBX 9 10 0 -1
BITMAP
0200
4200
5F80
E400
4400
4780
4480
4880
E880
0300
ENDCHAR
STARTCHAR uni574E
ENCODING 22350
SWIDTH 1000 0
DWIDTH 10 0
BBX 9 10 0 -1
BITMAP
0800
4800
4F80
EA80
5280
5200
4200
4200
E500
1880
ENDCHAR
STARTCHAR uni574F
ENCODING 22351
SWIDTH 1000 0
DWIDTH 10 0
BBX 9 9 0 -1
BITMAP
5F80
4100
E100
4200
4600
4B00
5280
E200
0200
ENDCHAR
STARTCHAR uni5750
ENCODING 22352
SWIDTH 1000 0
DWIDTH 10 0
BBX 9 10 0 -1
BITMAP
0800
0800
2900
2900
5A80
8C80
0800
7F00
0800
FF80
ENDCHAR
STARTCHAR uni5751
ENCODING 22353
SWIDTH 1000 0
DWIDTH 10 0
BBX 9 10 0 -1
BITMAP
0400
4400
5F80
E000
4F00
4900
4900
4900
F100
1180
ENDCHAR
STARTCHAR uni5761
ENCODING 22369
SWIDTH 1000 0
DWIDTH 10 0
BBX 9 10 0 -1
BITMAP
0200
4200
5F80
F280
5200
5F80
5480
5480
E300
1C80
ENDCHAR
STARTCHAR uni5764
ENCODING 22372
SWIDTH 1000 0
DWIDTH 10 0
BBX 9 10 0 -1
BITMAP
0200
4200
5F80
F280
5F80
5280
5280
5F80
E200
0200
ENDCHAR
STARTCHAR uni5766
ENCODING 22374
SWIDTH 1000 0
DWIDTH 10 0
BBX 9 9 0 -1
BITMAP
4F80
4880
E880
4F80
4880
4880
4F80
E000
1F80
ENDCHAR
STARTCHAR uni5769
ENCODING 22377
SWIDTH 1000 0
DWIDTH 10 0
BBX 9 10 0 -1
BITMAP
0800
4880
4880
FF80
4880
4880
4F80
4880
E880
0F80
ENDCHAR
STARTCHAR uni576A
ENCODING 22378
SWIDTH 1000 0
DWIDTH 10 0
BBX 9 9 0 -1
BITMAP
5F80
4200
EA80
4B00
4200
4200
5F80
E200
0200
ENDCHAR
STARTCHAR uni577F
ENCODING 22399
SWIDTH 1000 0
DWIDTH 10 0
BBX 9 10 0 -1
BITMAP
0080
4480
4480
EF80
5880
4C80
4A80
4880
E880
0980
ENDCHAR
STARTCHAR uni5782
ENCODING 22402
SWIDTH 1000 0
DWIDTH 10 0
BBX 9 9 0 -1
BITMAP
7F00
0800
FF80
4900
FF80
4900
FF80
0800
FF80
ENDCHAR
STARTCHAR uni5788
ENCODING 22408
SWIDTH 1000 0
DWIDTH 10 0
BBX 9 10 0 -1
BITMAP
0400
2480
5F80
C200
4200
4980
0800
7F00
0800
FF80
ENDCHAR
STARTCHAR uni5789
ENCODING 22409
SWIDTH 1000 0
DWIDTH 10 0
BBX 9 10 0 -1
BITMAP
0800
4800
4F80
F080
4E80
4A80
4E80
4800
E880
0F80
ENDCHAR
STARTCHAR uni578B
ENCODING 22411
SWIDTH 1000 0
DWIDTH 10 0
BBX 9 9 0 -1
BITMAP
FA80
5280
FA80
5080
9180
0800
7F00
0800
FF80
ENDCHAR
STARTCHAR uni5793
ENCODING 22419
SWIDTH 1000 0
DWIDTH 10 0
BBX 9 10 0 -1
BITMAP
0200
4200
5F80
E480
4900
4A00
4480
4900
E600
1980
ENDCHAR
STARTCHAR uni57A0
ENCODING 22432
SWIDTH 1000 0
DWIDTH 10 0
BBX 9 9 0 -1
BITMAP
4F80
4880
EF80
4880
4F80
4A00
4A80
E900
0C80
ENDCHAR
STARTCHAR uni57A2
ENCODING 22434
SWIDTH 1000 0
DWIDTH 10 0
BBX 9 9 0 -1
BITMAP
4180
4E00
F800
4F80
4800
4F80
5880
E880
0F80
ENDCHAR
STARTCHAR uni57A3
ENCODING 22435
SWIDTH 1000 0
DWIDTH 10 0
BBX 9 9 0 -1
BITMAP
5F80
4000
EF80
4880
4F80
4880
4F80
E000
1F80
ENDCHAR
STARTCHAR uni57A4
ENCODING 22436
SWIDTH 1000 0
DWIDTH 10 0
BBX 9 9 0 -1
BITMAP
5F80
4400
E880
5F80
4200
4F80
4200
E200
1F80
ENDCHAR
STARTCHAR uni57AA
ENCODING 22442
SWIDTH 1000 0
DWIDTH 10 0
BBX 9 10 0 -1
BITMAP
0900
4A00
4000
FF80
4900
4900
5F80
4900
F100
1100
ENDCHAR
STARTCHAR uni57B0
ENCODING 22448
SWIDTH 1000 0
DWIDTH 10 0
BBX 9 10 0 -1
BITMAP
0400
4400
4780
E400
5F80
4000
5F80
4400
E780
0400
ENDCHAR
STARTCHAR uni57B3
ENCODING 22451
SWIDTH 1000 0
DWIDTH 10 0
BBX 9 9 0 -1
BITMAP
4B80
5000
E000
4780
4880
5880
4880
E880
0980
ENDCHAR
STARTCHAR uni57C0
ENCODING 22464
SWIDTH 1000 0
DWIDTH 10 0
BBX 9 9 0 -1
BITMAP
7F00
0800
FF80
2A00
EB80
2800
7F00
0800
FF80
ENDCHAR
STARTCHAR uni57C3
ENCODING 22467
SWIDTH 1000 0
DWIDTH 10 0
BBX 9 10 0 -1
BITMAP
0400
4400
4880
FF80
4800
4F80
5200
5F80
E500
1880
ENDCHAR
STARTCHAR uni57C6
ENCODING 22470
SWIDTH 1000 0
DWIDTH 10 0
BBX 9 9 0 -1
BITMAP
4F80
5100
FF80
5480
5F80
5480
5F80
F080
1180
ENDCHAR
STARTCHAR uni57CB
ENCODING 22475
SWIDTH 1000 0
DWIDTH 10 0
BBX 9 9 0 -1
BITMAP
5F80
5280
FF80
5280
5F80
4200
5F80
E200
1F80
ENDCHAR
STARTCHAR uni57CE
ENCODING 22478
SWIDTH 1000 0
DWIDTH 10 0
BBX 9 10 0 -1
BITMAP
0200
4280
5F80
F200
5E80
5680
5500
5D00
E280
2C80
ENDCHAR
STARTCHAR uni57D2
ENCODING 22482
SWIDTH 1000 0
DWIDTH 10 0
BBX 9 9 0 -1
BITMAP
4F80
4900
F480
5200
4080
5F80
4080
E880
0580
ENDCHAR
STARTCHAR uni57D3
ENCODING 22483
SWIDTH 1000 0
DWIDTH 10 0
BBX 9 9 0 -1
BITMAP
4380
5E00
E980
5E00
4080
5F80
4080
E880
0580
ENDCHAR
STARTCHAR uni57D4
ENCODING 22484
SWIDTH 1000 0
DWIDTH 10 0
BBX 9 10 0 -1
BITMAP
0200
4280
5F80
E200
5F80
5280
5F80
5280
FF80
1280
ENDCHAR
STARTCHAR uni57D6
ENCODING 22486
SWIDTH 1000 0
DWIDTH 10 0
BBX 9 10 0 -1
BITMAP
0900
4900
5F80
E900
4200
4A80
5B00
4A00
EA80
0B80
ENDCHAR
STARTCHAR uni57DC
ENCODING 22492
SWIDTH 1000 0
DWIDTH 10 0
BBX 9 10 0 -1
BITMAP
2200
2200
FF80
2600
6B00
A280
0800
7F00
0800
FF80
ENDCHAR
STARTCHAR uni57DF
ENCODING 22495
SWIDTH 1000 0
DWIDTH 10 0
BBX 9 10 0 -1
BITMAP
0200
4280
5F80
E200
5E80
5680
5500
5D00
E280
0C80
ENDCHAR
STARTCHAR uni57E0
ENCODING 22496
SWIDTH 1000 0
DWIDTH 10 0
BBX 9 10 0 -1
BITMAP
0200
4400
4F80
E880
4F80
4800
4F80
4880
FF80
0200
ENDCHAR
STARTCHAR uni57E3
ENCODING 22499
SWIDTH 1000 0
DWIDTH 10 0
BBX 9 10 0 -1
BITMAP
0200
4200
5F80
E900
4900
5680
4200
5F80
E200
0200
ENDCHAR
STARTCHAR uni57F4
ENCODING 22516
SWIDTH 1000 0
DWIDTH 10 0
BBX 9 10 0 -1
BITMAP
0200
5F80
4200
E780
4480
5780
5480
5780
F000
1F80
ENDCHAR
STARTCHAR uni57F7
ENCODING 22519
SWIDTH 1000 0
DWIDTH 10 0
BBX 9 10 0 -1
BITMAP
2200
2200
FF80
2280
FA80
4F80
FA80
2280
FC80
2480
ENDCHAR
ENDFONT
